<svg id="Layer_1" data-name="Layer 1" xmlns="http://www.w3.org/2000/svg" xmlns:xlink="http://www.w3.org/1999/xlink" viewBox="0 0 1314.13 414"><defs><style>.cls-1{fill:none;}.cls-2{fill:#f04c23;}.cls-3{clip-path:url(#clip-path);}.cls-4{fill:#3766b0;}.cls-5{clip-path:url(#clip-path-2);}</style><clipPath id="clip-path"><polygon id="SVGID" class="cls-1" points="332.05 136.77 128.58 402.55 -99.39 228.02 104.08 -37.75 191.97 29.54 229.07 24.69 230.81 59.27 332.05 136.77"/></clipPath><clipPath id="clip-path-2"><polygon id="SVGID-2" data-name="SVGID" class="cls-1" points="324.75 138.12 128.54 394.4 -91.28 226.11 104.92 -30.18 189.67 34.71 225.44 30.04 227.13 63.38 324.75 138.12"/></clipPath></defs><title>Artboard 8</title><path class="cls-2" d="M196.74,300.63,325.59,158.58l-11.95-11s-10.19-3.83-27.21,4c-4.55,2.09-14,13-25.28,27.75-3.77,4.93,19.73,19.12,15.64,24.74-5.91,8.13-38.44,46.36-44.47,55-8.25,11.85-17.42-14.7-24.44-4.26-13.44,20-23.09,34.85-23.09,34.85Z"/><g class="cls-3"><path class="cls-2" d="M194.76,136.37c-3.85.8-5.64,3.93-7.61,6.86-1.64,2.44-3.21,4.92-4.86,7.35-.37.55-.8,1.42-1.59,1.06s-.5-1.21-.35-1.88a46,46,0,0,1,6.72-15.8q.57-1.9,1.09-3.81c-7.54,5-10.59,15.2-15,23.1a11,11,0,0,0,.77,6.74,2.91,2.91,0,0,1,.23,1.65c2.37,1.38,4.28,3.8,6.16,6.24a.54.54,0,0,1,.36-.25,6.3,6.3,0,0,1,1.34-2.79,6.44,6.44,0,0,1,1.38-1.42,5.76,5.76,0,0,1,.76-1.1c1-1.26,1.64-2.39-.05-3.46a1.21,1.21,0,0,1-.68-1.46c.28-.87,1-.94,1.71-.89,2.18.16,3.39-1.26,4.67-2.79a6.81,6.81,0,0,0,1.16-7c-.45-1.33-.1-2.51,1.38-2,2.52.86,3.5-.79,3.79-2.51a6.55,6.55,0,0,1,1.39-3,5.61,5.61,0,0,0-2.26-3A1.46,1.46,0,0,1,194.76,136.37Z"/><path class="cls-2" d="M277.79,174.46c1-1.41,1.78-2.86.77-5.22-1.93,4.78-2,9.85-6.53,12.63.57-1.19-.65-2.53-.19-3.51,1.35-2.89,3.22-5.54,4.71-8.38,1.57-3,3.13-6,3.4-9.48-3-.93-2.89,1.87-4,3.26.91-.57,1.38-1.72,3.58-2.22-5.85,6.38-5.62,15.47-13.33,20-.5-3,3.29-4.36,3.27-7.15-.71-.36-.83.84-1.49.63-.29-1.72,3.28-2.49,1.17-4.87-.16,2.15-1.44,2.59-3.26,2.83.74-1.27,1.79-1.67,2.4-2.7,2.37-4,4.82-7.87,6.37-12.23.32-.9,2.08-1.71.66-2.75-1-.69-1.54-2.83-3.54-1.22-.26.21-1.27-.57-1.93-.89,1-1-.37-2.74,1.73-3.65a5.82,5.82,0,0,0,2.9-3.84c-1.57.19-2.07,1.77-3.46,2.5,1-2.15,3-3.11,3.79-4.77,1.22-2.49-.12-5.22.42-7.87.13-.66-.72-.49-1.11-.62-.69-.23-.83.33-.75.87.22,1.46-.53,2.66-1,4-1,2.65-2.78,4.92-3.65,7.53-1.52,4.54-4.62,6.88-9,8.06,1.51-2.73,6.17-2.05,6.34-6.2-1.27,0-1,1.62-2.09,1.62-.66-2.58,1.49-4.17,2.31-6.21.1-.25.36-.3.73-.27,1.22.13,1.32.08,1.41-.51.14-1,1-2.35-.88-2.54.25-.73,1.59-1.71.2-2.11-1-.29-1.24,1.33-1.86,2.06-.34.4,0,1.27-1,1.3,1.27-5.69,5.71-11.27,1.27-17.12-1.28,1.2-2.19,3.44-1.33,4.17,2.89,2.48-.52,3.42-1.05,5.08,1.26-4.65-2.35-8.21-2-12.63,0-.33-.17-1.26-1.11-.86-1.1.47-1.09.44-1.26-.51-.76-4.19-2.09-8.06-5.8-11a5.67,5.67,0,0,0,.29,1.17c1.17,2,3.44,3.86-.18,6-.79.48-.11,1.67.07,2.52.53,2.45.39,3.13-1.3,5.32,1.86-4.48-.65-6.78-3.95-9.1l1.21,4.86c-1.5-2.36-2.08-5.19-4.55-6.75-.06,1.74.61,3.5,0,5.31-1.45-.6.13-3.2-2.2-2.83-2.56.41.28,2.16-.82,2.94-2.45-1-1.4-3.46-2-5.61-1.14,1.66-3.53,2.41-1.68,5-1.63-1.24-2.51,0-3.8,1.1.26-2.23-1.44-3.42-1.49-5.57l.87.67c.63.5.23,2.51,1.72,1.56,1.1-.71.14-2-.41-2.56s-1.19-3.28-2.81-.59a.44.44,0,0,1-.82-.25c.2-1.49-.85-1.17-1.66-1.32-2.06-.36-4.12-.69-5-3-.35-.86-1.22-.79-2-.67-.23,0-1.1.06-.59-.36,1.34-1.09-.34-2.09.13-3.06-.32-.14-.67-.36-.88-.26a29.31,29.31,0,0,1-16,3c-.58-.05-1.16-.21-1.62.39-2.21,2.87-5.18,2.15-7.91,1.9s-3.49-1.81-3.2-4.53c.1-.92-.58-1.26-1.29-1.23-3.71.17-5.3-2.75-7.19-5-1.29-1.55-.86-3.06,1.48-3.73a6.49,6.49,0,0,1,6.9,1.73c1.49,1.46,4.25-3.84,6.07-5.25,2.29-1.77,34.11-58.69,13-61.79-3.56-.52-16.56,14.17-18.27,17.86C192,51,179,69.5,173.15,77.74q-9.64,13.49-19.82,26.56c-9.45,12.06-18.82,24.15-27.24,37-1.56,2.37-3.27,4.64-4.87,7s-3.23,4.91-4.85,7.36-3.88,4.57-4.51,7.12c-.74,3-3.19,4.13-4.62,6.27-6.2,9.26-12.64,18.36-18.86,27.61-4.18,6.22-8.11,12.61-12.18,18.9-5.89,9.1-11.84,18.19-16.7,27.87-1.87,3.73-3.43,7.76-5.31,11.39-3.43,6.63-5.85,13.53-8.56,20.37a74.16,74.16,0,0,0,3.67-7.82c2.47-6.14,6.56-10.21,13.14-11.56,2.69-.55,17.72-17.51,22.38-22.12,3.36-3.32,6.66-4.82,11.12-3.59.82.23,1.67.36,2.5.53a7.33,7.33,0,0,0-2.27-2.51,13.84,13.84,0,0,1-4.31-5,5,5,0,0,1,.77-5.6c1.34-1.57,3.07-1.55,4.89-.88a26.37,26.37,0,0,0,6.77,1.38,30.36,30.36,0,0,1,10.82,3.2c.84.42,2.18,1,.9,2.37-.36.4-1.24.47-.7,1.27a1.68,1.68,0,0,0,1.78.73,15.25,15.25,0,0,1,5.56-.18c4.05.78,6.81,3.74,6.14,6.84s1.09,5.49.81,8.32c-3.26,1.38-4.39-.88-5.28-3.54-.57-1.73-2.08-1.28-2.75-.48-1.32,1.58-2.35.81-3.52.28-1.32-.61-1.31-.63-3.9-.54,3.59.77,4.31,3.37,5.3,5.54.61,1.35,2.26,1.66,2.41,3.4.4,4.54.53,4.22,3.86,4.53,2.12.19,4.35-.48,6.48.77,1.47.87,3.14-.1,3.87-2.06.66-1.78,1.05-3.77,3.28-4.44a3,3,0,0,0,1.14-1c.32-.36.73-.84.21-1.26-.36-.29-.93-.5-1.32,0-1.43,1.89-2.93.47-4.48.42,3.56-.45,5.11-2.88,6.09-5.82-.78-.34-.88,1.38-1.67.6a1.61,1.61,0,0,1-.13-2.19,12,12,0,0,1,1.42-1.1c1.2-1.09,1.42-5.24.38-5.15-1.62.13-2.26-4-4.36-.75-.21-.16-.41-.34-.63-.49a10,10,0,0,0-4.16-1.2c-.74-.13-1.8.19-2.09-.7-.71-2.22-2.71-2.27-4.44-2.72a6.84,6.84,0,0,1-2.58-1.22c-8-6.18-14.68-13.89-23.31-19.3-2.43-1.53-2.5-4.1-1-6.79,4-7,8.2-14,12-21.09,8.53-16,19.78-30.12,30.72-44.45a24.09,24.09,0,0,1,9.81-7.88c2.13-.89,4.3-1.59,5.89-3.46a97.38,97.38,0,0,1,16.61-15c2.68-2,4.73-2.11,7.14-.3,3.41,2.56,6.19,5.79,9.35,8.62,1.15,1,2.2,2.17,3.3,3.27a1.48,1.48,0,0,1-.46.23c5.2,4.31,7.18,11.49,9.34,17.77l1.5,1c1.69,1,3.68,1.45,4.81,3.55.55,1,.5,3.61,2.91,3.21,1.2-.2,2.31-.45,2.9,1s-.77,2.17-1.47,3.22l4-1.77c-.88,1.45-3.27,3.52.63,4.15a1.15,1.15,0,0,1,.8.73c.5,3.08.92,6.29,0,9.31-.67,2.09.44,3.56,2.58,3.38a9.73,9.73,0,0,1,4.6.78c1.62.63,3.22,2.47,5.51,1.31.37-.19,1.51.39,1.66.85.2.63-.85.17-1.2.7-1.86,2.81-4.87,1.35-7.27,2.39-.29.84,1.45.58,1.22,1.12-1.53.39-3,.34-3.93,1.09a4.77,4.77,0,0,1-4.75,1.1c-.81-.21-1.89.35-2.81.68-.46.16-.87.53-.44,1.15.9,1.3.68,1.83-.89,2.1-.81.14-1.72-.37-2.55.6l5.55,1.43c-2.12,0-3.34,1.34-5.08,2.9,3.19-.06,3.54,2.51,5.08,4.08-2.58.31-2.58.31-4,1.46,1.23.62,3.79-.74,3.7.49-.13,1.78-2.4.49-3.7.77s-2.67-.67-1.37-2.52c.35-.51,1-.92.17-1.37a1.08,1.08,0,0,0-1.67.66c-.41,1.24-.73,2.5-1.07,3.76-1.12,4.05-.91,4.4,2.89,5.75.61.21,1.87.29,1.42,1.4s-1.37.59-2.17.18c-3-1.53-4.18-1.08-5.53,2.19-.62,1.49-.86,3.21-2.12,4.3a3.94,3.94,0,0,0-1.29,4.24c-3.19-.94-8.3,1.17-10.22,4.06a3.62,3.62,0,0,0,3.88-.37c.85-.52,1.83-.54,2.27.45s-.48,1.64-1.15,1.8c-1.28.31-1.55.86-1.75,2.18-.35,2.3-3.87,4.31-5.87,3.63.1,1,.93,1.93.12,3-1.11-1.16-1.89-2.51-3.8-3a25.89,25.89,0,0,0,.67,3.62c.28.83.43,1.59-.28,2.17-1,.78-1.24,0-1.66-.75s-1.45-.2-2.17-.23c-1.66-.07-3.1-.22-3.62-2.18-.33-1.25-1.28-1.41-1.66-.07-1.31,4.59-5.24,7.61-7.06,12-1.16,2.77-.78,4.73.82,6.74-.07.26-.25.72-.19.75.51.29.76-.12,1-.45-.39,1.74.37,3.07,1.31,4.41.43.62.65,1.7-.28,2.07-1.08.43-.74-.75-1-1.3a6.08,6.08,0,0,0-1.72-2.94c-1.86-1.42-.57-2,.81-2.52-.95-.21-2.27.61-2.41-1.5-.09-1.39-1.92-2.16-2.62-3.56-.39-.78-1.23,0-1.82.29-.74.36-.66.85-.2,1.41a2.24,2.24,0,0,1,.65,1.22c-.07,6.73-3,11.95-9,15.62l.64-4c-1.66-.26-2.2,1.83-3.85,1.73a5,5,0,0,1,.8-1.56c.71-.62,2.15-1,1.36-2.14s-1.68.35-2.43.77c-2.48,1.37-2.91,5.18-6.29,5.54-.3,0-.54.14-.74-.26l1.12-1.46-3.93-.16c2-1.09,4.18-1.05,3.47-3.58l-3,1.4-.65.13c-1.79.71-3.69,1.28-4.78,3.11.48.9,1.35-.45,1.67.24.11,1.43-1.37,1-1.76,1.83a9.59,9.59,0,0,0,5.79,1c-.63,2.08-4.23,3.9-7.26,3.77.59,1.22,2,1.08,2.83,1.83.37.34,1.47.43.86,1.13-2,2.34,1.46,1.84,1.34,3.14,2.9-.34,4,2.8,6.9,3-1.55,1.15-2.6.5-3.72.29-.68-.13-2.09-.45-.87,1.05.48.58,0,.66-.29.76-.84.24-1.67.63-1.28,1.61s1.39.87,2.3.83c1.13-.05,2.58-1.27,3.3-.18,1.33,2,3.15,2.8,5.86,2.87l-2.5,1.51c1.34.62,3.11,0,4.42,1.57-2.25-.7-3.66.87-5.28,1.73a1.9,1.9,0,0,1-.52.48l-.22.12a31.42,31.42,0,0,0,3.56,1.15,7.24,7.24,0,0,0,.9.16c3.81-.89,7.79-1.38,10.84-4.56.71-.74,1.93-1,2.91-1.48-.46,1.24-2.18,1.53-1.38,3.13-.87.43-1,1.51-1.53,2.25a5.61,5.61,0,0,1,4.76,3.4,5.52,5.52,0,0,1,.59,2.22,6.69,6.69,0,0,0,3.09-1.5l-.11,3c1.16-2.47,2.68-3.25,4.11-4.36.33,2.12-2,2.39-2.57,4.17,2.53-1,5-1.53,3.8-4.85-.13-.38.21-1.06.46-.92,2.62,1.47,3.54-1.79,5.52-2.08.31.73-1,.91-.73,1.82,1-1.14,2.35-.43,3.54-.86.35-.13,1.83.4,1.31,1.26-1.35,2.24-.29,4.69-1.21,6.92.72,2.74-.13,5.47-.5,8.18-1.5,11.14,25.56,38.51,79.9-32.63C309.24,204.94,349.49,108.22,277.79,174.46ZM175.15,274.13a11.53,11.53,0,0,0,2.22,2.16c-1.72,2.3-3.65-.37-5.46.59,0-1,2.2-1.29.88-2.54-1-1-1.44.51-2.5.86.83-1.61-.24-4.15,1.77-4.45C173.67,270.5,174.32,272.73,175.15,274.13Zm22-2c-1.19-2.89-1.19-2.89,3.75-7.7C199.88,267.51,197.41,268.83,197.17,272.17Zm2.91-11.78c.12.59-.65,1-1.24.48l-2.12-2.12c1-.74-.81-1.45-.07-2.5,1.31,1,2.61,2.9,4.36-1C201.08,257.89,199.77,258.95,200.07,260.39Zm-16.83-28.78c-1.48,1.57-.95,3.95-2.92,5.46-.73.56-.67,2.83-2,3.9a12.86,12.86,0,0,1,.92,1.25c.61,1,1.38,2.36-.13,3.1-1.75.85-.27-1.47-1.27-1.75-.43-.13-.66-.9-1-1.38l0,0c-1,.35-1.93-.82-3-.17-.56.34-.76.05-.38-.4,1.08-1.27-.89-2.27.29-3.79-1.57,2.12-2.32.9-3.12.06,2,.44,2.25-1.44,3.1-2.54.42-.54-1-1.74.64-1.7.94,0,1.16.85,1.25,1.69,0,.21.32.38.68.76.85-2.27,1-4.68,2.7-6.45.94,1.15-.83,2.23.28,3.35a19.36,19.36,0,0,1,1.21-2.79c.45-.72.67-2.27,1.87-1.64C183.31,229.08,184.35,230.44,183.25,231.62ZM240.42,190h-.11l13.32,17.63c-1.48,1-1.65,1.95-.1,2.85-.3.66-1,.4-1.3.7-.82.72-2.57.09-2.69,1.42s1.55.67,2.31,1.16a1.87,1.87,0,0,1,1,1.95c-.94.29-1-1.56-2.11-.8A1.8,1.8,0,0,0,250,217c1.17,2.59-.34,5.2-.83,7.49-1,4.64-3.34,9.21-7.5,12-2.71,1.84-5.54,3.72-8.74,4.59a2.56,2.56,0,0,0-1.5,1.29c-.47.68-.55,1.61-1.41.26-.44-.69-1,.28-1.2.74-.46,1-.8,2-1.2,3.07-.82-.41-1-.89-.53-1.67.36-.55.44-1.21-.18-1.56s-.74.31-1,.68c-.46.56-.77.57-1.31-.13-2.11-2.72-3.23-2.88-6.53-.93-1.44.85-1.77-.4-2.27-1-1.27-1.46-1.91-3.39-4.75-2.68-.89.22-2.93-1.85-3.29-3.23-1-3.74-4.29-4.5-6.84-6.2-2.85-1.9-3-2.55-.57-5.14a4.2,4.2,0,0,0,.64-.9c-2.06-1.82-1.21-3.52.35-5.27.29-.33.24-1.26.47-1.31,2.3-.56,3.66-2,5.22-3.84a15.73,15.73,0,0,1,3.28-3c3.41-2,5-5.05,6.76-8.31.62-1.18,2-1.92,1.49-3.59-.21-.74.43-1.36,1.14-1.57a1.8,1.8,0,0,0,1.39-2.3c-.44-2.25,2.1-2.33,2.78-3.85.23-.51,1.37.31,1.57,1.13s.29,1.85.46,3a4.47,4.47,0,0,0,1.05-3.88c-.15-1.73-.87-3.92,1.24-4.77a4.58,4.58,0,0,1,5.59,2c1.18,1.81,4.74,1.81,6.18,1.76-.37-.15-.37-.67-.44-1.09l.81,1.08C240.52,190,240.6,190,240.42,190ZM229.9,172.79c-.85-1.77-2.7-1.17-3.55-2.56,2.11-.55,2.88,1.3,4.23,1.88-1,1.76-2.63,2.33-4.26,3C227.55,174.33,228,172.46,229.9,172.79ZM242,180.45c-.12.86-1.22.83-2,.8a16.33,16.33,0,0,1-2.45-.55l2.3-.69c-1-1.27-2.84,0-3.84-1.49a13.29,13.29,0,0,1,4.29.34C241.34,179,242.1,179.58,242,180.45Zm-11.27-19.68c-1.75-1-3.93-.64-6-1.79C227.35,158.53,229.54,158.1,230.71,160.77Z"/><path class="cls-2" d="M118.35,82.24C104.92,90,94.59,101.17,85.14,113.35c-8.34,10.75-16.13,21.84-22,34.13-4.4,9.22-7.3,18.76-6.91,28.41-8.73-7.57-23.08-28.16-24.7-29.15-.59-.36-6.61-6.13-7.11-7.7-.87-2.72-2.72-4.38-3.91-6.73-2.82-5.59-2.47-11.31-.62-17.13.63-2,9.24-11.91,11-13.16C35,99,54.5,92.8,54.28,92.36c-1.57-3.17,3-19.92,3.2-21.32.53-4.16,9.35-13,11.83-15.58C86.44,38,102,52.32,107.93,53.92c9.83,2.67,18.45,8.12,28.37,10.54,4,1,8,2.9,10.21,7.05.46.87,1.55,1,2.52,1.25,4,.95-10.57,4.77-11.06,4.85-1.45.23-2.9.56-4.39.87C134,76.76,124.08,78.93,118.35,82.24Z"/><path class="cls-2" d="M162.37,180l-.1,0a1.74,1.74,0,0,1-1,.09c-4.78-.71-8.84,1.85-12.39,4.49-5.48,4.08-9,9.86-11,16.52l4.65-5.07c2.42-2.63,5.39-4.54,8.23-6.61.81-.59,2-1.12,2.75-.46,1,.88-.17,1.81-.69,2.56a77.8,77.8,0,0,1-5.68,7.88c-3.35,3.75-4.25,8.15-4.84,13,3.26-2.48,4.8-6.34,8.3-8.2,1.24-.66-.17-2.37,1.41-3.34a39.64,39.64,0,0,0,5.48-4.71,3.14,3.14,0,0,0,1.3-3.17c-.44-1.85.55-2.05,2-1.77a3.37,3.37,0,0,0,4.13-2c.31-.67.67-1.32,1.53-1.15s.82,1,1,1.61-.51,1.56.18,2.23c3.31-3.46,4.06-6.74,2.28-10.13C167.46,181.09,164.92,180.53,162.37,180Z"/><path class="cls-2" d="M283.1,176.11a1.92,1.92,0,0,1-.26-2.1c.09-.48.43-1.08-.15-1.31-.85-.33-.9.44-1,1s-.46.94-1,.72c-.22-.08-.51-.45-.47-.64.93-4.59-.73-9.37,1.67-13.84,0-.05.19,0,.49-.1.35,2.23-1.4,4.36-.62,6.86.76-1,2.22-1.23,1.18-2.94a1.38,1.38,0,0,1,1.09-2.06c1.37-.23,1,1,1,1.63a20.72,20.72,0,0,0,1.27,7.2C287.27,173.49,284,174,283.1,176.11Z"/><path class="cls-2" d="M43.19,280.2c3.52-6.51-3.34,8.18-4.72,9.94-.43,2.35-4.75-7.33-3.29-13.77C35.44,275.21,39.67,286.7,43.19,280.2Z"/><path class="cls-2" d="M98.55,227.18a7,7,0,0,1-.83-.79c-.63-.83-2.49-1.09-1.65-2.61s2.41-1.08,3.75-1.15c.33,0,.66.27,1,.42-1.9,3.24,2,2.93,2.64,4.67.21.61,1,1.1.48,1.83s-1.22.17-1.8,0A10.73,10.73,0,0,1,98.55,227.18Z"/><path class="cls-2" d="M277,153.48c-1.9-1.19-3.92-1.44-3.73-3.32.21-2,2.33-3.18,3.68-4.51.93-.91,1.42.5,1.4,1.6C278.27,149.27,276.38,150.78,277,153.48Z"/><path class="cls-2" d="M196.34,105.78c-3.07-2.19-6.28-3.65-6.6-8.47C192.79,99.81,196.07,101.14,196.34,105.78Z"/><path class="cls-2" d="M222.83,104.48l0,.25c3-3.51,4.49-3.53,7-.07a1.15,1.15,0,0,1,.22.8.66.66,0,0,1-.94.48C227.16,105,224.71,105.82,222.83,104.48Z"/><path class="cls-2" d="M281.85,153c1.06,1.72-1.25,3.66,0,5.26.63.81,2.19-.09,2.26-.34a8.48,8.48,0,0,0-.54-5.14A2.79,2.79,0,0,1,281.85,153Z"/><path class="cls-2" d="M181,211.38c-.6.68-1.19,1-1.47.53-.89-1.38-.55-3.05-.29-4.54.13-.74,1.34-.3,1.72.12C182.18,208.8,180.77,210.24,181,211.38Z"/><path class="cls-2" d="M141.36,247.46l-.65.13c-.69.25-1.51.29-1.87-.25s.48-1,.77-1.43a2.76,2.76,0,0,1,2.73-1.58C142,245.38,143.09,246.75,141.36,247.46Z"/><path class="cls-2" d="M158.1,240.23c.53,1.56.52,2.72-.94,3.43a6.14,6.14,0,0,0-.93.53c.27.67.57,1.29-.56,1.48-.53.09-.66-.25-.74-.66a2,2,0,0,1,.56-1.93C156.4,242.21,158.09,242.2,158.1,240.23Z"/><path class="cls-2" d="M236.94,111.46c-2.33-.95-4.08-1.36-5-3.1C233.23,109.5,235.56,108.74,236.94,111.46Z"/><path class="cls-2" d="M118.9,228.75c.44.54.77,1.07.16,1.59a1.47,1.47,0,0,1-1.88.28,1.06,1.06,0,0,1-.06-1.76A1.29,1.29,0,0,1,118.9,228.75Z"/><path class="cls-2" d="M176.82,242.18c-.33-.92-1.39-1.71.22-2.78.67-.45.76-1.84,1.16-2.93,1.9,1.52-.25,3.12,0,4.58v-.17c-.5.4-.57,1.25-1.38,1.33Z"/><path class="cls-2" d="M194.76,136.37c-3.85.8-5.64,3.93-7.61,6.86-1.64,2.44-3.21,4.92-4.86,7.35-.37.55-.8,1.42-1.59,1.06s-.5-1.21-.35-1.88a46,46,0,0,1,6.72-15.8q.57-1.9,1.09-3.81c-7.54,5-10.59,15.2-15,23.1a11,11,0,0,0,.77,6.74,2.91,2.91,0,0,1,.23,1.65c2.37,1.38,4.28,3.8,6.16,6.24a.54.54,0,0,1,.36-.25,6.3,6.3,0,0,1,1.34-2.79,6.44,6.44,0,0,1,1.38-1.42,5.76,5.76,0,0,1,.76-1.1c1-1.26,1.64-2.39-.05-3.46a1.21,1.21,0,0,1-.68-1.46c.28-.87,1-.94,1.71-.89,2.18.16,3.39-1.26,4.67-2.79a6.81,6.81,0,0,0,1.16-7c-.45-1.33-.1-2.51,1.38-2,2.52.86,3.5-.79,3.79-2.51a6.55,6.55,0,0,1,1.39-3,5.61,5.61,0,0,0-2.26-3A1.46,1.46,0,0,1,194.76,136.37Z"/><path class="cls-2" d="M277.79,174.46c1-1.41,1.78-2.86.77-5.22-1.93,4.78-2,9.85-6.53,12.63.57-1.19-.65-2.53-.19-3.51,1.35-2.89,3.22-5.54,4.71-8.38,1.57-3,3.13-6,3.4-9.48-3-.93-2.89,1.87-4,3.26.91-.57,1.38-1.72,3.58-2.22-5.85,6.38-5.62,15.47-13.33,20-.5-3,3.29-4.36,3.27-7.15-.71-.36-.83.84-1.49.63-.29-1.72,3.28-2.49,1.17-4.87-.16,2.15-1.44,2.59-3.26,2.83.74-1.27,1.79-1.67,2.4-2.7,2.37-4,4.82-7.87,6.37-12.23.32-.9,2.08-1.71.66-2.75-1-.69-1.54-2.83-3.54-1.22-.26.21-1.27-.57-1.93-.89,1-1-.37-2.74,1.73-3.65a5.82,5.82,0,0,0,2.9-3.84c-1.57.19-2.07,1.77-3.46,2.5,1-2.15,3-3.11,3.79-4.77,1.22-2.49-.12-5.22.42-7.87.13-.66-.72-.49-1.11-.62-.69-.23-.83.33-.75.87.22,1.46-.53,2.66-1,4-1,2.65-2.78,4.92-3.65,7.53-1.52,4.54-4.62,6.88-9,8.06,1.51-2.73,6.17-2.05,6.34-6.2-1.27,0-1,1.62-2.09,1.62-.66-2.58,1.49-4.17,2.31-6.21.1-.25.36-.3.73-.27,1.22.13,1.32.08,1.41-.51.14-1,1-2.35-.88-2.54.25-.73,1.59-1.71.2-2.11-1-.29-1.24,1.33-1.86,2.06-.34.4,0,1.27-1,1.3,1.27-5.69,5.71-11.27,1.27-17.12-1.28,1.2-2.19,3.44-1.33,4.17,2.89,2.48-.52,3.42-1.05,5.08,1.26-4.65-2.35-8.21-2-12.63,0-.33-.17-1.26-1.11-.86-1.1.47-1.09.44-1.26-.51-.76-4.19-2.09-8.06-5.8-11a5.67,5.67,0,0,0,.29,1.17c1.17,2,3.44,3.86-.18,6-.79.48-.11,1.67.07,2.52.53,2.45.39,3.13-1.3,5.32,1.86-4.48-.65-6.78-3.95-9.1l1.21,4.86c-1.5-2.36-2.08-5.19-4.55-6.75-.06,1.74.61,3.5,0,5.31-1.45-.6.13-3.2-2.2-2.83-2.56.41.28,2.16-.82,2.94-2.45-1-1.4-3.46-2-5.61-1.14,1.66-3.53,2.41-1.68,5-1.63-1.24-2.51,0-3.8,1.1.26-2.23-1.44-3.42-1.49-5.57l.87.67c.63.5.23,2.51,1.72,1.56,1.1-.71.14-2-.41-2.56s-1.19-3.28-2.81-.59a.44.44,0,0,1-.82-.25c.2-1.49-.85-1.17-1.66-1.32-2.06-.36-4.12-.69-5-3-.35-.86-1.22-.79-2-.67-.23,0-1.1.06-.59-.36,1.34-1.09-.34-2.09.13-3.06-.32-.14-.67-.36-.88-.26a29.31,29.31,0,0,1-16,3c-.58-.05-1.16-.21-1.62.39-2.21,2.87-5.18,2.15-7.91,1.9s-3.49-1.81-3.2-4.53c.1-.92-.58-1.26-1.29-1.23-3.71.17-5.3-2.75-7.19-5-1.29-1.55-.86-3.06,1.48-3.73a6.49,6.49,0,0,1,6.9,1.73c1.49,1.46,4.25-3.84,6.07-5.25,2.29-1.77,34.11-58.69,13-61.79-3.56-.52-16.56,14.17-18.27,17.86C192,51,179,69.5,173.15,77.74q-9.64,13.49-19.82,26.56c-9.45,12.06-18.82,24.15-27.24,37-1.56,2.37-3.27,4.64-4.87,7s-3.23,4.91-4.85,7.36-3.88,4.57-4.51,7.12c-.74,3-3.19,4.13-4.62,6.27-6.2,9.26-12.64,18.36-18.86,27.61-4.18,6.22-8.11,12.61-12.18,18.9-5.89,9.1-11.84,18.19-16.7,27.87-1.87,3.73-3.43,7.76-5.31,11.39-3.43,6.63-5.85,13.53-8.56,20.37a74.16,74.16,0,0,0,3.67-7.82c2.47-6.14,6.56-10.21,13.14-11.56,2.69-.55,17.72-17.51,22.38-22.12,3.36-3.32,6.66-4.82,11.12-3.59.82.23,1.67.36,2.5.53a7.33,7.33,0,0,0-2.27-2.51,13.84,13.84,0,0,1-4.31-5,5,5,0,0,1,.77-5.6c1.34-1.57,3.07-1.55,4.89-.88a26.37,26.37,0,0,0,6.77,1.38,30.36,30.36,0,0,1,10.82,3.2c.84.42,2.18,1,.9,2.37-.36.4-1.24.47-.7,1.27a1.68,1.68,0,0,0,1.78.73,15.25,15.25,0,0,1,5.56-.18c4.05.78,6.81,3.74,6.14,6.84s1.09,5.49.81,8.32c-3.26,1.38-4.39-.88-5.28-3.54-.57-1.73-2.08-1.28-2.75-.48-1.32,1.58-2.35.81-3.52.28-1.32-.61-1.31-.63-3.9-.54,3.59.77,4.31,3.37,5.3,5.54.61,1.35,2.26,1.66,2.41,3.4.4,4.54.53,4.22,3.86,4.53,2.12.19,4.35-.48,6.48.77,1.47.87,3.14-.1,3.87-2.06.66-1.78,1.05-3.77,3.28-4.44a3,3,0,0,0,1.14-1c.32-.36.73-.84.21-1.26-.36-.29-.93-.5-1.32,0-1.43,1.89-2.93.47-4.48.42,3.56-.45,5.11-2.88,6.09-5.82-.78-.34-.88,1.38-1.67.6a1.61,1.61,0,0,1-.13-2.19,12,12,0,0,1,1.42-1.1c1.2-1.09,1.42-5.24.38-5.15-1.62.13-2.26-4-4.36-.75-.21-.16-.41-.34-.63-.49a10,10,0,0,0-4.16-1.2c-.74-.13-1.8.19-2.09-.7-.71-2.22-2.71-2.27-4.44-2.72a6.84,6.84,0,0,1-2.58-1.22c-8-6.18-14.68-13.89-23.31-19.3-2.43-1.53-2.5-4.1-1-6.79,4-7,8.2-14,12-21.09,8.53-16,19.78-30.12,30.72-44.45a24.09,24.09,0,0,1,9.81-7.88c2.13-.89,4.3-1.59,5.89-3.46a97.38,97.38,0,0,1,16.61-15c2.68-2,4.73-2.11,7.14-.3,3.41,2.56,6.19,5.79,9.35,8.62,1.15,1,2.2,2.17,3.3,3.27a1.48,1.48,0,0,1-.46.23c5.2,4.31,7.18,11.49,9.34,17.77l1.5,1c1.69,1,3.68,1.45,4.81,3.55.55,1,.5,3.61,2.91,3.21,1.2-.2,2.31-.45,2.9,1s-.77,2.17-1.47,3.22l4-1.77c-.88,1.45-3.27,3.52.63,4.15a1.15,1.15,0,0,1,.8.73c.5,3.08.92,6.29,0,9.31-.67,2.09.44,3.56,2.58,3.38a9.73,9.73,0,0,1,4.6.78c1.62.63,3.22,2.47,5.51,1.31.37-.19,1.51.39,1.66.85.2.63-.85.17-1.2.7-1.86,2.81-4.87,1.35-7.27,2.39-.29.84,1.45.58,1.22,1.12-1.53.39-3,.34-3.93,1.09a4.77,4.77,0,0,1-4.75,1.1c-.81-.21-1.89.35-2.81.68-.46.16-.87.53-.44,1.15.9,1.3.68,1.83-.89,2.1-.81.14-1.72-.37-2.55.6l5.55,1.43c-2.12,0-3.34,1.34-5.08,2.9,3.19-.06,3.54,2.51,5.08,4.08-2.58.31-2.58.31-4,1.46,1.23.62,3.79-.74,3.7.49-.13,1.78-2.4.49-3.7.77s-2.67-.67-1.37-2.52c.35-.51,1-.92.17-1.37a1.08,1.08,0,0,0-1.67.66c-.41,1.24-.73,2.5-1.07,3.76-1.12,4.05-.91,4.4,2.89,5.75.61.21,1.87.29,1.42,1.4s-1.37.59-2.17.18c-3-1.53-4.18-1.08-5.53,2.19-.62,1.49-.86,3.21-2.12,4.3a3.94,3.94,0,0,0-1.29,4.24c-3.19-.94-8.3,1.17-10.22,4.06a3.62,3.62,0,0,0,3.88-.37c.85-.52,1.83-.54,2.27.45s-.48,1.64-1.15,1.8c-1.28.31-1.55.86-1.75,2.18-.35,2.3-3.87,4.31-5.87,3.63.1,1,.93,1.93.12,3-1.11-1.16-1.89-2.51-3.8-3a25.89,25.89,0,0,0,.67,3.62c.28.83.43,1.59-.28,2.17-1,.78-1.24,0-1.66-.75s-1.45-.2-2.17-.23c-1.66-.07-3.1-.22-3.62-2.18-.33-1.25-1.28-1.41-1.66-.07-1.31,4.59-5.24,7.61-7.06,12-1.16,2.77-.78,4.73.82,6.74-.07.26-.25.72-.19.75.51.29.76-.12,1-.45-.39,1.74.37,3.07,1.31,4.41.43.62.65,1.7-.28,2.07-1.08.43-.74-.75-1-1.3a6.08,6.08,0,0,0-1.72-2.94c-1.86-1.42-.57-2,.81-2.52-.95-.21-2.27.61-2.41-1.5-.09-1.39-1.92-2.16-2.62-3.56-.39-.78-1.23,0-1.82.29-.74.36-.66.85-.2,1.41a2.24,2.24,0,0,1,.65,1.22c-.07,6.73-3,11.95-9,15.62l.64-4c-1.66-.26-2.2,1.83-3.85,1.73a5,5,0,0,1,.8-1.56c.71-.62,2.15-1,1.36-2.14s-1.68.35-2.43.77c-2.48,1.37-2.91,5.18-6.29,5.54-.3,0-.54.14-.74-.26l1.12-1.46-3.93-.16c2-1.09,4.18-1.05,3.47-3.58l-3,1.4-.65.13c-1.79.71-3.69,1.28-4.78,3.11.48.9,1.35-.45,1.67.24.11,1.43-1.37,1-1.76,1.83a9.59,9.59,0,0,0,5.79,1c-.63,2.08-4.23,3.9-7.26,3.77.59,1.22,2,1.08,2.83,1.83.37.34,1.47.43.86,1.13-2,2.34,1.46,1.84,1.34,3.14,2.9-.34,4,2.8,6.9,3-1.55,1.15-2.6.5-3.72.29-.68-.13-2.09-.45-.87,1.05.48.58,0,.66-.29.76-.84.24-1.67.63-1.28,1.61s1.39.87,2.3.83c1.13-.05,2.58-1.27,3.3-.18,1.33,2,3.15,2.8,5.86,2.87l-2.5,1.51c1.34.62,3.11,0,4.42,1.57-2.25-.7-3.66.87-5.28,1.73a1.9,1.9,0,0,1-.52.48l-.22.12a31.42,31.42,0,0,0,3.56,1.15,7.24,7.24,0,0,0,.9.16c3.81-.89,7.79-1.38,10.84-4.56.71-.74,1.93-1,2.91-1.48-.46,1.24-2.18,1.53-1.38,3.13-.87.43-1,1.51-1.53,2.25a5.61,5.61,0,0,1,4.76,3.4,5.52,5.52,0,0,1,.59,2.22,6.69,6.69,0,0,0,3.09-1.5l-.11,3c1.16-2.47,2.68-3.25,4.11-4.36.33,2.12-2,2.39-2.57,4.17,2.53-1,5-1.53,3.8-4.85-.13-.38.21-1.06.46-.92,2.62,1.47,3.54-1.79,5.52-2.08.31.73-1,.91-.73,1.82,1-1.14,2.35-.43,3.54-.86.35-.13,1.83.4,1.31,1.26-1.35,2.24-.29,4.69-1.21,6.92.72,2.74-.13,5.47-.5,8.18-1.5,11.14,25.56,38.51,79.9-32.63C309.24,204.94,349.49,108.22,277.79,174.46ZM175.15,274.13a11.53,11.53,0,0,0,2.22,2.16c-1.72,2.3-3.65-.37-5.46.59,0-1,2.2-1.29.88-2.54-1-1-1.44.51-2.5.86.83-1.61-.24-4.15,1.77-4.45C173.67,270.5,174.32,272.73,175.15,274.13Zm22-2c-1.19-2.89-1.19-2.89,3.75-7.7C199.88,267.51,197.41,268.83,197.17,272.17Zm2.91-11.78c.12.59-.65,1-1.24.48l-2.12-2.12c1-.74-.81-1.45-.07-2.5,1.31,1,2.61,2.9,4.36-1C201.08,257.89,199.77,258.95,200.07,260.39Zm-16.83-28.78c-1.48,1.57-.95,3.95-2.92,5.46-.73.56-.67,2.83-2,3.9a12.86,12.86,0,0,1,.92,1.25c.61,1,1.38,2.36-.13,3.1-1.75.85-.27-1.47-1.27-1.75-.43-.13-.66-.9-1-1.38l0,0c-1,.35-1.93-.82-3-.17-.56.34-.76.05-.38-.4,1.08-1.27-.89-2.27.29-3.79-1.57,2.12-2.32.9-3.12.06,2,.44,2.25-1.44,3.1-2.54.42-.54-1-1.74.64-1.7.94,0,1.16.85,1.25,1.69,0,.21.32.38.68.76.85-2.27,1-4.68,2.7-6.45.94,1.15-.83,2.23.28,3.35a19.36,19.36,0,0,1,1.21-2.79c.45-.72.67-2.27,1.87-1.64C183.31,229.08,184.35,230.44,183.25,231.62ZM240.42,190h-.11l13.32,17.63c-1.48,1-1.65,1.95-.1,2.85-.3.66-1,.4-1.3.7-.82.72-2.57.09-2.69,1.42s1.55.67,2.31,1.16a1.87,1.87,0,0,1,1,1.95c-.94.29-1-1.56-2.11-.8A1.8,1.8,0,0,0,250,217c1.17,2.59-.34,5.2-.83,7.49-1,4.64-3.34,9.21-7.5,12-2.71,1.84-5.54,3.72-8.74,4.59a2.56,2.56,0,0,0-1.5,1.29c-.47.68-.55,1.61-1.41.26-.44-.69-1,.28-1.2.74-.46,1-.8,2-1.2,3.07-.82-.41-1-.89-.53-1.67.36-.55.44-1.21-.18-1.56s-.74.31-1,.68c-.46.56-.77.57-1.31-.13-2.11-2.72-3.23-2.88-6.53-.93-1.44.85-1.77-.4-2.27-1-1.27-1.46-1.91-3.39-4.75-2.68-.89.22-2.93-1.85-3.29-3.23-1-3.74-4.29-4.5-6.84-6.2-2.85-1.9-3-2.55-.57-5.14a4.2,4.2,0,0,0,.64-.9c-2.06-1.82-1.21-3.52.35-5.27.29-.33.24-1.26.47-1.31,2.3-.56,3.66-2,5.22-3.84a15.73,15.73,0,0,1,3.28-3c3.41-2,5-5.05,6.76-8.31.62-1.18,2-1.92,1.49-3.59-.21-.74.43-1.36,1.14-1.57a1.8,1.8,0,0,0,1.39-2.3c-.44-2.25,2.1-2.33,2.78-3.85.23-.51,1.37.31,1.57,1.13s.29,1.85.46,3a4.47,4.47,0,0,0,1.05-3.88c-.15-1.73-.87-3.92,1.24-4.77a4.58,4.58,0,0,1,5.59,2c1.18,1.81,4.74,1.81,6.18,1.76-.37-.15-.37-.67-.44-1.09l.81,1.08C240.52,190,240.6,190,240.42,190ZM229.9,172.79c-.85-1.77-2.7-1.17-3.55-2.56,2.11-.55,2.88,1.3,4.23,1.88-1,1.76-2.63,2.33-4.26,3C227.55,174.33,228,172.46,229.9,172.79ZM242,180.45c-.12.86-1.22.83-2,.8a16.33,16.33,0,0,1-2.45-.55l2.3-.69c-1-1.27-2.84,0-3.84-1.49a13.29,13.29,0,0,1,4.29.34C241.34,179,242.1,179.58,242,180.45Zm-11.27-19.68c-1.75-1-3.93-.64-6-1.79C227.35,158.53,229.54,158.1,230.71,160.77Z"/><path class="cls-2" d="M118.35,82.24C104.92,90,94.59,101.17,85.14,113.35c-8.34,10.75-16.13,21.84-22,34.13-4.4,9.22-7.3,18.76-6.91,28.41-8.73-7.57-23.08-28.16-24.7-29.15-.59-.36-6.61-6.13-7.11-7.7-.87-2.72-2.72-4.38-3.91-6.73-2.82-5.59-2.47-11.31-.62-17.13.63-2,9.24-11.91,11-13.16C35,99,54.5,92.8,54.28,92.36c-1.57-3.17,3-19.92,3.2-21.32.53-4.16,9.35-13,11.83-15.58C86.44,38,102,52.32,107.93,53.92c9.83,2.67,18.45,8.12,28.37,10.54,4,1,8,2.9,10.21,7.05.46.87,1.55,1,2.52,1.25,4,.95-10.57,4.77-11.06,4.85-1.45.23-2.9.56-4.39.87C134,76.76,124.08,78.93,118.35,82.24Z"/><path class="cls-2" d="M162.37,180l-.1,0a1.74,1.74,0,0,1-1,.09c-4.78-.71-8.84,1.85-12.39,4.49-5.48,4.08-9,9.86-11,16.52l4.65-5.07c2.42-2.63,5.39-4.54,8.23-6.61.81-.59,2-1.12,2.75-.46,1,.88-.17,1.81-.69,2.56a77.8,77.8,0,0,1-5.68,7.88c-3.35,3.75-4.25,8.15-4.84,13,3.26-2.48,4.8-6.34,8.3-8.2,1.24-.66-.17-2.37,1.41-3.34a39.64,39.64,0,0,0,5.48-4.71,3.14,3.14,0,0,0,1.3-3.17c-.44-1.85.55-2.05,2-1.77a3.37,3.37,0,0,0,4.13-2c.31-.67.67-1.32,1.53-1.15s.82,1,1,1.61-.51,1.56.18,2.23c3.31-3.46,4.06-6.74,2.28-10.13C167.46,181.09,164.92,180.53,162.37,180Z"/><path class="cls-2" d="M283.1,176.11a1.92,1.92,0,0,1-.26-2.1c.09-.48.43-1.08-.15-1.31-.85-.33-.9.44-1,1s-.46.94-1,.72c-.22-.08-.51-.45-.47-.64.93-4.59-.73-9.37,1.67-13.84,0-.05.19,0,.49-.1.35,2.23-1.4,4.36-.62,6.86.76-1,2.22-1.23,1.18-2.94a1.38,1.38,0,0,1,1.09-2.06c1.37-.23,1,1,1,1.63a20.72,20.72,0,0,0,1.27,7.2C287.27,173.49,284,174,283.1,176.11Z"/><path class="cls-2" d="M43.19,280.2c3.52-6.51-3.34,8.18-4.72,9.94-.43,2.35-4.75-7.33-3.29-13.77C35.44,275.21,39.67,286.7,43.19,280.2Z"/><path class="cls-2" d="M98.55,227.18a7,7,0,0,1-.83-.79c-.63-.83-2.49-1.09-1.65-2.61s2.41-1.08,3.75-1.15c.33,0,.66.27,1,.42-1.9,3.24,2,2.93,2.64,4.67.21.61,1,1.1.48,1.83s-1.22.17-1.8,0A10.73,10.73,0,0,1,98.55,227.18Z"/><path class="cls-2" d="M277,153.48c-1.9-1.19-3.92-1.44-3.73-3.32.21-2,2.33-3.18,3.68-4.51.93-.91,1.42.5,1.4,1.6C278.27,149.27,276.38,150.78,277,153.48Z"/><path class="cls-2" d="M196.34,105.78c-3.07-2.19-6.28-3.65-6.6-8.47C192.79,99.81,196.07,101.14,196.34,105.78Z"/><path class="cls-2" d="M222.83,104.48l0,.25c3-3.51,4.49-3.53,7-.07a1.15,1.15,0,0,1,.22.8.66.66,0,0,1-.94.48C227.16,105,224.71,105.82,222.83,104.48Z"/><path class="cls-2" d="M281.85,153c1.06,1.72-1.25,3.66,0,5.26.63.81,2.19-.09,2.26-.34a8.48,8.48,0,0,0-.54-5.14A2.79,2.79,0,0,1,281.85,153Z"/><path class="cls-2" d="M181,211.38c-.6.68-1.19,1-1.47.53-.89-1.38-.55-3.05-.29-4.54.13-.74,1.34-.3,1.72.12C182.18,208.8,180.77,210.24,181,211.38Z"/><path class="cls-2" d="M141.36,247.46l-.65.13c-.69.25-1.51.29-1.87-.25s.48-1,.77-1.43a2.76,2.76,0,0,1,2.73-1.58C142,245.38,143.09,246.75,141.36,247.46Z"/><path class="cls-2" d="M158.1,240.23c.53,1.56.52,2.72-.94,3.43a6.14,6.14,0,0,0-.93.53c.27.67.57,1.29-.56,1.48-.53.09-.66-.25-.74-.66a2,2,0,0,1,.56-1.93C156.4,242.21,158.09,242.2,158.1,240.23Z"/><path class="cls-2" d="M236.94,111.46c-2.33-.95-4.08-1.36-5-3.1C233.23,109.5,235.56,108.74,236.94,111.46Z"/><path class="cls-2" d="M118.9,228.75c.44.54.77,1.07.16,1.59a1.47,1.47,0,0,1-1.88.28,1.06,1.06,0,0,1-.06-1.76A1.29,1.29,0,0,1,118.9,228.75Z"/><path class="cls-2" d="M176.82,242.18c-.33-.92-1.39-1.71.22-2.78.67-.45.76-1.84,1.16-2.93,1.9,1.52-.25,3.12,0,4.58v-.17c-.5.4-.57,1.25-1.38,1.33Z"/></g><path class="cls-2" d="M326.1,157.92,210.76,308.57l-5.13-.58-5.76-.38s-15.65-.29-14.91-11a63.38,63.38,0,0,1,2.36-13c1.7-6-1.63-8.29,15-26.46,5.81-6.34,35.24-12.33,41.74-19.13,8.85-9.25,12.31-42,21.15-51,26.36-26.65,48-39.09,48-39.09Z"/><path class="cls-4" d="M194.27,296.12l124.24-137L310,141.94a163.76,163.76,0,0,0-29.26,10.38c-4.39,2-13.46,12.49-24.38,26.75-3.64,4.76,19,18.44,15.08,23.86-5.7,7.84-37.06,44.71-42.88,53.05-8,11.43-16.8-14.17-23.57-4.1-13,19.27-22.27,33.6-22.27,33.6Z"/><g class="cls-5"><path class="cls-4" d="M192.36,137.73c-3.72.77-5.44,3.79-7.34,6.61-1.58,2.35-3.1,4.74-4.69,7.08-.36.53-.77,1.37-1.54,1s-.49-1.16-.34-1.82a44.33,44.33,0,0,1,6.48-15.23q.55-1.83,1.05-3.68c-7.27,4.83-10.21,14.66-14.5,22.27a10.57,10.57,0,0,0,.75,6.5,2.8,2.8,0,0,1,.22,1.59c2.29,1.33,4.13,3.67,5.94,6a.52.52,0,0,1,.34-.24,6.08,6.08,0,0,1,1.29-2.69,6.21,6.21,0,0,1,1.33-1.37,5.56,5.56,0,0,1,.74-1.06c1-1.21,1.59-2.31,0-3.33a1.17,1.17,0,0,1-.66-1.41c.27-.83,1-.9,1.65-.86,2.1.15,3.27-1.21,4.5-2.69a6.56,6.56,0,0,0,1.12-6.77c-.43-1.28-.09-2.42,1.33-1.93,2.43.83,3.38-.76,3.66-2.42a6.32,6.32,0,0,1,1.34-2.9,5.41,5.41,0,0,0-2.18-2.91A1.4,1.4,0,0,1,192.36,137.73Z"/><path class="cls-4" d="M272.43,174.46c.94-1.36,1.72-2.76.74-5-1.86,4.61-2,9.5-6.3,12.18.55-1.14-.62-2.44-.18-3.38,1.3-2.79,3.11-5.34,4.54-8.08,1.51-2.89,3-5.83,3.28-9.14-2.85-.9-2.79,1.8-3.83,3.14.88-.55,1.33-1.66,3.45-2.14-5.64,6.15-5.42,14.92-12.86,19.27-.48-2.89,3.17-4.2,3.15-6.89-.68-.34-.8.81-1.44.61-.28-1.66,3.17-2.4,1.13-4.69-.15,2.07-1.39,2.5-3.15,2.73.71-1.22,1.72-1.61,2.31-2.6,2.29-3.82,4.65-7.59,6.15-11.79.31-.86,2-1.65.64-2.65-.92-.67-1.48-2.73-3.41-1.17-.25.2-1.22-.55-1.86-.86,1-.92-.35-2.64,1.67-3.52a5.61,5.61,0,0,0,2.8-3.7c-1.51.18-2,1.71-3.33,2.41.93-2.07,2.86-3,3.65-4.6,1.18-2.4-.12-5,.4-7.59.13-.63-.7-.48-1.07-.6-.66-.22-.8.32-.72.83.21,1.41-.52,2.56-1,3.84-.94,2.56-2.68,4.75-3.52,7.26-1.46,4.38-4.45,6.63-8.71,7.77,1.46-2.63,6-2,6.11-6-1.23,0-1,1.56-2,1.56-.63-2.49,1.44-4,2.23-6,.1-.25.35-.29.7-.26,1.17.12,1.27.08,1.36-.49.14-1,1-2.26-.84-2.45.24-.7,1.53-1.65.2-2-1-.28-1.2,1.28-1.8,2-.33.39,0,1.22-1,1.26,1.23-5.49,5.5-10.87,1.22-16.51-1.23,1.16-2.11,3.32-1.29,4,2.79,2.39-.51,3.3-1,4.9,1.21-4.48-2.27-7.92-1.94-12.18,0-.32-.16-1.22-1.07-.83-1.06.46-1.05.42-1.22-.5-.73-4-2-7.77-5.6-10.6a5.47,5.47,0,0,0,.28,1.13c1.13,1.91,3.31,3.72-.17,5.83-.76.46-.11,1.61.07,2.43.51,2.36.38,3-1.25,5.13,1.79-4.32-.63-6.54-3.81-8.78l1.16,4.69c-1.44-2.28-2-5-4.38-6.51-.05,1.68.59,3.37,0,5.12-1.4-.58.13-3.09-2.12-2.73-2.47.39.27,2.08-.79,2.84-2.36-.93-1.35-3.34-1.9-5.41-1.1,1.6-3.41,2.33-1.62,4.82-1.58-1.2-2.42,0-3.66,1.06.25-2.15-1.39-3.3-1.44-5.37l.84.65c.61.48.23,2.42,1.66,1.5,1.06-.68.13-2-.4-2.47s-1.15-3.16-2.71-.57a.42.42,0,0,1-.79-.25c.19-1.44-.82-1.13-1.6-1.27-2-.35-4-.67-4.87-2.89-.33-.83-1.17-.76-2-.64-.23,0-1.07.06-.57-.35,1.29-1.05-.32-2,.13-3-.31-.13-.65-.35-.85-.25a28.26,28.26,0,0,1-15.43,2.89c-.56-.05-1.12-.2-1.56.38-2.13,2.77-5,2.07-7.63,1.83s-3.36-1.74-3.08-4.36c.09-.89-.56-1.21-1.25-1.18-3.58.16-5.11-2.65-6.94-4.85-1.24-1.5-.83-2.95,1.43-3.6a6.26,6.26,0,0,1,6.66,1.67c1.43,1.41,4.09-3.7,5.85-5.06,2.21-1.71,32.89-56.59,12.57-59.58-3.43-.51-16,13.66-17.62,17.22-1.52,3.28-14.05,21.15-19.72,29.09q-9.29,13-19.11,25.61c-9.11,11.63-18.14,23.29-26.26,35.64-1.5,2.29-3.16,4.47-4.69,6.74s-3.11,4.73-4.68,7.1-3.74,4.4-4.35,6.87c-.71,2.89-3.07,4-4.45,6-6,8.93-12.19,17.7-18.18,26.62C85.76,201.81,82,208,78,214c-5.68,8.78-11.42,17.54-16.1,26.88-1.81,3.6-3.31,7.49-5.12,11-3.31,6.39-5.64,13-8.26,19.64A71.51,71.51,0,0,0,52.11,264c2.38-5.92,6.32-9.84,12.67-11.14,2.6-.53,17.09-16.88,21.59-21.33,3.24-3.2,6.42-4.65,10.72-3.46.79.22,1.61.35,2.41.51a7.07,7.07,0,0,0-2.19-2.42,13.35,13.35,0,0,1-4.15-4.82,4.84,4.84,0,0,1,.74-5.4c1.3-1.51,3-1.49,4.72-.85a25.43,25.43,0,0,0,6.53,1.33,29.28,29.28,0,0,1,10.44,3.08c.81.41,2.1.92.87,2.29-.35.39-1.2.45-.67,1.23a1.62,1.62,0,0,0,1.72.7,14.7,14.7,0,0,1,5.36-.18c3.91.76,6.57,3.61,5.92,6.6s1,5.3.78,8c-3.14,1.33-4.24-.85-5.09-3.41-.55-1.67-2-1.23-2.65-.46-1.27,1.52-2.27.78-3.39.27-1.28-.58-1.27-.61-3.76-.52,3.46.74,4.16,3.25,5.11,5.34.59,1.3,2.18,1.6,2.32,3.28.38,4.38.51,4.07,3.72,4.37,2,.19,4.2-.46,6.25.74,1.42.84,3-.09,3.73-2,.64-1.71,1-3.63,3.17-4.28a2.93,2.93,0,0,0,1.1-.93c.31-.35.7-.81.2-1.21-.35-.28-.9-.49-1.27,0-1.37,1.82-2.82.45-4.32.4,3.43-.44,4.92-2.78,5.87-5.61-.75-.32-.85,1.33-1.61.58a1.55,1.55,0,0,1-.13-2.11,11.6,11.6,0,0,1,1.37-1.06c1.16-1,1.37-5,.37-5-1.57.13-2.18-3.89-4.2-.73-.2-.16-.4-.33-.61-.47a9.59,9.59,0,0,0-4-1.16c-.71-.13-1.74.19-2-.67-.69-2.14-2.61-2.19-4.28-2.62a6.6,6.6,0,0,1-2.49-1.17c-7.69-6-14.16-13.39-22.48-18.61-2.34-1.47-2.41-4-.93-6.54,3.87-6.77,7.91-13.46,11.58-20.34,8.23-15.43,19.08-29,29.63-42.87a23.23,23.23,0,0,1,9.46-7.6c2.05-.85,4.14-1.53,5.68-3.34a93.91,93.91,0,0,1,16-14.48c2.58-1.91,4.56-2,6.88-.29,3.29,2.47,6,5.58,9,8.31,1.11,1,2.12,2.09,3.19,3.15a1.43,1.43,0,0,1-.45.22c5,4.15,6.92,11.08,9,17.14l1.45,1c1.63.95,3.54,1.4,4.64,3.43.53,1,.48,3.48,2.8,3.09,1.15-.19,2.23-.43,2.8,1s-.74,2.09-1.42,3.1l3.9-1.7c-.85,1.4-3.15,3.39.61,4a1.11,1.11,0,0,1,.78.7c.49,3,.89,6.07,0,9-.64,2,.42,3.44,2.49,3.26a9.38,9.38,0,0,1,4.43.75c1.56.61,3.1,2.38,5.32,1.26.36-.18,1.46.38,1.6.82.19.61-.82.17-1.16.68-1.79,2.71-4.69,1.3-7,2.31-.28.81,1.4.56,1.18,1.08-1.47.37-2.94.33-3.79,1a4.6,4.6,0,0,1-4.58,1.06c-.79-.2-1.82.34-2.71.65-.44.15-.84.52-.43,1.11.87,1.25.66,1.76-.86,2-.78.13-1.66-.36-2.45.58l5.35,1.38c-2,0-3.22,1.29-4.9,2.8,3.08-.06,3.41,2.42,4.9,3.94-2.49.3-2.49.3-3.85,1.41,1.19.6,3.65-.72,3.56.48-.12,1.71-2.32.48-3.57.75s-2.57-.65-1.32-2.43c.34-.49,1-.88.16-1.32a1,1,0,0,0-1.61.63c-.39,1.19-.7,2.41-1,3.62-1.08,3.91-.88,4.25,2.79,5.55.58.21,1.81.28,1.37,1.35s-1.32.57-2.09.18c-2.89-1.48-4-1-5.34,2.11-.59,1.43-.83,3.1-2,4.14a3.8,3.8,0,0,0-1.24,4.09c-3.08-.9-8,1.13-9.86,3.92a3.49,3.49,0,0,0,3.75-.36c.82-.5,1.77-.52,2.19.44s-.46,1.58-1.11,1.73c-1.24.3-1.49.83-1.68,2.1-.34,2.22-3.73,4.16-5.66,3.5.1,1,.9,1.86.12,2.92-1.07-1.12-1.82-2.42-3.66-2.86a25,25,0,0,0,.64,3.49c.27.8.41,1.54-.27,2.09-.92.75-1.2,0-1.6-.72s-1.39-.19-2.1-.22c-1.6-.07-3-.22-3.49-2.1-.32-1.2-1.23-1.36-1.6-.07-1.26,4.43-5.06,7.34-6.81,11.53a5.73,5.73,0,0,0,.8,6.5c-.07.25-.24.69-.18.73.49.28.73-.12,1-.43-.37,1.67.36,3,1.26,4.25.42.6.62,1.64-.27,2-1,.41-.71-.73-.92-1.26a5.87,5.87,0,0,0-1.66-2.84c-1.8-1.37-.55-1.91.78-2.43-.91-.2-2.19.59-2.32-1.44-.09-1.34-1.85-2.09-2.53-3.43-.38-.75-1.19,0-1.75.28s-.63.82-.19,1.36a2.16,2.16,0,0,1,.63,1.17c-.06,6.49-2.85,11.52-8.65,15.07l.62-3.88c-1.6-.25-2.12,1.77-3.71,1.67a4.86,4.86,0,0,1,.77-1.5c.68-.6,2.07-1,1.31-2.06s-1.62.34-2.34.74c-2.39,1.32-2.8,5-6.06,5.35-.29,0-.52.14-.72-.25l1.08-1.41-3.79-.15c1.9-1.05,4-1,3.34-3.45l-2.93,1.35-.62.12c-1.73.69-3.56,1.23-4.61,3,.46.87,1.3-.43,1.61.23.11,1.38-1.32,1-1.7,1.76a9.25,9.25,0,0,0,5.59.94c-.61,2-4.08,3.76-7,3.63.57,1.17,1.94,1,2.73,1.76.36.32,1.42.41.83,1.09-2,2.26,1.41,1.78,1.29,3,2.8-.33,3.85,2.7,6.66,2.86-1.49,1.11-2.51.48-3.58.28-.66-.12-2-.43-.83,1,.46.56,0,.64-.28.73-.81.23-1.61.61-1.23,1.55s1.34.84,2.22.8c1.09-.05,2.49-1.23,3.18-.17,1.28,1.95,3,2.7,5.65,2.77l-2.41,1.45c1.29.6,3,0,4.26,1.51-2.17-.68-3.52.84-5.09,1.66a1.83,1.83,0,0,1-.5.47l-.21.12a30.29,30.29,0,0,0,3.43,1.11,7,7,0,0,0,.87.16c3.68-.86,7.51-1.33,10.45-4.39a9.63,9.63,0,0,1,2.81-1.42c-.44,1.2-2.1,1.48-1.33,3-.83.41-1,1.45-1.48,2.17a5.41,5.41,0,0,1,4.59,3.27,5.33,5.33,0,0,1,.56,2.14,6.45,6.45,0,0,0,3-1.45l-.11,2.86c1.12-2.38,2.58-3.14,4-4.2.32,2-1.88,2.31-2.48,4,2.44-1,4.79-1.48,3.67-4.68-.13-.37.2-1,.44-.88,2.52,1.41,3.41-1.73,5.33-2,.3.7-1,.88-.7,1.75,1-1.1,2.27-.42,3.42-.83.34-.12,1.76.38,1.26,1.22-1.3,2.16-.28,4.53-1.17,6.67.7,2.64-.13,5.27-.48,7.89-1.45,10.74,24.65,37.14,77-31.46C302.75,203.85,341.56,110.58,272.43,174.46Zm-99,96.11a11.12,11.12,0,0,0,2.14,2.08c-1.66,2.21-3.52-.35-5.26.57,0-.92,2.12-1.25.85-2.45-1-.92-1.39.5-2.41.83.8-1.55-.23-4,1.7-4.29C172,267.07,172.65,269.21,173.45,270.57Zm21.23-1.89c-1.14-2.79-1.14-2.79,3.62-7.42C197.3,264.18,194.92,265.46,194.68,268.68Zm2.81-11.36c.12.57-.62,1-1.2.46l-2-2c.92-.71-.78-1.4-.07-2.41,1.26.93,2.52,2.8,4.2-1C198.45,254.9,197.2,255.93,197.48,257.32Zm-16.23-27.75c-1.43,1.52-.91,3.81-2.81,5.27-.7.54-.64,2.73-1.94,3.76a12.4,12.4,0,0,1,.89,1.21c.59,1,1.33,2.28-.13,3-1.69.82-.27-1.41-1.23-1.69-.42-.12-.63-.87-.94-1.33l0,0c-1,.34-1.87-.79-2.92-.16-.54.32-.74.05-.37-.38,1-1.23-.86-2.19.28-3.65-1.52,2-2.24.87-3,.06,2,.43,2.16-1.39,3-2.45.4-.52-1-1.68.62-1.64.91,0,1.12.82,1.21,1.63,0,.2.31.36.66.73.82-2.19.93-4.51,2.6-6.22.91,1.11-.8,2.15.27,3.23a18.67,18.67,0,0,1,1.17-2.69c.43-.69.65-2.19,1.8-1.59C181.32,227.13,182.32,228.44,181.26,229.57Zm55.13-40.11h-.11l12.85,17c-1.43.92-1.59,1.88-.1,2.75-.28.63-.92.39-1.25.68-.79.7-2.48.09-2.59,1.37s1.5.64,2.23,1.11a1.81,1.81,0,0,1,1,1.88c-.91.28-1-1.5-2-.77a1.74,1.74,0,0,0-.77,2c1.13,2.5-.33,5-.8,7.22-1,4.48-3.22,8.88-7.24,11.6a29.13,29.13,0,0,1-8.43,4.43A2.46,2.46,0,0,0,227.7,240c-.45.66-.53,1.55-1.36.25-.43-.66-1,.27-1.16.72-.45.95-.77,1.95-1.16,3-.79-.4-1-.86-.51-1.61.35-.53.42-1.17-.17-1.51s-.71.29-1,.66c-.44.54-.74.54-1.26-.12-2-2.62-3.12-2.78-6.3-.9-1.38.82-1.71-.38-2.19-.94-1.22-1.41-1.84-3.27-4.58-2.59-.86.21-2.82-1.78-3.17-3.12-.95-3.6-4.14-4.34-6.6-6-2.75-1.83-2.9-2.46-.54-5a4,4,0,0,0,.62-.87c-2-1.75-1.17-3.39.33-5.09.28-.32.23-1.21.45-1.26,2.22-.54,3.53-2,5-3.7a15.17,15.17,0,0,1,3.16-2.9c3.29-1.93,4.86-4.87,6.52-8,.6-1.14,1.89-1.85,1.43-3.46-.2-.71.41-1.31,1.1-1.52a1.74,1.74,0,0,0,1.34-2.22c-.43-2.17,2-2.25,2.68-3.71.22-.49,1.32.3,1.51,1.09s.28,1.79.45,2.9a4.31,4.31,0,0,0,1-3.74c-.15-1.67-.84-3.78,1.2-4.6a4.42,4.42,0,0,1,5.39,1.95c1.14,1.75,4.58,1.74,6,1.69-.35-.15-.35-.65-.43-1.05l.78,1C236.49,189.43,236.56,189.42,236.39,189.46Zm-10.14-16.61c-.82-1.7-2.61-1.13-3.42-2.47,2-.53,2.77,1.26,4.08,1.81-.93,1.7-2.54,2.25-4.11,2.89C224,174.34,224.43,172.53,226.25,172.85Zm11.64,7.39c-.11.83-1.17.8-1.89.77a15.75,15.75,0,0,1-2.36-.53l2.21-.66c-1-1.22-2.74,0-3.7-1.44a12.81,12.81,0,0,1,4.14.33C237.28,178.83,238,179.4,237.89,180.24Zm-10.87-19c-1.69-.94-3.79-.61-5.74-1.73C223.78,159.1,225.9,158.69,227,161.26Z"/><path class="cls-4" d="M118.68,85.54c-13,7.5-22.91,18.25-32,30-8,10.37-15.56,21.06-21.22,32.91-4.24,8.89-7,18.09-6.66,27.39-8.42-7.3-22.26-27.15-23.82-28.11-.57-.35-6.37-5.91-6.85-7.42-.84-2.62-2.62-4.22-3.77-6.49-2.72-5.39-2.38-10.9-.6-16.52.6-1.9,8.91-11.48,10.56-12.69,4-2.92,22.81-8.89,22.6-9.32C55.39,92.23,59.82,76.08,60,74.73c.51-4,9-12.58,11.41-15,16.51-16.85,31.53-3,37.23-1.48,9.48,2.57,17.79,7.83,27.36,10.16,3.82.93,7.75,2.8,9.84,6.8.44.84,1.49,1,2.43,1.21,3.82.91-10.19,4.6-10.66,4.67-1.4.23-2.79.54-4.23.84C133.79,80.25,124.2,82.34,118.68,85.54Z"/><path class="cls-4" d="M161.13,179.79l-.09,0a1.68,1.68,0,0,1-.94.09c-4.61-.69-8.52,1.79-11.95,4.33-5.29,3.93-8.69,9.51-10.6,15.93l4.48-4.89c2.33-2.54,5.2-4.38,7.94-6.37.78-.57,1.94-1.08,2.65-.44.94.84-.16,1.74-.67,2.47a75,75,0,0,1-5.48,7.6c-3.23,3.62-4.1,7.86-4.67,12.55,3.14-2.39,4.63-6.12,8-7.91,1.2-.64-.17-2.28,1.36-3.22a38.22,38.22,0,0,0,5.29-4.55,3,3,0,0,0,1.26-3.06c-.43-1.78.53-2,1.91-1.71a3.25,3.25,0,0,0,4-2c.3-.65.65-1.28,1.47-1.1s.79.93,1,1.55-.49,1.51.17,2.15c3.19-3.34,3.91-6.5,2.2-9.77C166,180.85,163.59,180.31,161.13,179.79Z"/><path class="cls-4" d="M277.54,176a1.85,1.85,0,0,1-.25-2c.08-.46.41-1-.15-1.26-.82-.32-.87.42-1,1s-.44.9-1,.69c-.21-.08-.49-.43-.45-.62.89-4.43-.7-9,1.61-13.35,0-.05.18,0,.48-.1.33,2.15-1.35,4.2-.6,6.62.73-.94,2.14-1.19,1.14-2.83a1.33,1.33,0,0,1,1-2c1.32-.22,1,.95,1,1.57a20,20,0,0,0,1.23,6.94C281.56,173.52,278.42,174,277.54,176Z"/><path class="cls-4" d="M46.2,276.42c3.4-6.27-3.22,7.89-4.55,9.59-.42,2.27-4.58-7.07-3.17-13.28C38.74,271.61,42.81,282.69,46.2,276.42Z"/><path class="cls-4" d="M99.58,225.29a6.77,6.77,0,0,1-.8-.76c-.61-.8-2.4-1.05-1.59-2.51s2.33-1,3.61-1.11c.32,0,.64.26,1,.4-1.83,3.13,2,2.83,2.54,4.5.2.59.95,1.06.47,1.77s-1.18.16-1.74,0A10.35,10.35,0,0,1,99.58,225.29Z"/><path class="cls-4" d="M271.63,154.23c-1.83-1.15-3.78-1.39-3.6-3.2.2-2,2.24-3.07,3.55-4.35.9-.88,1.37.48,1.35,1.55C272.89,150.17,271.06,151.63,271.63,154.23Z"/><path class="cls-4" d="M193.89,108.23c-3-2.11-6.05-3.52-6.37-8.17C190.46,102.47,193.62,103.76,193.89,108.23Z"/><path class="cls-4" d="M219.43,107l0,.24c2.87-3.39,4.33-3.4,6.77-.07a1.11,1.11,0,0,1,.21.77.63.63,0,0,1-.9.46C223.6,107.51,221.24,108.27,219.43,107Z"/><path class="cls-4" d="M276.34,153.77c1,1.66-1.2,3.53,0,5.07.61.78,2.11-.09,2.18-.33a8.18,8.18,0,0,0-.52-5A2.69,2.69,0,0,1,276.34,153.77Z"/><path class="cls-4" d="M179.1,210.06c-.58.65-1.14.93-1.42.51-.86-1.33-.53-2.94-.28-4.38.12-.71,1.29-.29,1.66.12C180.23,207.57,178.87,209,179.1,210.06Z"/><path class="cls-4" d="M140.87,244.85l-.62.12c-.66.24-1.46.28-1.8-.24s.46-.92.74-1.38a2.67,2.67,0,0,1,2.63-1.52C141.46,242.85,142.53,244.17,140.87,244.85Z"/><path class="cls-4" d="M157,237.88c.52,1.5.5,2.62-.91,3.31a5.92,5.92,0,0,0-.89.51c.26.65.55,1.25-.54,1.42-.51.08-.64-.24-.72-.64a1.91,1.91,0,0,1,.54-1.86C155.37,239.78,157,239.78,157,237.88Z"/><path class="cls-4" d="M233,113.71c-2.25-.91-3.94-1.31-4.86-3C229.45,111.81,231.7,111.09,233,113.71Z"/><path class="cls-4" d="M119.21,226.8c.43.52.74,1,.15,1.53a1.42,1.42,0,0,1-1.81.27,1,1,0,0,1-.06-1.69A1.25,1.25,0,0,1,119.21,226.8Z"/><path class="cls-4" d="M175.06,239.76c-.32-.89-1.34-1.65.21-2.68.65-.43.73-1.77,1.11-2.83,1.83,1.47-.24,3,0,4.41v-.16c-.48.39-.55,1.21-1.33,1.28Z"/><path class="cls-4" d="M192.36,137.73c-3.72.77-5.44,3.79-7.34,6.61-1.58,2.35-3.1,4.74-4.69,7.08-.36.53-.77,1.37-1.54,1s-.49-1.16-.34-1.82a44.33,44.33,0,0,1,6.48-15.23q.55-1.83,1.05-3.68c-7.27,4.83-10.21,14.66-14.5,22.27a10.57,10.57,0,0,0,.75,6.5,2.8,2.8,0,0,1,.22,1.59c2.29,1.33,4.13,3.67,5.94,6a.52.52,0,0,1,.34-.24,6.08,6.08,0,0,1,1.29-2.69,6.21,6.21,0,0,1,1.33-1.37,5.56,5.56,0,0,1,.74-1.06c1-1.21,1.59-2.31,0-3.33a1.17,1.17,0,0,1-.66-1.41c.27-.83,1-.9,1.65-.86,2.1.15,3.27-1.21,4.5-2.69a6.56,6.56,0,0,0,1.12-6.77c-.43-1.28-.09-2.42,1.33-1.93,2.43.83,3.38-.76,3.66-2.42a6.32,6.32,0,0,1,1.34-2.9,5.41,5.41,0,0,0-2.18-2.91A1.4,1.4,0,0,1,192.36,137.73Z"/><path class="cls-4" d="M272.43,174.46c.94-1.36,1.72-2.76.74-5-1.86,4.61-2,9.5-6.3,12.18.55-1.14-.62-2.44-.18-3.38,1.3-2.79,3.11-5.34,4.54-8.08,1.51-2.89,3-5.83,3.28-9.14-2.85-.9-2.79,1.8-3.83,3.14.88-.55,1.33-1.66,3.45-2.14-5.64,6.15-5.42,14.92-12.86,19.27-.48-2.89,3.17-4.2,3.15-6.89-.68-.34-.8.81-1.44.61-.28-1.66,3.17-2.4,1.13-4.69-.15,2.07-1.39,2.5-3.15,2.73.71-1.22,1.72-1.61,2.31-2.6,2.29-3.82,4.65-7.59,6.15-11.79.31-.86,2-1.65.64-2.65-.92-.67-1.48-2.73-3.41-1.17-.25.2-1.22-.55-1.86-.86,1-.92-.35-2.64,1.67-3.52a5.61,5.61,0,0,0,2.8-3.7c-1.51.18-2,1.71-3.33,2.41.93-2.07,2.86-3,3.65-4.6,1.18-2.4-.12-5,.4-7.59.13-.63-.7-.48-1.07-.6-.66-.22-.8.32-.72.83.21,1.41-.52,2.56-1,3.84-.94,2.56-2.68,4.75-3.52,7.26-1.46,4.38-4.45,6.63-8.71,7.77,1.46-2.63,6-2,6.11-6-1.23,0-1,1.56-2,1.56-.63-2.49,1.44-4,2.23-6,.1-.25.35-.29.7-.26,1.17.12,1.27.08,1.36-.49.14-1,1-2.26-.84-2.45.24-.7,1.53-1.65.2-2-1-.28-1.2,1.28-1.8,2-.33.39,0,1.22-1,1.26,1.23-5.49,5.5-10.87,1.22-16.51-1.23,1.16-2.11,3.32-1.29,4,2.79,2.39-.51,3.3-1,4.9,1.21-4.48-2.27-7.92-1.94-12.18,0-.32-.16-1.22-1.07-.83-1.06.46-1.05.42-1.22-.5-.73-4-2-7.77-5.6-10.6a5.47,5.47,0,0,0,.28,1.13c1.13,1.91,3.31,3.72-.17,5.83-.76.46-.11,1.61.07,2.43.51,2.36.38,3-1.25,5.13,1.79-4.32-.63-6.54-3.81-8.78l1.16,4.69c-1.44-2.28-2-5-4.38-6.51-.05,1.68.59,3.37,0,5.12-1.4-.58.13-3.09-2.12-2.73-2.47.39.27,2.08-.79,2.84-2.36-.93-1.35-3.34-1.9-5.41-1.1,1.6-3.41,2.33-1.62,4.82-1.58-1.2-2.42,0-3.66,1.06.25-2.15-1.39-3.3-1.44-5.37l.84.65c.61.48.23,2.42,1.66,1.5,1.06-.68.13-2-.4-2.47s-1.15-3.16-2.71-.57a.42.42,0,0,1-.79-.25c.19-1.44-.82-1.13-1.6-1.27-2-.35-4-.67-4.87-2.89-.33-.83-1.17-.76-2-.64-.23,0-1.07.06-.57-.35,1.29-1.05-.32-2,.13-3-.31-.13-.65-.35-.85-.25a28.26,28.26,0,0,1-15.43,2.89c-.56-.05-1.12-.2-1.56.38-2.13,2.77-5,2.07-7.63,1.83s-3.36-1.74-3.08-4.36c.09-.89-.56-1.21-1.25-1.18-3.58.16-5.11-2.65-6.94-4.85-1.24-1.5-.83-2.95,1.43-3.6a6.26,6.26,0,0,1,6.66,1.67c1.43,1.41,4.09-3.7,5.85-5.06,2.21-1.71,32.89-56.59,12.57-59.58-3.43-.51-16,13.66-17.62,17.22-1.52,3.28-14.05,21.15-19.72,29.09q-9.29,13-19.11,25.61c-9.11,11.63-18.14,23.29-26.26,35.64-1.5,2.29-3.16,4.47-4.69,6.74s-3.11,4.73-4.68,7.1-3.74,4.4-4.35,6.87c-.71,2.89-3.07,4-4.45,6-6,8.93-12.19,17.7-18.18,26.62C85.76,201.81,82,208,78,214c-5.68,8.78-11.42,17.54-16.1,26.88-1.81,3.6-3.31,7.49-5.12,11-3.31,6.39-5.64,13-8.26,19.64A71.51,71.51,0,0,0,52.11,264c2.38-5.92,6.32-9.84,12.67-11.14,2.6-.53,17.09-16.88,21.59-21.33,3.24-3.2,6.42-4.65,10.72-3.46.79.22,1.61.35,2.41.51a7.07,7.07,0,0,0-2.19-2.42,13.35,13.35,0,0,1-4.15-4.82,4.84,4.84,0,0,1,.74-5.4c1.3-1.51,3-1.49,4.72-.85a25.43,25.43,0,0,0,6.53,1.33,29.28,29.28,0,0,1,10.44,3.08c.81.41,2.1.92.87,2.29-.35.39-1.2.45-.67,1.23a1.62,1.62,0,0,0,1.72.7,14.7,14.7,0,0,1,5.36-.18c3.91.76,6.57,3.61,5.92,6.6s1,5.3.78,8c-3.14,1.33-4.24-.85-5.09-3.41-.55-1.67-2-1.23-2.65-.46-1.27,1.52-2.27.78-3.39.27-1.28-.58-1.27-.61-3.76-.52,3.46.74,4.16,3.25,5.11,5.34.59,1.3,2.18,1.6,2.32,3.28.38,4.38.51,4.07,3.72,4.37,2,.19,4.2-.46,6.25.74,1.42.84,3-.09,3.73-2,.64-1.71,1-3.63,3.17-4.28a2.93,2.93,0,0,0,1.1-.93c.31-.35.7-.81.2-1.21-.35-.28-.9-.49-1.27,0-1.37,1.82-2.82.45-4.32.4,3.43-.44,4.92-2.78,5.87-5.61-.75-.32-.85,1.33-1.61.58a1.55,1.55,0,0,1-.13-2.11,11.6,11.6,0,0,1,1.37-1.06c1.16-1,1.37-5,.37-5-1.57.13-2.18-3.89-4.2-.73-.2-.16-.4-.33-.61-.47a9.59,9.59,0,0,0-4-1.16c-.71-.13-1.74.19-2-.67-.69-2.14-2.61-2.19-4.28-2.62a6.6,6.6,0,0,1-2.49-1.17c-7.69-6-14.16-13.39-22.48-18.61-2.34-1.47-2.41-4-.93-6.54,3.87-6.77,7.91-13.46,11.58-20.34,8.23-15.43,19.08-29,29.63-42.87a23.23,23.23,0,0,1,9.46-7.6c2.05-.85,4.14-1.53,5.68-3.34a93.91,93.91,0,0,1,16-14.48c2.58-1.91,4.56-2,6.88-.29,3.29,2.47,6,5.58,9,8.31,1.11,1,2.12,2.09,3.19,3.15a1.43,1.43,0,0,1-.45.22c5,4.15,6.92,11.08,9,17.14l1.45,1c1.63.95,3.54,1.4,4.64,3.43.53,1,.48,3.48,2.8,3.09,1.15-.19,2.23-.43,2.8,1s-.74,2.09-1.42,3.1l3.9-1.7c-.85,1.4-3.15,3.39.61,4a1.11,1.11,0,0,1,.78.7c.49,3,.89,6.07,0,9-.64,2,.42,3.44,2.49,3.26a9.38,9.38,0,0,1,4.43.75c1.56.61,3.1,2.38,5.32,1.26.36-.18,1.46.38,1.6.82.19.61-.82.17-1.16.68-1.79,2.71-4.69,1.3-7,2.31-.28.81,1.4.56,1.18,1.08-1.47.37-2.94.33-3.79,1a4.6,4.6,0,0,1-4.58,1.06c-.79-.2-1.82.34-2.71.65-.44.15-.84.52-.43,1.11.87,1.25.66,1.76-.86,2-.78.13-1.66-.36-2.45.58l5.35,1.38c-2,0-3.22,1.29-4.9,2.8,3.08-.06,3.41,2.42,4.9,3.94-2.49.3-2.49.3-3.85,1.41,1.19.6,3.65-.72,3.56.48-.12,1.71-2.32.48-3.57.75s-2.57-.65-1.32-2.43c.34-.49,1-.88.16-1.32a1,1,0,0,0-1.61.63c-.39,1.19-.7,2.41-1,3.62-1.08,3.91-.88,4.25,2.79,5.55.58.21,1.81.28,1.37,1.35s-1.32.57-2.09.18c-2.89-1.48-4-1-5.34,2.11-.59,1.43-.83,3.1-2,4.14a3.8,3.8,0,0,0-1.24,4.09c-3.08-.9-8,1.13-9.86,3.92a3.49,3.49,0,0,0,3.75-.36c.82-.5,1.77-.52,2.19.44s-.46,1.58-1.11,1.73c-1.24.3-1.49.83-1.68,2.1-.34,2.22-3.73,4.16-5.66,3.5.1,1,.9,1.86.12,2.92-1.07-1.12-1.82-2.42-3.66-2.86a25,25,0,0,0,.64,3.49c.27.8.41,1.54-.27,2.09-.92.75-1.2,0-1.6-.72s-1.39-.19-2.1-.22c-1.6-.07-3-.22-3.49-2.1-.32-1.2-1.23-1.36-1.6-.07-1.26,4.43-5.06,7.34-6.81,11.53a5.73,5.73,0,0,0,.8,6.5c-.07.25-.24.69-.18.73.49.28.73-.12,1-.43-.37,1.67.36,3,1.26,4.25.42.6.62,1.64-.27,2-1,.41-.71-.73-.92-1.26a5.87,5.87,0,0,0-1.66-2.84c-1.8-1.37-.55-1.91.78-2.43-.91-.2-2.19.59-2.32-1.44-.09-1.34-1.85-2.09-2.53-3.43-.38-.75-1.19,0-1.75.28s-.63.82-.19,1.36a2.16,2.16,0,0,1,.63,1.17c-.06,6.49-2.85,11.52-8.65,15.07l.62-3.88c-1.6-.25-2.12,1.77-3.71,1.67a4.86,4.86,0,0,1,.77-1.5c.68-.6,2.07-1,1.31-2.06s-1.62.34-2.34.74c-2.39,1.32-2.8,5-6.06,5.35-.29,0-.52.14-.72-.25l1.08-1.41-3.79-.15c1.9-1.05,4-1,3.34-3.45l-2.93,1.35-.62.12c-1.73.69-3.56,1.23-4.61,3,.46.87,1.3-.43,1.61.23.11,1.38-1.32,1-1.7,1.76a9.25,9.25,0,0,0,5.59.94c-.61,2-4.08,3.76-7,3.63.57,1.17,1.94,1,2.73,1.76.36.32,1.42.41.83,1.09-2,2.26,1.41,1.78,1.29,3,2.8-.33,3.85,2.7,6.66,2.86-1.49,1.11-2.51.48-3.58.28-.66-.12-2-.43-.83,1,.46.56,0,.64-.28.73-.81.23-1.61.61-1.23,1.55s1.34.84,2.22.8c1.09-.05,2.49-1.23,3.18-.17,1.28,1.95,3,2.7,5.65,2.77l-2.41,1.45c1.29.6,3,0,4.26,1.51-2.17-.68-3.52.84-5.09,1.66a1.83,1.83,0,0,1-.5.47l-.21.12a30.29,30.29,0,0,0,3.43,1.11,7,7,0,0,0,.87.16c3.68-.86,7.51-1.33,10.45-4.39a9.63,9.63,0,0,1,2.81-1.42c-.44,1.2-2.1,1.48-1.33,3-.83.41-1,1.45-1.48,2.17a5.41,5.41,0,0,1,4.59,3.27,5.33,5.33,0,0,1,.56,2.14,6.45,6.45,0,0,0,3-1.45l-.11,2.86c1.12-2.38,2.58-3.14,4-4.2.32,2-1.88,2.31-2.48,4,2.44-1,4.79-1.48,3.67-4.68-.13-.37.2-1,.44-.88,2.52,1.41,3.41-1.73,5.33-2,.3.7-1,.88-.7,1.75,1-1.1,2.27-.42,3.42-.83.34-.12,1.76.38,1.26,1.22-1.3,2.16-.28,4.53-1.17,6.67.7,2.64-.13,5.27-.48,7.89-1.45,10.74,24.65,37.14,77-31.46C302.75,203.85,341.56,110.58,272.43,174.46Zm-99,96.11a11.12,11.12,0,0,0,2.14,2.08c-1.66,2.21-3.52-.35-5.26.57,0-.92,2.12-1.25.85-2.45-1-.92-1.39.5-2.41.83.8-1.55-.23-4,1.7-4.29C172,267.07,172.65,269.21,173.45,270.57Zm21.23-1.89c-1.14-2.79-1.14-2.79,3.62-7.42C197.3,264.18,194.92,265.46,194.68,268.68Zm2.81-11.36c.12.57-.62,1-1.2.46l-2-2c.92-.71-.78-1.4-.07-2.41,1.26.93,2.52,2.8,4.2-1C198.45,254.9,197.2,255.93,197.48,257.32Zm-16.23-27.75c-1.43,1.52-.91,3.81-2.81,5.27-.7.54-.64,2.73-1.94,3.76a12.4,12.4,0,0,1,.89,1.21c.59,1,1.33,2.28-.13,3-1.69.82-.27-1.41-1.23-1.69-.42-.12-.63-.87-.94-1.33l0,0c-1,.34-1.87-.79-2.92-.16-.54.32-.74.05-.37-.38,1-1.23-.86-2.19.28-3.65-1.52,2-2.24.87-3,.06,2,.43,2.16-1.39,3-2.45.4-.52-1-1.68.62-1.64.91,0,1.12.82,1.21,1.63,0,.2.31.36.66.73.82-2.19.93-4.51,2.6-6.22.91,1.11-.8,2.15.27,3.23a18.67,18.67,0,0,1,1.17-2.69c.43-.69.65-2.19,1.8-1.59C181.32,227.13,182.32,228.44,181.26,229.57Zm55.13-40.11h-.11l12.85,17c-1.43.92-1.59,1.88-.1,2.75-.28.63-.92.39-1.25.68-.79.7-2.48.09-2.59,1.37s1.5.64,2.23,1.11a1.81,1.81,0,0,1,1,1.88c-.91.28-1-1.5-2-.77a1.74,1.74,0,0,0-.77,2c1.13,2.5-.33,5-.8,7.22-1,4.48-3.22,8.88-7.24,11.6a29.13,29.13,0,0,1-8.43,4.43A2.46,2.46,0,0,0,227.7,240c-.45.66-.53,1.55-1.36.25-.43-.66-1,.27-1.16.72-.45.95-.77,1.95-1.16,3-.79-.4-1-.86-.51-1.61.35-.53.42-1.17-.17-1.51s-.71.29-1,.66c-.44.54-.74.54-1.26-.12-2-2.62-3.12-2.78-6.3-.9-1.38.82-1.71-.38-2.19-.94-1.22-1.41-1.84-3.27-4.58-2.59-.86.21-2.82-1.78-3.17-3.12-.95-3.6-4.14-4.34-6.6-6-2.75-1.83-2.9-2.46-.54-5a4,4,0,0,0,.62-.87c-2-1.75-1.17-3.39.33-5.09.28-.32.23-1.21.45-1.26,2.22-.54,3.53-2,5-3.7a15.17,15.17,0,0,1,3.16-2.9c3.29-1.93,4.86-4.87,6.52-8,.6-1.14,1.89-1.85,1.43-3.46-.2-.71.41-1.31,1.1-1.52a1.74,1.74,0,0,0,1.34-2.22c-.43-2.17,2-2.25,2.68-3.71.22-.49,1.32.3,1.51,1.09s.28,1.79.45,2.9a4.31,4.31,0,0,0,1-3.74c-.15-1.67-.84-3.78,1.2-4.6a4.42,4.42,0,0,1,5.39,1.95c1.14,1.75,4.58,1.74,6,1.69-.35-.15-.35-.65-.43-1.05l.78,1C236.49,189.43,236.56,189.42,236.39,189.46Zm-10.14-16.61c-.82-1.7-2.61-1.13-3.42-2.47,2-.53,2.77,1.26,4.08,1.81-.93,1.7-2.54,2.25-4.11,2.89C224,174.34,224.43,172.53,226.25,172.85Zm11.64,7.39c-.11.83-1.17.8-1.89.77a15.75,15.75,0,0,1-2.36-.53l2.21-.66c-1-1.22-2.74,0-3.7-1.44a12.81,12.81,0,0,1,4.14.33C237.28,178.83,238,179.4,237.89,180.24Zm-10.87-19c-1.69-.94-3.79-.61-5.74-1.73C223.78,159.1,225.9,158.69,227,161.26Z"/><path class="cls-4" d="M118.68,85.54c-13,7.5-22.91,18.25-32,30-8,10.37-15.56,21.06-21.22,32.91-4.24,8.89-7,18.09-6.66,27.39-8.42-7.3-22.26-27.15-23.82-28.11-.57-.35-6.37-5.91-6.85-7.42-.84-2.62-2.62-4.22-3.77-6.49-2.72-5.39-2.38-10.9-.6-16.52.6-1.9,8.91-11.48,10.56-12.69,4-2.92,22.81-8.89,22.6-9.32C55.39,92.23,59.82,76.08,60,74.73c.51-4,9-12.58,11.41-15,16.51-16.85,31.53-3,37.23-1.48,9.48,2.57,17.79,7.83,27.36,10.16,3.82.93,7.75,2.8,9.84,6.8.44.84,1.49,1,2.43,1.21,3.82.91-10.19,4.6-10.66,4.67-1.4.23-2.79.54-4.23.84C133.79,80.25,124.2,82.34,118.68,85.54Z"/><path class="cls-4" d="M161.13,179.79l-.09,0a1.68,1.68,0,0,1-.94.09c-4.61-.69-8.52,1.79-11.95,4.33-5.29,3.93-8.69,9.51-10.6,15.93l4.48-4.89c2.33-2.54,5.2-4.38,7.94-6.37.78-.57,1.94-1.08,2.65-.44.94.84-.16,1.74-.67,2.47a75,75,0,0,1-5.48,7.6c-3.23,3.62-4.1,7.86-4.67,12.55,3.14-2.39,4.63-6.12,8-7.91,1.2-.64-.17-2.28,1.36-3.22a38.22,38.22,0,0,0,5.29-4.55,3,3,0,0,0,1.26-3.06c-.43-1.78.53-2,1.91-1.71a3.25,3.25,0,0,0,4-2c.3-.65.65-1.28,1.47-1.1s.79.93,1,1.55-.49,1.51.17,2.15c3.19-3.34,3.91-6.5,2.2-9.77C166,180.85,163.59,180.31,161.13,179.79Z"/><path class="cls-4" d="M277.54,176a1.85,1.85,0,0,1-.25-2c.08-.46.41-1-.15-1.26-.82-.32-.87.42-1,1s-.44.9-1,.69c-.21-.08-.49-.43-.45-.62.89-4.43-.7-9,1.61-13.35,0-.05.18,0,.48-.1.33,2.15-1.35,4.2-.6,6.62.73-.94,2.14-1.19,1.14-2.83a1.33,1.33,0,0,1,1-2c1.32-.22,1,.95,1,1.57a20,20,0,0,0,1.23,6.94C281.56,173.52,278.42,174,277.54,176Z"/><path class="cls-4" d="M46.2,276.42c3.4-6.27-3.22,7.89-4.55,9.59-.42,2.27-4.58-7.07-3.17-13.28C38.74,271.61,42.81,282.69,46.2,276.42Z"/><path class="cls-4" d="M99.58,225.29a6.77,6.77,0,0,1-.8-.76c-.61-.8-2.4-1.05-1.59-2.51s2.33-1,3.61-1.11c.32,0,.64.26,1,.4-1.83,3.13,2,2.83,2.54,4.5.2.59.95,1.06.47,1.77s-1.18.16-1.74,0A10.35,10.35,0,0,1,99.58,225.29Z"/><path class="cls-4" d="M271.63,154.23c-1.83-1.15-3.78-1.39-3.6-3.2.2-2,2.24-3.07,3.55-4.35.9-.88,1.37.48,1.35,1.55C272.89,150.17,271.06,151.63,271.63,154.23Z"/><path class="cls-4" d="M193.89,108.23c-3-2.11-6.05-3.52-6.37-8.17C190.46,102.47,193.62,103.76,193.89,108.23Z"/><path class="cls-4" d="M219.43,107l0,.24c2.87-3.39,4.33-3.4,6.77-.07a1.11,1.11,0,0,1,.21.77.63.63,0,0,1-.9.46C223.6,107.51,221.24,108.27,219.43,107Z"/><path class="cls-4" d="M276.34,153.77c1,1.66-1.2,3.53,0,5.07.61.78,2.11-.09,2.18-.33a8.18,8.18,0,0,0-.52-5A2.69,2.69,0,0,1,276.34,153.77Z"/><path class="cls-4" d="M179.1,210.06c-.58.65-1.14.93-1.42.51-.86-1.33-.53-2.94-.28-4.38.12-.71,1.29-.29,1.66.12C180.23,207.57,178.87,209,179.1,210.06Z"/><path class="cls-4" d="M140.87,244.85l-.62.12c-.66.24-1.46.28-1.8-.24s.46-.92.74-1.38a2.67,2.67,0,0,1,2.63-1.52C141.46,242.85,142.53,244.17,140.87,244.85Z"/><path class="cls-4" d="M157,237.88c.52,1.5.5,2.62-.91,3.31a5.92,5.92,0,0,0-.89.51c.26.65.55,1.25-.54,1.42-.51.08-.64-.24-.72-.64a1.91,1.91,0,0,1,.54-1.86C155.37,239.78,157,239.78,157,237.88Z"/><path class="cls-4" d="M233,113.71c-2.25-.91-3.94-1.31-4.86-3C229.45,111.81,231.7,111.09,233,113.71Z"/><path class="cls-4" d="M119.21,226.8c.43.52.74,1,.15,1.53a1.42,1.42,0,0,1-1.81.27,1,1,0,0,1-.06-1.69A1.25,1.25,0,0,1,119.21,226.8Z"/><path class="cls-4" d="M175.06,239.76c-.32-.89-1.34-1.65.21-2.68.65-.43.73-1.77,1.11-2.83,1.83,1.47-.24,3,0,4.41v-.16c-.48.39-.55,1.21-1.33,1.28Z"/></g><path class="cls-4" d="M319,158.5,205.91,306.23l-8,6.56-10.59,3.49s-7.48-17.88-2.17-36.49c1.64-5.74-1.57-8,14.49-25.51,5.61-6.11,34-11.89,40.25-18.45,8.53-8.92,11.87-40.54,20.39-49.16C285.73,161,306.56,149,306.56,149Z"/><path class="cls-2" d="M621.39,82.28H660.6L658.89,91c-6.47.22-9.41,2.75-10.63,9.34L643,129.41a50,50,0,0,0-.86,6.15c0,7.14,5.74,11.76,14.17,11.76,12,0,19.18-5.72,21.26-16.71L683.2,100a23.33,23.33,0,0,0,.37-3.08c0-3.74-2.45-5.6-7.57-5.93l1.59-8.68h28.95l-1.71,8.9c-7.2.33-9.53,2.86-10.75,9.34l-6.11,31c-1.46,7.58-2.68,13.51-9.65,18.9-6.35,4.95-16.49,7.8-29.44,7.8-18.44,0-28.58-6.59-28.58-17.8,0-3.41.74-7.36,1.59-12.31l5.26-27.8a21,21,0,0,0,.24-2.64c0-4.18-2.45-6.26-7.7-6.48Z"/><path class="cls-2" d="M856.71,91.18c-7.21.33-9.53,2.86-10.75,9.34l-10.75,56H820.43l-25-57.69-7.57,40a22.13,22.13,0,0,0-.37,3.08c0,3.63,2.44,5.61,7.45,5.93l-1.71,8.68h-28.7l1.71-8.9c7.21-.33,9.53-2.86,10.75-9.34l7.45-38a10.92,10.92,0,0,0,.24-2.75c0-4.07-2.32-6.15-7.57-6.37l1.71-8.9h33l18.69,43.84L835,100a18.85,18.85,0,0,0,.37-3.19c0-3.63-2.56-5.49-7.7-5.83l1.71-8.68h29.07Z"/><path class="cls-2" d="M1002,137.44c-9.41,14.07-22.72,21-40.31,21-24.19,0-38.24-12.09-38.24-32.31A43.35,43.35,0,0,1,934,97.22c9.28-10.77,21.74-16.48,34.93-16.48,7.7,0,13.93,1.54,19.55,5.6l2.07-4.83,6.47-.33,6.35,30-9.16,1.43c-4.64-14.17-12.34-21.32-23.33-21.32-13.68,0-25.16,14.28-25.16,34.72,0,14.62,6.1,21.65,19.54,21.65,10.51,0,19.79-5.17,28-15.71Z"/><path class="cls-2" d="M1120.8,91c-6.72.22-9.41,2.86-10.63,9.34l-7.57,38.57a20.47,20.47,0,0,0-.37,3.08c0,3.74,2.69,5.83,7.7,5.83,11.48,0,25.65-7.25,35.18-20.77l7.94,4.18-13.44,25.38H1069l1.71-8.9c7.21-.33,9.53-2.86,10.75-9.34l7.45-38a10.92,10.92,0,0,0,.24-2.75c0-4.07-2.32-6.15-7.57-6.37l1.71-8.9h39.21Z"/><path class="cls-2" d="M1219.81,147.66c7.45-.44,9.41-3,10.63-9.34l7.57-38a18.85,18.85,0,0,0,.37-3.19c0-3.63-2.69-5.71-7.7-5.93l1.71-8.9h69.38l6.84,24-8.3,2.53c-5.74-11.65-15.88-17.14-31.4-17.14-7,0-8.3,1.76-9.41,7.25l-2.56,13.08c1.1.11,2.2.11,3.18.11,9.28,0,12.95-3,14.53-11.76h8.68l-6.47,33.08h-8.31a24.57,24.57,0,0,0,.24-2.86c0-6.15-3.18-9.12-9.77-9.12a27.39,27.39,0,0,0-4,.33l-3.55,17.91a16.69,16.69,0,0,0-.37,3.18c0,3.63,2.45,4.73,9,4.73,14.41,0,27.24-6.59,39.09-19.89l7.82,4-13.32,24.94H1218.1Z"/><path class="cls-2" d="M334.2,232.73l-12-53.13L289.5,232.73Zm-135,61.12c18.63,0,26.37-9.8,37-26.31l82-127.14h41.27l33.24,132.3c3.73,15.47,8.89,21.15,23.22,21.15h2.87l-4,20.89H315.86l3.44-20.37h2c17.2,0,24.94-3.09,24.94-12.89a53.55,53.55,0,0,0-1.44-8.77l-4.87-20.12H277.17l-14,23.21c-2.58,4.38-3.73,8.25-3.73,10.31,0,5.93,5.74,8.25,17.48,8.25h3.73l-4,20.37H195.49Z"/><path class="cls-2" d="M463.15,317.32c-26.08,0-41-11.6-41-32.24,0-7.22,2-15.22,4.3-24.24l6.88-29.66a34.84,34.84,0,0,0,.57-5.42c0-9.54-4-12.12-18.06-12.64l4-18.31a330.4,330.4,0,0,0,48.72-7.74h19.78L472,263.16c-1.72,7.74-2.58,12.38-2.58,13.67,0,8.77,4.87,12.38,15.48,12.38,8.32,0,17.48-3.36,27.23-10.06l19.77-92.07h45.29l-18.06,82.78a48.19,48.19,0,0,0-1.44,10.31c0,6.45,2.87,9.8,8.89,9.8,4.58,0,10.31-2.06,16.33-5.67l10.6,16c-16,11.09-31.53,16.5-47.57,16.5-14,0-25.79-4.38-36.11-13.67C494.1,312.68,478.91,317.32,463.15,317.32Z"/><path class="cls-2" d="M642.82,317.06c-31.81,0-53-20.12-53-51.84,0-19.86,8-38.94,22.36-53.9,16-16.76,38.11-25.79,63.05-25.79,13.18,0,23.79,2.58,32.67,8l2.58-6.45H752.3L729.37,295.65c-4.87,22.7-8.31,41.52-29.52,57.51-15.76,11.86-39,18.57-65.92,18.57-37,0-58.46-11.35-58.46-26.82,0-10.83,9.75-19.08,22.93-19.08,8,0,14.9,2.83,18.91,8.25,1.72,2.06,2.58,7.22,7.17,11.86,1.72,1.55,6,3.09,12,3.09,25.79,0,41.56-16.5,49.3-49.51C674.92,311.13,660.59,317.06,642.82,317.06ZM680.08,208c-13.76,0-23.22,6.45-31,19.86s-11.75,28.11-11.75,40.49c0,15.73,6.87,23.73,20.92,23.73,24.64,0,36.11-25.27,44.71-76.33C695.55,210.55,688.1,208,680.08,208Z"/><path class="cls-2" d="M799,317.06c-31.81,0-53-20.12-53-51.84,0-19.86,8-38.94,22.36-53.9,16-16.76,38.12-25.79,63.05-25.79,13.18,0,23.79,2.58,32.67,8l2.58-6.45h41.84L885.55,295.65c-4.87,22.7-8.31,41.52-29.52,57.51-15.76,11.86-39,18.57-65.92,18.57-37,0-58.46-11.35-58.46-26.82,0-10.83,9.75-19.08,22.93-19.08,8,0,14.9,2.83,18.91,8.25,1.72,2.06,2.58,7.22,7.17,11.86,1.72,1.55,6,3.09,12,3.09,25.79,0,41.56-16.5,49.3-49.51C831.09,311.13,816.76,317.06,799,317.06ZM836.25,208c-13.76,0-23.22,6.45-31,19.86s-11.75,28.11-11.75,40.49c0,15.73,6.87,23.73,20.92,23.73,24.64,0,36.11-25.27,44.71-76.33C851.73,210.55,844.27,208,836.25,208Z"/><path class="cls-2" d="M966.63,281.73c0,7,2,9.8,8,9.8,4.87,0,10.32-2.07,16.33-5.93l10.89,16.25c-16,11.35-31.24,16.76-47.57,16.76-21.78,0-35.53-10.83-35.53-26a78.18,78.18,0,0,1,1.72-14.44l9.75-46.42a36.23,36.23,0,0,0,1.14-7.48c0-7.74-5.44-10.06-18.34-10.57l4-18.83a341.62,341.62,0,0,0,48.72-8h20.06l-17.48,84.33A80.11,80.11,0,0,0,966.63,281.73Z"/><path class="cls-2" d="M1138.58,286.89c-23.22,21.15-48.15,31.46-78.53,31.46-37.83,0-63.05-21.92-63.05-53.64,0-20.37,10.32-41.52,27.8-56,19.77-16.25,42.13-24.24,67.92-24.24,33.53,0,53,13.67,53,33,0,25.27-34.68,40.75-101.74,42a32,32,0,0,0-1.15,8.77c0,15.22,11.47,24.24,30.38,24.24,14.62,0,31.24-7.22,50.44-21.15Zm-33.82-71.44c0-7-5.73-11.35-14.61-11.35-16.91,0-33.53,13.15-40.41,36.62C1085.28,240.47,1104.76,229.12,1104.76,215.45Z"/><path class="cls-2" d="M1168.71,187.17c-8.11,0-12.7-3.81-12.7-10.32,0-10,8.64-18.72,19.75-18.72,8.64,0,13.94,5.24,13.94,14.12,0,11.43-9,22.22-26.81,34.28l-6.52-6.19c6.35-4.76,10.76-9,12.87-13.17Z"/><path class="cls-2" d="M1176.24,273.73c5.73,0,11.75,2.06,14.62,4.9,11.18,10.06,17.48,18.05,31.81,18.05,14,0,24.07-7.22,24.07-15.22,0-8.51-8.88-11.6-25.22-16-31.81-8.51-47.29-13.41-47.29-35.85,0-25,26.94-45.13,71.94-45.13,38.11,0,60.47,11.35,60.47,25.79,0,8.25-6.59,13.93-17.2,13.93-10.32,0-15.47-5.67-22.35-10.31-6.88-4.9-12.61-8.51-21.21-8.51-11.18,0-19.21,6.19-19.21,13.15,0,10.31,12.33,11.09,35.54,18.05,26.08,7.74,39.26,15.22,39.26,33.27,0,25-30.38,48.23-80.54,48.22-40.12,0-64.48-12.64-64.48-28.37C1156.47,281,1165.06,273.73,1176.24,273.73Z"/><circle class="cls-2" cx="966.68" cy="119.99" r="9.38"/><path class="cls-4" d="M613.26,83.81h39.21l-1.71,8.68c-6.47.22-9.41,2.75-10.63,9.34L634.89,131a50,50,0,0,0-.86,6.15c0,7.14,5.74,11.76,14.17,11.76,12,0,19.18-5.72,21.26-16.71l5.62-30.66a23.33,23.33,0,0,0,.37-3.08c0-3.74-2.45-5.6-7.57-5.93l1.59-8.68H698.4l-1.71,8.9c-7.2.33-9.53,2.86-10.75,9.34l-6.11,31c-1.46,7.58-2.68,13.51-9.65,18.9-6.35,4.95-16.49,7.8-29.44,7.8-18.44,0-28.58-6.59-28.58-17.8,0-3.41.74-7.36,1.59-12.31l5.26-27.8a21,21,0,0,0,.24-2.64c0-4.18-2.45-6.26-7.7-6.48Z"/><path class="cls-4" d="M848.58,92.72c-7.21.33-9.53,2.86-10.75,9.34l-10.75,56H812.3l-25-57.69-7.57,40a22.13,22.13,0,0,0-.37,3.08c0,3.63,2.44,5.61,7.45,5.93l-1.71,8.68h-28.7l1.71-8.9c7.21-.33,9.53-2.86,10.75-9.34l7.45-38a10.92,10.92,0,0,0,.24-2.75c0-4.07-2.32-6.15-7.57-6.37l1.71-8.9h33l18.69,43.84,4.52-26.15a18.85,18.85,0,0,0,.37-3.19c0-3.63-2.56-5.49-7.7-5.83l1.71-8.68h29.07Z"/><path class="cls-4" d="M993.88,139c-9.41,14.07-22.72,21-40.31,21-24.19,0-38.24-12.09-38.24-32.31a43.35,43.35,0,0,1,10.51-28.9c9.28-10.77,21.74-16.48,34.93-16.48,7.7,0,13.93,1.54,19.55,5.6L982.39,83l6.47-.33,6.35,30-9.16,1.43c-4.64-14.17-12.34-21.32-23.33-21.32-13.68,0-25.16,14.28-25.16,34.72,0,14.62,6.1,21.65,19.54,21.65,10.51,0,19.79-5.17,28-15.71Z"/><path class="cls-4" d="M1112.67,92.49c-6.72.22-9.41,2.86-10.63,9.34l-7.57,38.57a20.47,20.47,0,0,0-.37,3.08c0,3.74,2.69,5.83,7.7,5.83,11.48,0,25.65-7.25,35.18-20.77l7.94,4.18-13.44,25.38h-70.6l1.71-8.9c7.21-.33,9.53-2.86,10.75-9.34l7.45-38a10.92,10.92,0,0,0,.24-2.75c0-4.07-2.32-6.15-7.57-6.37l1.71-8.9h39.21Z"/><path class="cls-4" d="M1211.68,149.2c7.45-.44,9.41-3,10.63-9.34l7.57-38a18.85,18.85,0,0,0,.37-3.19c0-3.63-2.69-5.71-7.7-5.93l1.71-8.9h69.38l6.84,24-8.3,2.53c-5.74-11.65-15.88-17.14-31.4-17.14-7,0-8.3,1.76-9.41,7.25l-2.56,13.08c1.1.11,2.2.11,3.18.11,9.28,0,12.95-3,14.53-11.76h8.68l-6.47,33.08h-8.31a24.57,24.57,0,0,0,.24-2.86c0-6.15-3.18-9.12-9.77-9.12a27.39,27.39,0,0,0-4,.33l-3.55,17.91a16.69,16.69,0,0,0-.37,3.18c0,3.63,2.45,4.73,9,4.73,14.41,0,27.24-6.59,39.09-19.89l7.82,4-13.32,24.94H1210Z"/><path class="cls-4" d="M191.42,293c18.63,0,26-7.42,36.64-23.93l82-127.14H351.3l33.24,132.3c3.73,15.47,8.89,21.15,23.22,21.15h2.87l-4,20.89H307.73l3.44-20.37h2c17.2,0,24.94-3.09,24.94-12.89a53.55,53.55,0,0,0-1.44-8.77l-4.87-20.12H269l-14,23.21c-2.58,4.38-3.73,8.25-3.73,10.31,0,5.93,5.74,8.25,17.48,8.25h3.73l-4,20.37H187.36Zm134.65-58.74-12-53.13-32.67,53.13Z"/><path class="cls-4" d="M455,318.86c-26.08,0-41-11.6-41-32.24,0-7.22,2-15.22,4.3-24.24l6.88-29.66a34.84,34.84,0,0,0,.57-5.42c0-9.54-4-12.12-18.06-12.64l4-18.31a330.4,330.4,0,0,0,48.72-7.74h19.78L463.9,264.7c-1.72,7.74-2.58,12.38-2.58,13.67,0,8.77,4.87,12.38,15.48,12.38,8.32,0,17.48-3.36,27.23-10.06l19.77-92.07h45.29L551,271.4a48.19,48.19,0,0,0-1.44,10.31c0,6.45,2.87,9.8,8.89,9.8,4.58,0,10.31-2.06,16.33-5.67l10.6,16c-16,11.09-31.53,16.5-47.57,16.5-14,0-25.79-4.38-36.11-13.67C486,314.22,470.78,318.86,455,318.86Z"/><path class="cls-4" d="M634.69,318.6c-31.81,0-53-20.12-53-51.84,0-19.86,8-38.94,22.36-53.9,16-16.76,38.11-25.79,63.05-25.79,13.18,0,23.79,2.58,32.67,8l2.58-6.45h41.84L721.24,297.19c-4.87,22.7-8.31,41.52-29.52,57.51-15.76,11.86-39,18.57-65.92,18.57-37,0-58.46-11.35-58.46-26.82,0-10.83,9.75-19.08,22.93-19.08,8,0,14.9,2.83,18.91,8.25,1.72,2.06,2.58,7.22,7.17,11.86,1.72,1.55,6,3.09,12,3.09,25.79,0,41.56-16.5,49.3-49.51C666.79,312.67,652.45,318.6,634.69,318.6Zm37.26-109.09c-13.76,0-23.22,6.45-31,19.86s-11.75,28.11-11.75,40.49c0,15.73,6.87,23.73,20.92,23.73,24.64,0,36.11-25.27,44.71-76.33C687.42,212.09,680,209.51,671.95,209.51Z"/><path class="cls-4" d="M790.86,318.6c-31.81,0-53-20.12-53-51.84,0-19.86,8-38.94,22.36-53.9,16-16.76,38.12-25.79,63.05-25.79,13.18,0,23.79,2.58,32.67,8l2.58-6.45h41.84L877.42,297.19c-4.87,22.7-8.31,41.52-29.52,57.51-15.76,11.86-39,18.57-65.92,18.57-37,0-58.46-11.35-58.46-26.82,0-10.83,9.75-19.08,22.93-19.08,8,0,14.9,2.83,18.91,8.25,1.72,2.06,2.58,7.22,7.17,11.86,1.72,1.55,6,3.09,12,3.09,25.79,0,41.56-16.5,49.3-49.51C823,312.67,808.63,318.6,790.86,318.6Zm37.26-109.09c-13.76,0-23.22,6.45-31,19.86s-11.75,28.11-11.75,40.49c0,15.73,6.87,23.73,20.92,23.73,24.64,0,36.11-25.27,44.71-76.33C843.6,212.09,836.14,209.51,828.12,209.51Z"/><path class="cls-4" d="M958.5,283.27c0,7,2,9.8,8,9.8,4.87,0,10.32-2.07,16.33-5.93l10.89,16.25c-16,11.35-31.24,16.76-47.57,16.76-21.78,0-35.53-10.83-35.53-26a78.18,78.18,0,0,1,1.72-14.44l9.75-46.42a36.23,36.23,0,0,0,1.14-7.48c0-7.74-5.44-10.06-18.34-10.57l4-18.83a341.62,341.62,0,0,0,48.72-8H977.7l-17.48,84.33A80.11,80.11,0,0,0,958.5,283.27Z"/><path class="cls-4" d="M1130.45,288.43c-23.22,21.15-48.15,31.46-78.53,31.46-37.83,0-63.05-21.92-63.05-53.64,0-20.37,10.32-41.52,27.8-56C1036.45,194,1058.81,186,1084.6,186c33.53,0,53,13.67,53,33,0,25.27-34.68,40.75-101.74,42a32,32,0,0,0-1.15,8.77c0,15.22,11.47,24.24,30.38,24.24,14.62,0,31.24-7.22,50.44-21.15ZM1096.63,217c0-7-5.73-11.35-14.61-11.35-16.91,0-33.53,13.15-40.41,36.62C1077.15,242,1096.63,230.66,1096.63,217Z"/><path class="cls-4" d="M1161.94,188.45c-8.11,0-12.7-3.81-12.7-10.32,0-10,8.64-18.72,19.75-18.72,8.64,0,13.94,5.24,13.94,14.12,0,11.43-9,22.22-26.81,34.28l-6.52-6.19c6.35-4.76,10.76-9,12.87-13.17Z"/><path class="cls-4" d="M1168.11,275.27c5.73,0,11.75,2.06,14.62,4.9,11.18,10.06,17.48,18.05,31.81,18.05,14,0,24.07-7.22,24.07-15.22,0-8.51-8.88-11.6-25.22-16-31.81-8.51-47.29-13.41-47.29-35.85,0-25,26.94-45.13,71.94-45.13,38.11,0,60.47,11.35,60.47,25.79,0,8.25-6.59,13.93-17.2,13.93-10.32,0-15.47-5.67-22.35-10.31-6.88-4.9-12.61-8.51-21.21-8.51-11.18,0-19.21,6.19-19.21,13.15,0,10.31,12.33,11.09,35.54,18.05,26.08,7.74,39.26,15.22,39.26,33.27,0,25-30.38,48.23-80.54,48.22-40.12,0-64.48-12.64-64.48-28.37C1148.34,282.5,1156.93,275.27,1168.11,275.27Z"/><circle class="cls-4" cx="960.56" cy="121.15" r="9.38"/></svg>