<!-- Generator: Adobe Illustrator 21.0.2, SVG Export Plug-In  -->
<svg version="1.1"
	 xmlns="http://www.w3.org/2000/svg" xmlns:xlink="http://www.w3.org/1999/xlink" xmlns:a="http://ns.adobe.com/AdobeSVGViewerExtensions/3.0/"
	 x="0px" y="0px" width="13.432px" height="13.432px" viewBox="0 0 13.432 13.432"
	 style="enable-background:new 0 0 13.432 13.432;" xml:space="preserve">
<style type="text/css">
	.st0{fill:#F9E9B2;}
	.st1{fill:#3766B0;}
	.st2{fill:#FEEAA8;}
	.st3{fill:none;stroke:#3766B0;stroke-width:0.0365;stroke-miterlimit:10;}
</style>
<defs>
</defs>
<g>
	<circle class="st0" cx="6.716" cy="6.716" r="6.716"/>
	<g>
		<g id="XMLID_1_">
			<g>
				<path class="st1" d="M11.13,4.373c0,0,0.114,1.7,0.811,2.373c-0.733,0.726-0.815,2.313-0.815,2.313
					c-0.052,0.393-0.346,0.714-0.67,0.714h-1.71c-0.553,0.557-1.26,0.891-2.03,0.891c-0.77,0-1.478-0.334-2.031-0.891H2.976
					c-0.324,0-0.618-0.321-0.67-0.714c0,0-0.082-1.587-0.815-2.313c0.697-0.673,0.811-2.373,0.811-2.373
					c0.048-0.394,0.35-0.713,0.674-0.713h1.709c0.553-0.557,1.26-0.891,2.031-0.891c0.77,0,1.477,0.334,2.03,0.891h1.71
					C10.78,3.659,11.082,3.979,11.13,4.373z M10.909,6.792l0.054-0.053l-0.055-0.053c-0.18-0.174-0.323-0.453-0.432-0.807
					c-0.069-0.226-0.12-0.469-0.156-0.711c-0.012-0.085-0.022-0.164-0.029-0.235c-0.002-0.025-0.004-0.046-0.006-0.065
					c-0.001-0.011-0.002-0.019-0.002-0.022c-0.043-0.351-0.306-0.63-0.592-0.63H8.367c-0.462-0.451-1.04-0.709-1.65-0.709
					c-0.61,0-1.188,0.258-1.651,0.709H3.74c-0.285,0-0.549,0.278-0.591,0.626C3.149,4.85,3.148,4.857,3.147,4.868
					c-0.002,0.019-0.004,0.04-0.006,0.065c-0.007,0.071-0.017,0.15-0.029,0.235C3.076,5.411,3.025,5.653,2.956,5.879
					C2.848,6.234,2.705,6.513,2.524,6.687L2.47,6.739l0.054,0.053c0.179,0.178,0.32,0.435,0.427,0.752
					C3.027,7.772,3.081,8.016,3.117,8.26C3.13,8.346,3.139,8.425,3.146,8.496c0.002,0.025,0.004,0.047,0.005,0.066
					C3.152,8.573,3.152,8.58,3.153,8.584C3.199,8.939,3.457,9.216,3.74,9.216h1.325c0.462,0.451,1.04,0.709,1.651,0.709
					c0.61,0,1.188-0.258,1.65-0.709h1.326c0.283,0,0.542-0.277,0.587-0.626c0.001-0.01,0.001-0.018,0.002-0.029
					c0.001-0.019,0.003-0.041,0.005-0.066c0.006-0.071,0.016-0.151,0.029-0.236c0.035-0.244,0.09-0.489,0.166-0.716
					C10.588,7.227,10.729,6.97,10.909,6.792z"/>
				<path class="st2" d="M10.962,6.739l-0.054,0.053c-0.179,0.178-0.321,0.435-0.427,0.752c-0.076,0.227-0.131,0.472-0.166,0.716
					c-0.013,0.085-0.022,0.165-0.029,0.236c-0.002,0.025-0.004,0.047-0.005,0.066C10.281,8.573,10.28,8.58,10.28,8.591
					c-0.046,0.348-0.304,0.626-0.587,0.626H8.367c-0.462,0.451-1.04,0.709-1.65,0.709c-0.61,0-1.188-0.258-1.651-0.709H3.74
					c-0.283,0-0.542-0.277-0.588-0.632C3.152,8.58,3.152,8.573,3.151,8.562C3.149,8.543,3.148,8.521,3.146,8.496
					C3.139,8.425,3.13,8.346,3.117,8.26c-0.036-0.244-0.09-0.489-0.166-0.716C2.844,7.227,2.703,6.97,2.524,6.792L2.47,6.739
					l0.055-0.053c0.18-0.174,0.323-0.453,0.432-0.807c0.069-0.226,0.12-0.469,0.156-0.711c0.012-0.085,0.022-0.164,0.029-0.235
					c0.002-0.025,0.005-0.046,0.006-0.065C3.148,4.857,3.149,4.85,3.149,4.842C3.192,4.495,3.455,4.216,3.74,4.216h1.325
					c0.462-0.451,1.04-0.709,1.651-0.709c0.61,0,1.188,0.258,1.65,0.709h1.325c0.285,0,0.549,0.278,0.592,0.63
					c0,0.004,0.001,0.011,0.002,0.022c0.002,0.019,0.004,0.04,0.006,0.065c0.007,0.071,0.017,0.15,0.029,0.235
					c0.036,0.242,0.087,0.485,0.156,0.711c0.109,0.355,0.251,0.634,0.432,0.807L10.962,6.739z M10.278,7.471
					c0.11-0.328,0.447-0.718,0.447-0.718c-0.193-0.149-0.342-0.439-0.453-0.805c-0.07-0.228-0.121-0.471-0.157-0.714
					C10.103,5.149,10.093,5.071,10.086,5c-0.002-0.025-0.004-0.047-0.006-0.066c-0.001-0.012-0.002-0.02-0.001-0.02
					C10.045,4.64,9.834,4.417,9.61,4.417H8.268L8.253,4.402C7.823,3.969,7.285,3.728,6.716,3.728S5.61,3.969,5.179,4.402
					L5.145,4.417H3.823c-0.224,0-0.435,0.223-0.468,0.492c0,0.004-0.001,0.013-0.002,0.024C3.351,4.952,3.349,4.975,3.347,5
					C3.34,5.071,3.33,5.149,3.318,5.235C3.281,5.478,3.23,5.721,3.161,5.949c-0.112,0.366-0.2,0.581-0.393,0.791
					c0,0,0.276,0.405,0.386,0.732c0.077,0.23,0.132,0.476,0.168,0.723C3.335,8.28,3.344,8.36,3.351,8.432
					C3.353,8.457,3.355,8.48,3.357,8.499c0.001,0.01,0.001,0.017,0.001,0.018c0.036,0.275,0.243,0.497,0.465,0.497h1.342L5.179,9.03
					C5.61,9.464,6.148,9.704,6.716,9.704S7.823,9.464,8.253,9.03l0.034-0.015H9.61c0.222,0,0.429-0.222,0.464-0.491
					c0.001-0.004,0.001-0.013,0.002-0.025c0.002-0.02,0.003-0.042,0.006-0.067c0.007-0.072,0.016-0.152,0.029-0.238
					C10.146,7.948,10.201,7.701,10.278,7.471z"/>
				<path class="st1" d="M10.725,6.754c0,0-0.337,0.39-0.447,0.718c-0.077,0.23-0.132,0.476-0.168,0.723
					c-0.013,0.086-0.022,0.166-0.029,0.238c-0.002,0.025-0.004,0.048-0.006,0.067c-0.001,0.012-0.001,0.02-0.002,0.025
					C10.039,8.793,9.832,9.015,9.61,9.015H8.287L8.253,9.03C7.823,9.464,7.285,9.704,6.716,9.704S5.61,9.464,5.179,9.03L5.165,9.015
					H3.823c-0.222,0-0.429-0.222-0.465-0.497c0-0.002,0-0.009-0.001-0.018C3.355,8.48,3.353,8.457,3.351,8.432
					C3.344,8.36,3.335,8.28,3.322,8.194C3.286,7.948,3.232,7.701,3.154,7.471c-0.11-0.328-0.386-0.732-0.386-0.732
					C2.961,6.53,3.049,6.315,3.161,5.949c0.07-0.228,0.121-0.471,0.157-0.714C3.33,5.149,3.34,5.071,3.347,5
					c0.002-0.025,0.005-0.047,0.006-0.066c0.001-0.012,0.002-0.02,0.002-0.024C3.388,4.64,3.599,4.417,3.823,4.417h1.323
					l0.034-0.015C5.61,3.969,6.148,3.728,6.716,3.728s1.106,0.241,1.537,0.674l0.015,0.015H9.61c0.224,0,0.435,0.223,0.469,0.496
					c0,0,0.001,0.008,0.001,0.02C10.081,4.952,10.083,4.975,10.086,5c0.007,0.071,0.017,0.15,0.029,0.235
					c0.036,0.243,0.087,0.486,0.157,0.714C10.384,6.315,10.533,6.605,10.725,6.754z"/>
			</g>
			<g>
				<path class="st3" d="M4.686,3.659H2.976c-0.324,0-0.626,0.319-0.674,0.713c0,0-0.114,1.7-0.811,2.373
					c0.733,0.726,0.815,2.313,0.815,2.313c0.052,0.393,0.346,0.714,0.67,0.714h1.709c0.553,0.557,1.26,0.891,2.031,0.891
					c0.77,0,1.477-0.334,2.03-0.891h1.71c0.324,0,0.618-0.321,0.67-0.714c0,0,0.082-1.587,0.815-2.313
					c-0.697-0.673-0.811-2.373-0.811-2.373c-0.048-0.394-0.35-0.713-0.674-0.713h-1.71c-0.553-0.557-1.26-0.891-2.03-0.891
					C5.946,2.768,5.239,3.102,4.686,3.659z"/>
				<path class="st3" d="M3.149,4.842C3.149,4.85,3.148,4.857,3.147,4.868c-0.002,0.019-0.004,0.04-0.006,0.065
					c-0.007,0.071-0.017,0.15-0.029,0.235C3.076,5.411,3.025,5.653,2.956,5.879C2.848,6.234,2.705,6.513,2.524,6.687L2.47,6.739
					l0.054,0.053c0.179,0.178,0.32,0.435,0.427,0.752C3.027,7.772,3.081,8.016,3.117,8.26C3.13,8.346,3.139,8.425,3.146,8.496
					c0.002,0.025,0.004,0.047,0.005,0.066C3.152,8.573,3.152,8.58,3.153,8.584C3.199,8.939,3.457,9.216,3.74,9.216h1.325
					c0.462,0.451,1.04,0.709,1.651,0.709c0.61,0,1.188-0.258,1.65-0.709h1.326c0.283,0,0.542-0.277,0.587-0.626
					c0.001-0.01,0.001-0.018,0.002-0.029c0.001-0.019,0.003-0.041,0.005-0.066c0.006-0.071,0.016-0.151,0.029-0.236
					c0.035-0.244,0.09-0.489,0.166-0.716c0.106-0.317,0.248-0.574,0.427-0.752l0.054-0.053l-0.055-0.053
					c-0.18-0.174-0.323-0.453-0.432-0.807c-0.069-0.226-0.12-0.469-0.156-0.711c-0.012-0.085-0.022-0.164-0.029-0.235
					c-0.002-0.025-0.004-0.046-0.006-0.065c-0.001-0.011-0.002-0.019-0.002-0.022c-0.043-0.351-0.306-0.63-0.592-0.63H8.367
					c-0.462-0.451-1.04-0.709-1.65-0.709c-0.61,0-1.188,0.258-1.651,0.709H3.74C3.455,4.216,3.192,4.495,3.149,4.842z"/>
				<path class="st3" d="M6.716,3.728c0.568,0,1.106,0.241,1.537,0.674l0.015,0.015H9.61c0.224,0,0.435,0.223,0.469,0.496
					c0,0,0.001,0.008,0.001,0.02C10.081,4.952,10.083,4.975,10.086,5c0.007,0.071,0.017,0.15,0.029,0.235
					c0.036,0.243,0.087,0.486,0.157,0.714c0.112,0.366,0.261,0.656,0.453,0.805c0,0-0.337,0.39-0.447,0.718
					c-0.077,0.23-0.132,0.476-0.168,0.723c-0.013,0.086-0.022,0.166-0.029,0.238c-0.002,0.025-0.004,0.048-0.006,0.067
					c-0.001,0.012-0.001,0.02-0.002,0.025C10.039,8.793,9.832,9.015,9.61,9.015H8.287L8.253,9.03
					C7.823,9.464,7.285,9.704,6.716,9.704S5.61,9.464,5.179,9.03L5.165,9.015H3.823c-0.222,0-0.429-0.222-0.465-0.497
					c0-0.002,0-0.009-0.001-0.018C3.355,8.48,3.353,8.457,3.351,8.432C3.344,8.36,3.335,8.28,3.322,8.194
					C3.286,7.948,3.232,7.701,3.154,7.471c-0.11-0.328-0.386-0.732-0.386-0.732C2.961,6.53,3.049,6.315,3.161,5.949
					c0.07-0.228,0.121-0.471,0.157-0.714C3.33,5.149,3.34,5.071,3.347,5c0.002-0.025,0.005-0.047,0.006-0.066
					c0.001-0.012,0.002-0.02,0.002-0.024C3.388,4.64,3.599,4.417,3.823,4.417h1.323l0.034-0.015C5.61,3.969,6.148,3.728,6.716,3.728
					z"/>
			</g>
		</g>
		<path class="st2" d="M9.419,5.763l-2.015,0l-0.64-2.03l-0.64,2.03l-2.015,0l1.718,1.249l-0.781,2.03l1.718-1.249l1.718,1.249
			l-0.781-2.03L9.419,5.763z"/>
	</g>
</g>
</svg>