<svg id="Layer_1" data-name="Layer 1" xmlns="http://www.w3.org/2000/svg" viewBox="0 0 564 484"><defs><style>.cls-1{fill:#f04c23;}.cls-2{fill:#3766b0;}.cls-3{fill:none;}</style></defs><title>Artboard 9</title><path class="cls-1" d="M253.21,421.29,433.14,222.91l-16.68-15.4s-14.23-5.36-38,5.53c-6.36,2.91-19.49,18.09-35.3,38.75-5.27,6.89,27.56,26.7,21.84,34.55-8.26,11.35-53.68,64.74-62.1,76.83-11.53,16.55-24.33-20.53-34.13-5.94-18.77,27.91-32.25,48.66-32.25,48.66Z"/><path class="cls-1" d="M433.85,222,270.12,435.85S237,433,236.62,422.79A80.69,80.69,0,0,1,240,397.62c2.37-8.32-2.28-11.58,21-36.95,8.12-8.85,49.21-17.22,58.29-26.71,12.36-12.92,17.19-58.71,29.54-71.19,36.81-37.21,67-54.59,67-54.59Z"/><path class="cls-2" d="M249.76,415,423.26,223.7l-16.09-14.85s-13.72-5.16-36.64,5.33c-6.13,2.81-18.79,17.44-34,37.36-5.08,6.64,26.57,25.74,21.06,33.32-8,10.94-51.76,62.43-59.88,74.09-11.12,16-23.46-19.79-32.91-5.73-18.1,26.91-31.09,46.92-31.09,46.92Z"/><path class="cls-1" d="M238,200.61c-4.6.95-6.73,4.68-9.07,8.18-2,2.91-3.83,5.86-5.8,8.76-.44.66-1,1.7-1.9,1.27s-.6-1.44-.42-2.25a54.81,54.81,0,0,1,8-18.83q.68-2.27,1.3-4.55c-9,6-12.63,18.12-17.92,27.54a13.07,13.07,0,0,0,.92,8,3.47,3.47,0,0,1,.28,2c2.83,1.65,5.1,4.53,7.34,7.44a.64.64,0,0,1,.42-.3,7.52,7.52,0,0,1,1.6-3.33,7.67,7.67,0,0,1,1.65-1.69,6.87,6.87,0,0,1,.91-1.31c1.18-1.5,2-2.85-.06-4.12a1.44,1.44,0,0,1-.81-1.74c.34-1,1.23-1.12,2-1.06,2.6.19,4-1.5,5.57-3.33a8.12,8.12,0,0,0,1.38-8.37c-.53-1.59-.12-3,1.64-2.39,3,1,4.18-.94,4.52-3a7.81,7.81,0,0,1,1.66-3.58,6.69,6.69,0,0,0-2.69-3.59A1.74,1.74,0,0,1,238,200.61Z"/><path class="cls-1" d="M337,246c1.16-1.68,2.13-3.41.92-6.23-2.3,5.7-2.43,11.75-7.79,15.06.68-1.41-.77-3-.23-4.18,1.61-3.44,3.84-6.61,5.61-10,1.87-3.58,3.73-7.21,4.06-11.31-3.53-1.11-3.45,2.23-4.73,3.88,1.09-.68,1.64-2,4.27-2.65-7,7.61-6.7,18.44-15.9,23.82-.59-3.57,3.92-5.2,3.9-8.52-.84-.43-1,1-1.78.76-.34-2.05,3.92-3,1.39-5.8-.19,2.57-1.72,3.09-3.89,3.38.88-1.51,2.13-2,2.86-3.22,2.83-4.72,5.74-9.39,7.6-14.58.38-1.07,2.49-2,.79-3.27-1.14-.83-1.84-3.37-4.22-1.45-.31.25-1.51-.68-2.3-1.07,1.2-1.14-.44-3.27,2.06-4.35a6.93,6.93,0,0,0,3.46-4.58c-1.87.22-2.46,2.11-4.12,3,1.15-2.57,3.54-3.7,4.52-5.69,1.46-3-.15-6.23.5-9.39.16-.78-.86-.59-1.33-.75-.82-.27-1,.4-.89,1,.26,1.75-.64,3.17-1.22,4.75-1.16,3.16-3.31,5.87-4.36,9-1.81,5.41-5.51,8.2-10.77,9.61,1.8-3.26,7.36-2.45,7.56-7.4-1.52,0-1.18,1.93-2.5,1.93-.78-3.08,1.78-5,2.75-7.4.12-.3.43-.36.87-.32,1.45.15,1.57.1,1.68-.6.17-1.18,1.24-2.8-1-3,.29-.87,1.89-2,.24-2.52-1.2-.35-1.48,1.58-2.22,2.46-.41.48,0,1.51-1.17,1.56,1.52-6.79,6.81-13.43,1.51-20.41-1.53,1.43-2.61,4.1-1.59,5,3.45,3-.62,4.08-1.26,6.06,1.5-5.54-2.8-9.79-2.4-15.06,0-.4-.2-1.51-1.32-1-1.31.56-1.3.52-1.5-.61-.9-5-2.49-9.6-6.92-13.1a6.76,6.76,0,0,0,.34,1.4c1.39,2.37,4.1,4.6-.21,7.21-.94.57-.13,2,.09,3,.63,2.92.47,3.73-1.55,6.34,2.21-5.34-.77-8.09-4.71-10.85l1.44,5.8c-1.78-2.81-2.48-6.19-5.42-8.05-.07,2.08.73,4.17-.06,6.34-1.73-.72.16-3.82-2.62-3.38-3.05.49.34,2.57-1,3.51-2.92-1.14-1.67-4.13-2.34-6.69-1.37,2-4.21,2.88-2,6-1.95-1.48-3,0-4.53,1.31.32-2.66-1.72-4.08-1.78-6.65l1,.8c.75.59.28,3,2.05,1.86,1.31-.84.16-2.43-.49-3.05s-1.42-3.91-3.35-.7a.52.52,0,0,1-1-.3c.24-1.78-1-1.4-2-1.57-2.45-.43-4.91-.83-6-3.57-.41-1-1.45-.95-2.44-.79-.28,0-1.32.07-.7-.43,1.59-1.3-.4-2.49.16-3.65-.38-.16-.8-.43-1.05-.3a34.94,34.94,0,0,1-19.08,3.58c-.7-.06-1.39-.25-1.93.47-2.63,3.43-6.18,2.56-9.43,2.26-3.09-.29-4.16-2.15-3.81-5.4.12-1.1-.69-1.5-1.54-1.46-4.42.2-6.32-3.28-8.58-6-1.54-1.85-1-3.64,1.76-4.45a7.74,7.74,0,0,1,8.23,2.06c1.77,1.74,5.06-4.58,7.23-6.26,2.74-2.11,40.67-70,15.54-73.68-4.25-.63-19.75,16.89-21.78,21.3-1.88,4.06-17.37,26.15-24.39,36q-11.49,16.09-23.63,31.67c-11.26,14.38-22.44,28.8-32.48,44.07-1.86,2.83-3.9,5.53-5.8,8.33s-3.85,5.85-5.78,8.78-4.63,5.44-5.38,8.49c-.88,3.57-3.8,4.92-5.51,7.47-7.39,11-15.07,21.89-22.48,32.92-5,7.42-9.67,15-14.52,22.54-7,10.86-14.12,21.69-19.91,33.24-2.23,4.45-4.09,9.26-6.33,13.58-4.09,7.9-7,16.13-10.21,24.28a88.43,88.43,0,0,0,4.38-9.32c2.95-7.32,7.82-12.17,15.66-13.78,3.21-.66,21.13-20.88,26.69-26.37,4-4,7.94-5.74,13.26-4.28,1,.27,2,.43,3,.64a8.74,8.74,0,0,0-2.71-3c-2-1.68-4-3.42-5.14-6a6,6,0,0,1,.92-6.68c1.6-1.87,3.66-1.85,5.83-1.05a31.44,31.44,0,0,0,8.08,1.65A36.2,36.2,0,0,1,143,301.72c1,.5,2.6,1.14,1.07,2.83-.43.48-1.48.56-.83,1.52a2,2,0,0,0,2.13.87,18.18,18.18,0,0,1,6.63-.22c4.83.93,8.12,4.46,7.33,8.16s1.3,6.55,1,9.92c-3.89,1.65-5.24-1-6.29-4.22-.69-2.06-2.48-1.52-3.28-.57-1.57,1.88-2.81,1-4.2.33-1.58-.72-1.57-.75-4.64-.64,4.28.92,5.14,4,6.32,6.61.73,1.61,2.69,2,2.87,4.05.47,5.41.63,5,4.6,5.4,2.53.23,5.19-.57,7.73.92,1.76,1,3.75-.11,4.62-2.45.79-2.12,1.25-4.49,3.92-5.3a3.62,3.62,0,0,0,1.36-1.15c.38-.43.87-1,.25-1.5-.43-.35-1.11-.6-1.57,0-1.7,2.25-3.49.56-5.34.5,4.25-.54,6.09-3.44,7.26-6.94-.93-.4-1.05,1.65-2,.71a1.92,1.92,0,0,1-.16-2.61,14.34,14.34,0,0,1,1.69-1.31c1.44-1.3,1.7-6.24.46-6.14-1.94.16-2.7-4.8-5.19-.9-.25-.2-.49-.41-.76-.59-1.47-1-3.25-1.13-5-1.43-.88-.16-2.15.23-2.49-.83-.85-2.65-3.23-2.71-5.29-3.25a8.16,8.16,0,0,1-3.08-1.45c-9.51-7.37-17.5-16.56-27.79-23-2.9-1.82-3-4.89-1.14-8.09,4.79-8.37,9.78-16.64,14.32-25.15,10.18-19.08,23.59-35.91,36.63-53a28.72,28.72,0,0,1,11.7-9.4c2.54-1.06,5.12-1.89,7-4.13a116.12,116.12,0,0,1,19.81-17.9c3.19-2.36,5.63-2.51,8.51-.35,4.06,3,7.38,6.9,11.15,10.27,1.37,1.23,2.62,2.58,3.94,3.9a1.77,1.77,0,0,1-.55.27c6.19,5.13,8.56,13.71,11.14,21.19l1.79,1.2c2,1.17,4.38,1.73,5.74,4.24.66,1.23.6,4.3,3.47,3.82,1.43-.24,2.76-.54,3.46,1.23.77,1.93-.91,2.59-1.75,3.84l4.82-2.1c-1,1.73-3.89,4.2.75,4.95a1.37,1.37,0,0,1,1,.87c.6,3.67,1.09,7.5,0,11.1-.79,2.5.52,4.25,3.07,4a11.6,11.6,0,0,1,5.48.93c1.93.75,3.84,2.95,6.57,1.56.44-.22,1.8.47,2,1,.24.76-1,.21-1.43.83-2.21,3.35-5.8,1.61-8.67,2.85-.34,1,1.73.69,1.46,1.34-1.82.46-3.63.41-4.69,1.29a5.69,5.69,0,0,1-5.66,1.31c-1-.25-2.25.42-3.35.81-.55.19-1,.64-.53,1.37,1.08,1.55.82,2.18-1.06,2.5-1,.17-2.05-.44-3,.72l6.61,1.7c-2.52,0-4,1.6-6.05,3.46,3.81-.08,4.22,3,6.06,4.87-3.08.37-3.08.37-4.76,1.75,1.47.74,4.51-.89,4.41.59-.15,2.12-2.86.59-4.41.92s-3.18-.8-1.64-3c.42-.6,1.2-1.09.2-1.64a1.28,1.28,0,0,0-2,.78c-.48,1.48-.87,3-1.28,4.48-1.34,4.83-1.08,5.25,3.45,6.86.72.26,2.23.35,1.7,1.67s-1.64.7-2.59.22c-3.58-1.83-5-1.28-6.6,2.61-.73,1.77-1,3.83-2.52,5.12a4.7,4.7,0,0,0-1.54,5.05c-3.81-1.12-9.89,1.4-12.19,4.84,1.6.88,3.09.49,4.63-.44,1-.62,2.18-.65,2.7.54s-.57,2-1.37,2.14c-1.53.37-1.84,1-2.08,2.6-.42,2.74-4.62,5.14-7,4.33.12,1.18,1.11,2.3.14,3.61-1.32-1.38-2.25-3-4.53-3.53a30.87,30.87,0,0,0,.8,4.31c.34,1,.51,1.9-.34,2.59-1.14.92-1.48,0-2-.9s-1.72-.23-2.59-.27c-2-.08-3.69-.27-4.31-2.6-.39-1.49-1.53-1.69-2-.09-1.56,5.48-6.25,9.08-8.42,14.25-1.39,3.31-.93,5.63,1,8-.08.31-.3.85-.23.9.61.35.9-.15,1.23-.53-.46,2.07.45,3.66,1.56,5.25.52.74.77,2-.33,2.46-1.29.51-.88-.9-1.14-1.55a7.25,7.25,0,0,0-2.06-3.51c-2.22-1.69-.68-2.36,1-3-1.13-.25-2.71.73-2.87-1.79-.11-1.66-2.29-2.58-3.13-4.24-.47-.92-1.47,0-2.17.35-.88.42-.78,1-.24,1.68a2.67,2.67,0,0,1,.78,1.45c-.08,8-3.53,14.25-10.7,18.63l.77-4.8c-2-.3-2.62,2.19-4.59,2.07a6,6,0,0,1,1-1.86c.84-.74,2.56-1.25,1.63-2.55s-2,.42-2.9.92c-3,1.63-3.47,6.18-7.5,6.61-.36,0-.65.17-.89-.31l1.33-1.74-4.68-.19c2.35-1.3,5-1.26,4.14-4.27L174,332.85l-.77.15c-2.14.85-4.4,1.52-5.7,3.71.57,1.07,1.61-.53,2,.28.13,1.71-1.63,1.2-2.1,2.18a11.43,11.43,0,0,0,6.91,1.17c-.76,2.48-5,4.65-8.66,4.49.7,1.45,2.39,1.28,3.38,2.18.44.4,1.75.51,1,1.34-2.44,2.79,1.74,2.2,1.6,3.74,3.46-.4,4.76,3.34,8.23,3.54-1.84,1.37-3.11.6-4.43.35-.82-.15-2.49-.54-1,1.26.57.7,0,.79-.35.9-1,.29-2,.75-1.52,1.91s1.66,1,2.74,1c1.34-.06,3.08-1.52,3.94-.21,1.58,2.41,3.75,3.34,7,3.42l-3,1.8c1.59.74,3.7,0,5.27,1.87-2.68-.83-4.36,1-6.29,2.06a2.27,2.27,0,0,1-.62.58l-.26.15a37.46,37.46,0,0,0,4.24,1.38,8.64,8.64,0,0,0,1.08.2c4.55-1.06,9.29-1.65,12.92-5.43.85-.89,2.3-1.19,3.47-1.76-.55,1.48-2.6,1.83-1.64,3.74-1,.51-1.2,1.8-1.83,2.68a6.69,6.69,0,0,1,5.68,4,6.59,6.59,0,0,1,.7,2.65,8,8,0,0,0,3.69-1.79l-.13,3.53c1.38-2.94,3.19-3.88,4.9-5.2.4,2.53-2.33,2.85-3.06,5,3-1.19,5.92-1.83,4.54-5.78-.16-.46.25-1.26.54-1.09,3.12,1.75,4.22-2.14,6.59-2.48.37.87-1.24,1.09-.87,2.17,1.2-1.36,2.81-.51,4.23-1,.42-.15,2.18.47,1.56,1.51-1.61,2.67-.35,5.6-1.44,8.25.86,3.26-.16,6.52-.59,9.76-1.79,13.29,30.48,45.92,95.27-38.9C374.46,282.37,422.45,167,337,246ZM214.58,364.86a13.75,13.75,0,0,0,2.65,2.57c-2,2.74-4.35-.44-6.51.7.06-1.14,2.62-1.54,1.05-3-1.21-1.14-1.72.61-3,1,1-1.92-.28-5,2.11-5.31C212.81,360.54,213.59,363.19,214.58,364.86Zm26.25-2.34c-1.41-3.44-1.41-3.44,4.47-9.18C244.06,357,241.12,358.54,240.83,362.53Zm3.47-14c.15.7-.77,1.21-1.48.57l-2.53-2.53c1.13-.88-1-1.73-.09-3,1.56,1.15,3.12,3.46,5.2-1.24C245.49,345.5,243.94,346.76,244.29,348.48Zm-20.07-34.31c-1.76,1.88-1.13,4.71-3.48,6.51-.87.67-.79,3.38-2.39,4.65a15.33,15.33,0,0,1,1.1,1.49c.73,1.23,1.65,2.82-.16,3.7-2.09,1-.33-1.75-1.52-2.09-.52-.15-.78-1.07-1.16-1.64l0,0c-1.25.42-2.31-1-3.61-.2-.67.4-.91.06-.45-.47,1.29-1.52-1.06-2.71.34-4.52-1.88,2.52-2.77,1.07-3.72.07,2.43.53,2.68-1.72,3.69-3,.5-.65-1.2-2.07.77-2,1.12,0,1.38,1,1.49,2,0,.25.38.45.81.91,1-2.71,1.15-5.58,3.21-7.69,1.13,1.37-1,2.66.34,4a23.08,23.08,0,0,1,1.44-3.33c.53-.85.8-2.71,2.23-2C224.3,311.15,225.55,312.77,224.23,314.17Zm68.17-49.6h-.13l15.89,21c-1.76,1.14-2,2.32-.12,3.4-.35.78-1.14.48-1.55.84-1,.86-3.06.11-3.21,1.69s1.85.79,2.75,1.38a2.23,2.23,0,0,1,1.25,2.32c-1.12.35-1.22-1.86-2.51-1a2.15,2.15,0,0,0-1,2.52c1.4,3.09-.41,6.19-1,8.93-1.18,5.54-4,11-8.95,14.35-3.23,2.19-6.61,4.44-10.43,5.48a3,3,0,0,0-1.79,1.54c-.56.81-.65,1.92-1.68.31-.53-.82-1.18.34-1.43.88-.55,1.17-1,2.41-1.43,3.66-1-.49-1.24-1.06-.63-2,.43-.66.52-1.44-.21-1.86s-.88.36-1.24.81c-.54.67-.92.67-1.56-.15-2.52-3.24-3.86-3.44-7.78-1.11-1.71,1-2.11-.47-2.71-1.16-1.51-1.74-2.27-4-5.66-3.2-1.06.26-3.49-2.2-3.93-3.85-1.17-4.45-5.12-5.36-8.16-7.39-3.39-2.26-3.58-3-.67-6.13a5,5,0,0,0,.77-1.08c-2.45-2.17-1.44-4.2.41-6.29.35-.39.29-1.5.56-1.56,2.74-.67,4.36-2.42,6.23-4.58a18.76,18.76,0,0,1,3.91-3.58c4.07-2.38,6-6,8.06-9.91.74-1.41,2.34-2.29,1.77-4.28-.25-.88.51-1.62,1.36-1.87a2.15,2.15,0,0,0,1.66-2.74c-.53-2.68,2.51-2.78,3.31-4.59.27-.61,1.63.37,1.87,1.35s.35,2.21.55,3.59a5.33,5.33,0,0,0,1.26-4.63c-.18-2.06-1-4.67,1.48-5.68a5.46,5.46,0,0,1,6.67,2.41c1.41,2.16,5.66,2.15,7.37,2.1-.44-.18-.44-.8-.53-1.3l1,1.28C292.53,264.53,292.61,264.53,292.4,264.58ZM279.86,244c-1-2.11-3.22-1.39-4.23-3.06,2.52-.66,3.43,1.56,5,2.24-1.15,2.1-3.14,2.78-5.08,3.57C277.06,245.87,277.61,243.64,279.86,244Zm14.4,9.14c-.14,1-1.45,1-2.33.95a19.47,19.47,0,0,1-2.92-.66l2.74-.82c-1.24-1.51-3.39,0-4.58-1.78,1.86-.34,3.47.21,5.12.41C293.5,251.43,294.4,252.13,294.26,253.17ZM280.82,229.7c-2.09-1.16-4.68-.76-7.1-2.14C276.81,227,279.43,226.52,280.82,229.7Z"/><path class="cls-1" d="M146.86,136.07c-16,9.27-28.33,22.57-39.6,37.09C97.31,186,88,199.2,81,213.86c-5.25,11-8.71,22.37-8.24,33.87-10.41-9-27.52-33.57-29.46-34.76-.7-.43-7.88-7.31-8.47-9.18-1-3.24-3.24-5.22-4.66-8-3.36-6.67-2.94-13.48-.74-20.42.75-2.35,11-14.2,13.06-15.69,5-3.61,28.21-11,27.95-11.52-1.87-3.78,3.6-23.76,3.82-25.43.63-5,11.15-15.55,14.11-18.57,20.41-20.84,39-3.75,46-1.84,11.72,3.18,22,9.68,33.83,12.56,4.72,1.15,9.58,3.46,12.17,8.41.54,1,1.85,1.21,3,1.49,4.72,1.13-12.6,5.68-13.19,5.78-1.73.28-3.45.67-5.24,1C165.54,129.53,153.68,132.12,146.86,136.07Z"/><path class="cls-1" d="M199.34,252.62l-.11,0a2.08,2.08,0,0,1-1.16.11c-5.7-.85-10.54,2.21-14.77,5.36-6.54,4.86-10.75,11.76-13.11,19.7l5.55-6c2.88-3.14,6.43-5.41,9.82-7.88,1-.7,2.4-1.34,3.28-.54,1.16,1-.2,2.15-.82,3.06a92.76,92.76,0,0,1-6.78,9.4c-4,4.48-5.07,9.72-5.77,15.51,3.88-3,5.72-7.56,9.89-9.78,1.48-.79-.21-2.82,1.68-4,2.41-1.47,4.4-3.69,6.54-5.62,1.11-1,1.94-2.16,1.55-3.78-.53-2.21.66-2.44,2.36-2.11a4,4,0,0,0,4.93-2.42c.37-.8.8-1.58,1.82-1.37s1,1.15,1.21,1.92-.61,1.87.21,2.66c3.95-4.13,4.84-8,2.72-12.08C205.4,253.92,202.38,253.26,199.34,252.62Z"/><path class="cls-1" d="M343.29,248c-.93-1.16-.43-1.84-.31-2.51s.51-1.29-.18-1.56c-1-.4-1.07.52-1.25,1.21s-.54,1.12-1.24.85c-.26-.1-.6-.54-.56-.77,1.11-5.47-.87-11.18,2-16.51,0-.06.22-.05.59-.12.41,2.66-1.67,5.19-.74,8.18.9-1.16,2.65-1.47,1.4-3.5a1.65,1.65,0,0,1,1.3-2.45c1.63-.27,1.18,1.17,1.18,1.94a24.7,24.7,0,0,0,1.52,8.59C348.26,244.86,344.38,245.49,343.29,248Z"/><path class="cls-1" d="M57.23,372.1c4.2-7.76-4,9.75-5.62,11.86-.52,2.8-5.66-8.74-3.92-16.42C48,366.15,53,379.86,57.23,372.1Z"/><path class="cls-1" d="M123.24,308.88a8.37,8.37,0,0,1-1-.95c-.76-1-3-1.3-2-3.11.91-1.65,2.88-1.29,4.47-1.37.4,0,.79.32,1.18.5-2.26,3.87,2.43,3.5,3.15,5.57.25.72,1.17,1.31.58,2.18s-1.46.2-2.15,0A12.8,12.8,0,0,1,123.24,308.88Z"/><path class="cls-1" d="M336,221c-2.26-1.42-4.68-1.71-4.45-4,.25-2.44,2.77-3.79,4.39-5.38,1.11-1.09,1.69.59,1.66,1.91C337.53,216,335.27,217.79,336,221Z"/><path class="cls-1" d="M239.84,164.13c-3.66-2.61-7.49-4.36-7.87-10.1C235.61,157,239.52,158.6,239.84,164.13Z"/><path class="cls-1" d="M271.43,162.58l0,.3c3.55-4.19,5.35-4.21,8.37-.09a1.37,1.37,0,0,1,.26,1,.78.78,0,0,1-1.11.57C276.59,163.24,273.67,164.18,271.43,162.58Z"/><path class="cls-1" d="M341.8,220.44c1.27,2-1.49,4.36,0,6.27.76,1,2.61-.11,2.69-.41a10.11,10.11,0,0,0-.65-6.13A3.32,3.32,0,0,1,341.8,220.44Z"/><path class="cls-1" d="M221.56,290c-.72.81-1.42,1.16-1.76.63-1.06-1.64-.65-3.64-.35-5.42.15-.88,1.59-.35,2.05.14C223,287,221.28,288.69,221.56,290Z"/><path class="cls-1" d="M174.28,333.06l-.77.15c-.82.3-1.8.35-2.23-.3s.57-1.13.91-1.71a3.3,3.3,0,0,1,3.26-1.88C175,330.59,176.35,332.22,174.28,333.06Z"/><path class="cls-1" d="M194.25,324.45c.64,1.86.62,3.24-1.12,4.09a7.32,7.32,0,0,0-1.11.63c.32.8.68,1.54-.67,1.76-.64.1-.79-.29-.88-.79a2.37,2.37,0,0,1,.67-2.3C192.22,326.8,194.23,326.79,194.25,324.45Z"/><path class="cls-1" d="M288.25,170.91c-2.78-1.13-4.87-1.62-6-3.7C283.82,168.56,286.6,167.66,288.25,170.91Z"/><path class="cls-1" d="M147.51,310.75c.53.64.92,1.27.19,1.89a1.75,1.75,0,0,1-2.24.33,1.26,1.26,0,0,1-.07-2.1A1.54,1.54,0,0,1,147.51,310.75Z"/><path class="cls-1" d="M216.57,326.77c-.4-1.1-1.65-2,.26-3.32.8-.53.9-2.19,1.38-3.49,2.26,1.82-.29,3.72.05,5.46v-.2c-.6.48-.69,1.49-1.64,1.58Z"/><path class="cls-1" d="M238,200.61c-4.6.95-6.73,4.68-9.07,8.18-2,2.91-3.83,5.86-5.8,8.76-.44.66-1,1.7-1.9,1.27s-.6-1.44-.42-2.25a54.81,54.81,0,0,1,8-18.83q.68-2.27,1.3-4.55c-9,6-12.63,18.12-17.92,27.54a13.07,13.07,0,0,0,.92,8,3.47,3.47,0,0,1,.28,2c2.83,1.65,5.1,4.53,7.34,7.44a.64.64,0,0,1,.42-.3,7.52,7.52,0,0,1,1.6-3.33,7.67,7.67,0,0,1,1.65-1.69,6.87,6.87,0,0,1,.91-1.31c1.18-1.5,2-2.85-.06-4.12a1.44,1.44,0,0,1-.81-1.74c.34-1,1.23-1.12,2-1.06,2.6.19,4-1.5,5.57-3.33a8.12,8.12,0,0,0,1.38-8.37c-.53-1.59-.12-3,1.64-2.39,3,1,4.18-.94,4.52-3a7.81,7.81,0,0,1,1.66-3.58,6.69,6.69,0,0,0-2.69-3.59A1.74,1.74,0,0,1,238,200.61Z"/><path class="cls-1" d="M337,246c1.16-1.68,2.13-3.41.92-6.23-2.3,5.7-2.43,11.75-7.79,15.06.68-1.41-.77-3-.23-4.18,1.61-3.44,3.84-6.61,5.61-10,1.87-3.58,3.73-7.21,4.06-11.31-3.53-1.11-3.45,2.23-4.73,3.88,1.09-.68,1.64-2,4.27-2.65-7,7.61-6.7,18.44-15.9,23.82-.59-3.57,3.92-5.2,3.9-8.52-.84-.43-1,1-1.78.76-.34-2.05,3.92-3,1.39-5.8-.19,2.57-1.72,3.09-3.89,3.38.88-1.51,2.13-2,2.86-3.22,2.83-4.72,5.74-9.39,7.6-14.58.38-1.07,2.49-2,.79-3.27-1.14-.83-1.84-3.37-4.22-1.45-.31.25-1.51-.68-2.3-1.07,1.2-1.14-.44-3.27,2.06-4.35a6.93,6.93,0,0,0,3.46-4.58c-1.87.22-2.46,2.11-4.12,3,1.15-2.57,3.54-3.7,4.52-5.69,1.46-3-.15-6.23.5-9.39.16-.78-.86-.59-1.33-.75-.82-.27-1,.4-.89,1,.26,1.75-.64,3.17-1.22,4.75-1.16,3.16-3.31,5.87-4.36,9-1.81,5.41-5.51,8.2-10.77,9.61,1.8-3.26,7.36-2.45,7.56-7.4-1.52,0-1.18,1.93-2.5,1.93-.78-3.08,1.78-5,2.75-7.4.12-.3.43-.36.87-.32,1.45.15,1.57.1,1.68-.6.17-1.18,1.24-2.8-1-3,.29-.87,1.89-2,.24-2.52-1.2-.35-1.48,1.58-2.22,2.46-.41.48,0,1.51-1.17,1.56,1.52-6.79,6.81-13.43,1.51-20.41-1.53,1.43-2.61,4.1-1.59,5,3.45,3-.62,4.08-1.26,6.06,1.5-5.54-2.8-9.79-2.4-15.06,0-.4-.2-1.51-1.32-1-1.31.56-1.3.52-1.5-.61-.9-5-2.49-9.6-6.92-13.1a6.76,6.76,0,0,0,.34,1.4c1.39,2.37,4.1,4.6-.21,7.21-.94.57-.13,2,.09,3,.63,2.92.47,3.73-1.55,6.34,2.21-5.34-.77-8.09-4.71-10.85l1.44,5.8c-1.78-2.81-2.48-6.19-5.42-8.05-.07,2.08.73,4.17-.06,6.34-1.73-.72.16-3.82-2.62-3.38-3.05.49.34,2.57-1,3.51-2.92-1.14-1.67-4.13-2.34-6.69-1.37,2-4.21,2.88-2,6-1.95-1.48-3,0-4.53,1.31.32-2.66-1.72-4.08-1.78-6.65l1,.8c.75.59.28,3,2.05,1.86,1.31-.84.16-2.43-.49-3.05s-1.42-3.91-3.35-.7a.52.52,0,0,1-1-.3c.24-1.78-1-1.4-2-1.57-2.45-.43-4.91-.83-6-3.57-.41-1-1.45-.95-2.44-.79-.28,0-1.32.07-.7-.43,1.59-1.3-.4-2.49.16-3.65-.38-.16-.8-.43-1.05-.3a34.94,34.94,0,0,1-19.08,3.58c-.7-.06-1.39-.25-1.93.47-2.63,3.43-6.18,2.56-9.43,2.26-3.09-.29-4.16-2.15-3.81-5.4.12-1.1-.69-1.5-1.54-1.46-4.42.2-6.32-3.28-8.58-6-1.54-1.85-1-3.64,1.76-4.45a7.74,7.74,0,0,1,8.23,2.06c1.77,1.74,5.06-4.58,7.23-6.26,2.74-2.11,40.67-70,15.54-73.68-4.25-.63-19.75,16.89-21.78,21.3-1.88,4.06-17.37,26.15-24.39,36q-11.49,16.09-23.63,31.67c-11.26,14.38-22.44,28.8-32.48,44.07-1.86,2.83-3.9,5.53-5.8,8.33s-3.85,5.85-5.78,8.78-4.63,5.44-5.38,8.49c-.88,3.57-3.8,4.92-5.51,7.47-7.39,11-15.07,21.89-22.48,32.92-5,7.42-9.67,15-14.52,22.54-7,10.86-14.12,21.69-19.91,33.24-2.23,4.45-4.09,9.26-6.33,13.58-4.09,7.9-7,16.13-10.21,24.28a88.43,88.43,0,0,0,4.38-9.32c2.95-7.32,7.82-12.17,15.66-13.78,3.21-.66,21.13-20.88,26.69-26.37,4-4,7.94-5.74,13.26-4.28,1,.27,2,.43,3,.64a8.74,8.74,0,0,0-2.71-3c-2-1.68-4-3.42-5.14-6a6,6,0,0,1,.92-6.68c1.6-1.87,3.66-1.85,5.83-1.05a31.44,31.44,0,0,0,8.08,1.65A36.2,36.2,0,0,1,143,301.72c1,.5,2.6,1.14,1.07,2.83-.43.48-1.48.56-.83,1.52a2,2,0,0,0,2.13.87,18.18,18.18,0,0,1,6.63-.22c4.83.93,8.12,4.46,7.33,8.16s1.3,6.55,1,9.92c-3.89,1.65-5.24-1-6.29-4.22-.69-2.06-2.48-1.52-3.28-.57-1.57,1.88-2.81,1-4.2.33-1.58-.72-1.57-.75-4.64-.64,4.28.92,5.14,4,6.32,6.61.73,1.61,2.69,2,2.87,4.05.47,5.41.63,5,4.6,5.4,2.53.23,5.19-.57,7.73.92,1.76,1,3.75-.11,4.62-2.45.79-2.12,1.25-4.49,3.92-5.3a3.62,3.62,0,0,0,1.36-1.15c.38-.43.87-1,.25-1.5-.43-.35-1.11-.6-1.57,0-1.7,2.25-3.49.56-5.34.5,4.25-.54,6.09-3.44,7.26-6.94-.93-.4-1.05,1.65-2,.71a1.92,1.92,0,0,1-.16-2.61,14.34,14.34,0,0,1,1.69-1.31c1.44-1.3,1.7-6.24.46-6.14-1.94.16-2.7-4.8-5.19-.9-.25-.2-.49-.41-.76-.59-1.47-1-3.25-1.13-5-1.43-.88-.16-2.15.23-2.49-.83-.85-2.65-3.23-2.71-5.29-3.25a8.16,8.16,0,0,1-3.08-1.45c-9.51-7.37-17.5-16.56-27.79-23-2.9-1.82-3-4.89-1.14-8.09,4.79-8.37,9.78-16.64,14.32-25.15,10.18-19.08,23.59-35.91,36.63-53a28.72,28.72,0,0,1,11.7-9.4c2.54-1.06,5.12-1.89,7-4.13a116.12,116.12,0,0,1,19.81-17.9c3.19-2.36,5.63-2.51,8.51-.35,4.06,3,7.38,6.9,11.15,10.27,1.37,1.23,2.62,2.58,3.94,3.9a1.77,1.77,0,0,1-.55.27c6.19,5.13,8.56,13.71,11.14,21.19l1.79,1.2c2,1.17,4.38,1.73,5.74,4.24.66,1.23.6,4.3,3.47,3.82,1.43-.24,2.76-.54,3.46,1.23.77,1.93-.91,2.59-1.75,3.84l4.82-2.1c-1,1.73-3.89,4.2.75,4.95a1.37,1.37,0,0,1,1,.87c.6,3.67,1.09,7.5,0,11.1-.79,2.5.52,4.25,3.07,4a11.6,11.6,0,0,1,5.48.93c1.93.75,3.84,2.95,6.57,1.56.44-.22,1.8.47,2,1,.24.76-1,.21-1.43.83-2.21,3.35-5.8,1.61-8.67,2.85-.34,1,1.73.69,1.46,1.34-1.82.46-3.63.41-4.69,1.29a5.69,5.69,0,0,1-5.66,1.31c-1-.25-2.25.42-3.35.81-.55.19-1,.64-.53,1.37,1.08,1.55.82,2.18-1.06,2.5-1,.17-2.05-.44-3,.72l6.61,1.7c-2.52,0-4,1.6-6.05,3.46,3.81-.08,4.22,3,6.06,4.87-3.08.37-3.08.37-4.76,1.75,1.47.74,4.51-.89,4.41.59-.15,2.12-2.86.59-4.41.92s-3.18-.8-1.64-3c.42-.6,1.2-1.09.2-1.64a1.28,1.28,0,0,0-2,.78c-.48,1.48-.87,3-1.28,4.48-1.34,4.83-1.08,5.25,3.45,6.86.72.26,2.23.35,1.7,1.67s-1.64.7-2.59.22c-3.58-1.83-5-1.28-6.6,2.61-.73,1.77-1,3.83-2.52,5.12a4.7,4.7,0,0,0-1.54,5.05c-3.81-1.12-9.89,1.4-12.19,4.84,1.6.88,3.09.49,4.63-.44,1-.62,2.18-.65,2.7.54s-.57,2-1.37,2.14c-1.53.37-1.84,1-2.08,2.6-.42,2.74-4.62,5.14-7,4.33.12,1.18,1.11,2.3.14,3.61-1.32-1.38-2.25-3-4.53-3.53a30.87,30.87,0,0,0,.8,4.31c.34,1,.51,1.9-.34,2.59-1.14.92-1.48,0-2-.9s-1.72-.23-2.59-.27c-2-.08-3.69-.27-4.31-2.6-.39-1.49-1.53-1.69-2-.09-1.56,5.48-6.25,9.08-8.42,14.25-1.39,3.31-.93,5.63,1,8-.08.31-.3.85-.23.9.61.35.9-.15,1.23-.53-.46,2.07.45,3.66,1.56,5.25.52.74.77,2-.33,2.46-1.29.51-.88-.9-1.14-1.55a7.25,7.25,0,0,0-2.06-3.51c-2.22-1.69-.68-2.36,1-3-1.13-.25-2.71.73-2.87-1.79-.11-1.66-2.29-2.58-3.13-4.24-.47-.92-1.47,0-2.17.35-.88.42-.78,1-.24,1.68a2.67,2.67,0,0,1,.78,1.45c-.08,8-3.53,14.25-10.7,18.63l.77-4.8c-2-.3-2.62,2.19-4.59,2.07a6,6,0,0,1,1-1.86c.84-.74,2.56-1.25,1.63-2.55s-2,.42-2.9.92c-3,1.63-3.47,6.18-7.5,6.61-.36,0-.65.17-.89-.31l1.33-1.74-4.68-.19c2.35-1.3,5-1.26,4.14-4.27L174,332.85l-.77.15c-2.14.85-4.4,1.52-5.7,3.71.57,1.07,1.61-.53,2,.28.13,1.71-1.63,1.2-2.1,2.18a11.43,11.43,0,0,0,6.91,1.17c-.76,2.48-5,4.65-8.66,4.49.7,1.45,2.39,1.28,3.38,2.18.44.4,1.75.51,1,1.34-2.44,2.79,1.74,2.2,1.6,3.74,3.46-.4,4.76,3.34,8.23,3.54-1.84,1.37-3.11.6-4.43.35-.82-.15-2.49-.54-1,1.26.57.7,0,.79-.35.9-1,.29-2,.75-1.52,1.91s1.66,1,2.74,1c1.34-.06,3.08-1.52,3.94-.21,1.58,2.41,3.75,3.34,7,3.42l-3,1.8c1.59.74,3.7,0,5.27,1.87-2.68-.83-4.36,1-6.29,2.06a2.27,2.27,0,0,1-.62.58l-.26.15a37.46,37.46,0,0,0,4.24,1.38,8.64,8.64,0,0,0,1.08.2c4.55-1.06,9.29-1.65,12.92-5.43.85-.89,2.3-1.19,3.47-1.76-.55,1.48-2.6,1.83-1.64,3.74-1,.51-1.2,1.8-1.83,2.68a6.69,6.69,0,0,1,5.68,4,6.59,6.59,0,0,1,.7,2.65,8,8,0,0,0,3.69-1.79l-.13,3.53c1.38-2.94,3.19-3.88,4.9-5.2.4,2.53-2.33,2.85-3.06,5,3-1.19,5.92-1.83,4.54-5.78-.16-.46.25-1.26.54-1.09,3.12,1.75,4.22-2.14,6.59-2.48.37.87-1.24,1.09-.87,2.17,1.2-1.36,2.81-.51,4.23-1,.42-.15,2.18.47,1.56,1.51-1.61,2.67-.35,5.6-1.44,8.25.86,3.26-.16,6.52-.59,9.76-1.79,13.29,30.48,45.92,95.27-38.9C374.46,282.37,422.45,167,337,246ZM214.58,364.86a13.75,13.75,0,0,0,2.65,2.57c-2,2.74-4.35-.44-6.51.7.06-1.14,2.62-1.54,1.05-3-1.21-1.14-1.72.61-3,1,1-1.92-.28-5,2.11-5.31C212.81,360.54,213.59,363.19,214.58,364.86Zm26.25-2.34c-1.41-3.44-1.41-3.44,4.47-9.18C244.06,357,241.12,358.54,240.83,362.53Zm3.47-14c.15.7-.77,1.21-1.48.57l-2.53-2.53c1.13-.88-1-1.73-.09-3,1.56,1.15,3.12,3.46,5.2-1.24C245.49,345.5,243.94,346.76,244.29,348.48Zm-20.07-34.31c-1.76,1.88-1.13,4.71-3.48,6.51-.87.67-.79,3.38-2.39,4.65a15.33,15.33,0,0,1,1.1,1.49c.73,1.23,1.65,2.82-.16,3.7-2.09,1-.33-1.75-1.52-2.09-.52-.15-.78-1.07-1.16-1.64l0,0c-1.25.42-2.31-1-3.61-.2-.67.4-.91.06-.45-.47,1.29-1.52-1.06-2.71.34-4.52-1.88,2.52-2.77,1.07-3.72.07,2.43.53,2.68-1.72,3.69-3,.5-.65-1.2-2.07.77-2,1.12,0,1.38,1,1.49,2,0,.25.38.45.81.91,1-2.71,1.15-5.58,3.21-7.69,1.13,1.37-1,2.66.34,4a23.08,23.08,0,0,1,1.44-3.33c.53-.85.8-2.71,2.23-2C224.3,311.15,225.55,312.77,224.23,314.17Zm68.17-49.6h-.13l15.89,21c-1.76,1.14-2,2.32-.12,3.4-.35.78-1.14.48-1.55.84-1,.86-3.06.11-3.21,1.69s1.85.79,2.75,1.38a2.23,2.23,0,0,1,1.25,2.32c-1.12.35-1.22-1.86-2.51-1a2.15,2.15,0,0,0-1,2.52c1.4,3.09-.41,6.19-1,8.93-1.18,5.54-4,11-8.95,14.35-3.23,2.19-6.61,4.44-10.43,5.48a3,3,0,0,0-1.79,1.54c-.56.81-.65,1.92-1.68.31-.53-.82-1.18.34-1.43.88-.55,1.17-1,2.41-1.43,3.66-1-.49-1.24-1.06-.63-2,.43-.66.52-1.44-.21-1.86s-.88.36-1.24.81c-.54.67-.92.67-1.56-.15-2.52-3.24-3.86-3.44-7.78-1.11-1.71,1-2.11-.47-2.71-1.16-1.51-1.74-2.27-4-5.66-3.2-1.06.26-3.49-2.2-3.93-3.85-1.17-4.45-5.12-5.36-8.16-7.39-3.39-2.26-3.58-3-.67-6.13a5,5,0,0,0,.77-1.08c-2.45-2.17-1.44-4.2.41-6.29.35-.39.29-1.5.56-1.56,2.74-.67,4.36-2.42,6.23-4.58a18.76,18.76,0,0,1,3.91-3.58c4.07-2.38,6-6,8.06-9.91.74-1.41,2.34-2.29,1.77-4.28-.25-.88.51-1.62,1.36-1.87a2.15,2.15,0,0,0,1.66-2.74c-.53-2.68,2.51-2.78,3.31-4.59.27-.61,1.63.37,1.87,1.35s.35,2.21.55,3.59a5.33,5.33,0,0,0,1.26-4.63c-.18-2.06-1-4.67,1.48-5.68a5.46,5.46,0,0,1,6.67,2.41c1.41,2.16,5.66,2.15,7.37,2.1-.44-.18-.44-.8-.53-1.3l1,1.28C292.53,264.53,292.61,264.53,292.4,264.58ZM279.86,244c-1-2.11-3.22-1.39-4.23-3.06,2.52-.66,3.43,1.56,5,2.24-1.15,2.1-3.14,2.78-5.08,3.57C277.06,245.87,277.61,243.64,279.86,244Zm14.4,9.14c-.14,1-1.45,1-2.33.95a19.47,19.47,0,0,1-2.92-.66l2.74-.82c-1.24-1.51-3.39,0-4.58-1.78,1.86-.34,3.47.21,5.12.41C293.5,251.43,294.4,252.13,294.26,253.17ZM280.82,229.7c-2.09-1.16-4.68-.76-7.1-2.14C276.81,227,279.43,226.52,280.82,229.7Z"/><path class="cls-1" d="M146.86,136.07c-16,9.27-28.33,22.57-39.6,37.09C97.31,186,88,199.2,81,213.86c-5.25,11-8.71,22.37-8.24,33.87-10.41-9-27.52-33.57-29.46-34.76-.7-.43-7.88-7.31-8.47-9.18-1-3.24-3.24-5.22-4.66-8-3.36-6.67-2.94-13.48-.74-20.42.75-2.35,11-14.2,13.06-15.69,5-3.61,28.21-11,27.95-11.52-1.87-3.78,3.6-23.76,3.82-25.43.63-5,11.15-15.55,14.11-18.57,20.41-20.84,39-3.75,46-1.84,11.72,3.18,22,9.68,33.83,12.56,4.72,1.15,9.58,3.46,12.17,8.41.54,1,1.85,1.21,3,1.49,4.72,1.13-12.6,5.68-13.19,5.78-1.73.28-3.45.67-5.24,1C165.54,129.53,153.68,132.12,146.86,136.07Z"/><path class="cls-1" d="M199.34,252.62l-.11,0a2.08,2.08,0,0,1-1.16.11c-5.7-.85-10.54,2.21-14.77,5.36-6.54,4.86-10.75,11.76-13.11,19.7l5.55-6c2.88-3.14,6.43-5.41,9.82-7.88,1-.7,2.4-1.34,3.28-.54,1.16,1-.2,2.15-.82,3.06a92.76,92.76,0,0,1-6.78,9.4c-4,4.48-5.07,9.72-5.77,15.51,3.88-3,5.72-7.56,9.89-9.78,1.48-.79-.21-2.82,1.68-4,2.41-1.47,4.4-3.69,6.54-5.62,1.11-1,1.94-2.16,1.55-3.78-.53-2.21.66-2.44,2.36-2.11a4,4,0,0,0,4.93-2.42c.37-.8.8-1.58,1.82-1.37s1,1.15,1.21,1.92-.61,1.87.21,2.66c3.95-4.13,4.84-8,2.72-12.08C205.4,253.92,202.38,253.26,199.34,252.62Z"/><path class="cls-1" d="M343.29,248c-.93-1.16-.43-1.84-.31-2.51s.51-1.29-.18-1.56c-1-.4-1.07.52-1.25,1.21s-.54,1.12-1.24.85c-.26-.1-.6-.54-.56-.77,1.11-5.47-.87-11.18,2-16.51,0-.06.22-.05.59-.12.41,2.66-1.67,5.19-.74,8.18.9-1.16,2.65-1.47,1.4-3.5a1.65,1.65,0,0,1,1.3-2.45c1.63-.27,1.18,1.17,1.18,1.94a24.7,24.7,0,0,0,1.52,8.59C348.26,244.86,344.38,245.49,343.29,248Z"/><path class="cls-1" d="M57.23,372.1c4.2-7.76-4,9.75-5.62,11.86-.52,2.8-5.66-8.74-3.92-16.42C48,366.15,53,379.86,57.23,372.1Z"/><path class="cls-1" d="M123.24,308.88a8.37,8.37,0,0,1-1-.95c-.76-1-3-1.3-2-3.11.91-1.65,2.88-1.29,4.47-1.37.4,0,.79.32,1.18.5-2.26,3.87,2.43,3.5,3.15,5.57.25.72,1.17,1.31.58,2.18s-1.46.2-2.15,0A12.8,12.8,0,0,1,123.24,308.88Z"/><path class="cls-1" d="M336,221c-2.26-1.42-4.68-1.71-4.45-4,.25-2.44,2.77-3.79,4.39-5.38,1.11-1.09,1.69.59,1.66,1.91C337.53,216,335.27,217.79,336,221Z"/><path class="cls-1" d="M239.84,164.13c-3.66-2.61-7.49-4.36-7.87-10.1C235.61,157,239.52,158.6,239.84,164.13Z"/><path class="cls-1" d="M271.43,162.58l0,.3c3.55-4.19,5.35-4.21,8.37-.09a1.37,1.37,0,0,1,.26,1,.78.78,0,0,1-1.11.57C276.59,163.24,273.67,164.18,271.43,162.58Z"/><path class="cls-1" d="M341.8,220.44c1.27,2-1.49,4.36,0,6.27.76,1,2.61-.11,2.69-.41a10.11,10.11,0,0,0-.65-6.13A3.32,3.32,0,0,1,341.8,220.44Z"/><path class="cls-1" d="M221.56,290c-.72.81-1.42,1.16-1.76.63-1.06-1.64-.65-3.64-.35-5.42.15-.88,1.59-.35,2.05.14C223,287,221.28,288.69,221.56,290Z"/><path class="cls-1" d="M174.28,333.06l-.77.15c-.82.3-1.8.35-2.23-.3s.57-1.13.91-1.71a3.3,3.3,0,0,1,3.26-1.88C175,330.59,176.35,332.22,174.28,333.06Z"/><path class="cls-1" d="M194.25,324.45c.64,1.86.62,3.24-1.12,4.09a7.32,7.32,0,0,0-1.11.63c.32.8.68,1.54-.67,1.76-.64.1-.79-.29-.88-.79a2.37,2.37,0,0,1,.67-2.3C192.22,326.8,194.23,326.79,194.25,324.45Z"/><path class="cls-1" d="M288.25,170.91c-2.78-1.13-4.87-1.62-6-3.7C283.82,168.56,286.6,167.66,288.25,170.91Z"/><path class="cls-1" d="M147.51,310.75c.53.64.92,1.27.19,1.89a1.75,1.75,0,0,1-2.24.33,1.26,1.26,0,0,1-.07-2.1A1.54,1.54,0,0,1,147.51,310.75Z"/><path class="cls-1" d="M216.57,326.77c-.4-1.1-1.65-2,.26-3.32.8-.53.9-2.19,1.38-3.49,2.26,1.82-.29,3.72.05,5.46v-.2c-.6.48-.69,1.49-1.64,1.58Z"/><polyline id="SVGID" class="cls-3" points="-112.77 309.89 129.83 -7.01 234.63 73.22 278.87 67.45 280.95 108.68 401.65 201.09 159.05 517.99"/><path class="cls-2" d="M235.1,202.23c-4.43.91-6.49,4.52-8.75,7.88-1.88,2.8-3.7,5.65-5.59,8.45-.43.63-.92,1.63-1.83,1.22s-.58-1.39-.41-2.17a52.85,52.85,0,0,1,7.73-18.16q.65-2.19,1.25-4.38c-8.66,5.76-12.18,17.47-17.28,26.56a12.6,12.6,0,0,0,.89,7.75,3.34,3.34,0,0,1,.27,1.9c2.72,1.59,4.92,4.37,7.08,7.17a.62.62,0,0,1,.41-.28A7.25,7.25,0,0,1,220.4,235a7.4,7.4,0,0,1,1.59-1.63,6.62,6.62,0,0,1,.88-1.27c1.14-1.45,1.89-2.75-.06-4a1.39,1.39,0,0,1-.78-1.68c.32-1,1.19-1.08,2-1,2.51.18,3.9-1.44,5.37-3.21a7.83,7.83,0,0,0,1.33-8.07c-.52-1.53-.11-2.88,1.58-2.31,2.9,1,4-.91,4.36-2.89a7.53,7.53,0,0,1,1.6-3.45,6.45,6.45,0,0,0-2.59-3.47A1.67,1.67,0,0,1,235.1,202.23Z"/><path class="cls-2" d="M330.57,246c1.12-1.62,2.05-3.29.89-6-2.22,5.49-2.34,11.33-7.51,14.53.66-1.36-.74-2.91-.22-4,1.55-3.32,3.71-6.37,5.41-9.63,1.81-3.45,3.6-7,3.91-10.9-3.4-1.07-3.33,2.15-4.56,3.74,1-.66,1.58-2,4.12-2.55-6.73,7.34-6.46,17.78-15.33,23-.57-3.44,3.78-5,3.76-8.22-.81-.41-1,1-1.72.73-.33-2,3.78-2.86,1.34-5.6-.18,2.47-1.66,3-3.75,3.26.85-1.46,2.05-1.92,2.76-3.1,2.73-4.55,5.54-9.05,7.33-14.06.37-1,2.4-2,.76-3.16-1.1-.8-1.77-3.25-4.07-1.4-.29.24-1.46-.66-2.22-1,1.15-1.1-.42-3.15,2-4.19a6.69,6.69,0,0,0,3.33-4.41c-1.8.22-2.38,2-4,2.87,1.11-2.47,3.42-3.57,4.36-5.48,1.41-2.86-.14-6,.48-9,.15-.76-.83-.57-1.28-.72-.79-.26-1,.38-.86,1,.25,1.68-.61,3.06-1.17,4.58-1.12,3-3.2,5.66-4.2,8.66-1.75,5.22-5.31,7.91-10.38,9.26,1.73-3.14,7.1-2.36,7.29-7.13-1.46,0-1.14,1.86-2.41,1.86-.75-3,1.72-4.8,2.65-7.13.12-.29.42-.35.84-.31,1.4.15,1.52.09,1.62-.58.17-1.14,1.19-2.7-1-2.93.28-.84,1.83-2,.24-2.43-1.16-.34-1.43,1.53-2.14,2.37-.39.46,0,1.46-1.13,1.5,1.47-6.54,6.56-13,1.46-19.68-1.47,1.38-2.52,4-1.53,4.8,3.33,2.85-.6,3.93-1.21,5.84,1.45-5.34-2.7-9.44-2.32-14.52,0-.38-.19-1.45-1.28-1-1.27.54-1.25.5-1.45-.59-.87-4.82-2.4-9.26-6.67-12.64a6.52,6.52,0,0,0,.33,1.35c1.34,2.28,3.95,4.44-.21,7-.91.55-.13,1.92.08,2.9.61,2.82.45,3.6-1.49,6.12,2.14-5.15-.75-7.8-4.54-10.47l1.39,5.59c-1.72-2.71-2.4-6-5.23-7.77-.06,2,.7,4-.06,6.11-1.66-.69.15-3.68-2.53-3.26-2.94.47.33,2.48-.94,3.39-2.82-1.1-1.61-4-2.26-6.45-1.32,1.9-4.06,2.77-1.94,5.74-1.88-1.43-2.89,0-4.37,1.27.3-2.56-1.66-3.93-1.72-6.41l1,.77c.73.57.27,2.89,2,1.79,1.27-.81.16-2.34-.47-2.94s-1.37-3.77-3.23-.67a.5.5,0,0,1-.94-.29c.23-1.71-1-1.35-1.91-1.51-2.36-.42-4.74-.8-5.8-3.44-.4-1-1.4-.91-2.35-.77-.27,0-1.27.07-.68-.42,1.54-1.25-.39-2.4.15-3.52-.36-.16-.77-.41-1-.29a33.7,33.7,0,0,1-18.4,3.45c-.67-.06-1.34-.24-1.87.45-2.54,3.31-6,2.47-9.1,2.18-3-.28-4-2.08-3.67-5.2.11-1.06-.67-1.45-1.48-1.41-4.26.19-6.09-3.16-8.27-5.78-1.48-1.78-1-3.51,1.7-4.29a7.46,7.46,0,0,1,7.94,2c1.71,1.68,4.88-4.42,7-6,2.64-2,39.22-67.48,15-71-4.1-.6-19,16.29-21,20.54C232,104,217,125.34,210.25,134.81q-11.08,15.51-22.79,30.54c-10.86,13.86-21.63,27.77-31.32,42.49-1.79,2.73-3.76,5.34-5.59,8s-3.71,5.65-5.58,8.46-4.46,5.25-5.19,8.19c-.85,3.45-3.66,4.75-5.31,7.2-7.13,10.65-14.54,21.11-21.68,31.75-4.81,7.15-9.32,14.5-14,21.74-6.77,10.47-13.61,20.91-19.2,32-2.15,4.29-3.95,8.93-6.1,13.09-3.95,7.62-6.73,15.55-9.84,23.42a85.27,85.27,0,0,0,4.22-9C70.71,345.72,75.41,341,83,339.49c3.1-.63,20.38-20.13,25.74-25.43,3.86-3.81,7.65-5.54,12.79-4.13.94.26,1.92.41,2.88.61a8.43,8.43,0,0,0-2.61-2.89,15.91,15.91,0,0,1-5-5.75,5.77,5.77,0,0,1,.89-6.44c1.54-1.8,3.53-1.78,5.62-1a30.32,30.32,0,0,0,7.79,1.59,34.91,34.91,0,0,1,12.45,3.67c1,.48,2.51,1.1,1,2.72-.42.46-1.43.54-.8,1.46a1.93,1.93,0,0,0,2.05.84,17.53,17.53,0,0,1,6.39-.21c4.66.9,7.83,4.3,7.06,7.86s1.25,6.32.93,9.56c-3.75,1.59-5.05-1-6.07-4.07-.66-2-2.39-1.47-3.16-.55-1.51,1.81-2.71.93-4,.32-1.52-.7-1.51-.72-4.48-.62,4.12.89,5,3.88,6.09,6.37.71,1.55,2.6,1.91,2.77,3.91.45,5.22.61,4.86,4.44,5.21,2.44.22,5-.55,7.45.89,1.7,1,3.61-.11,4.45-2.36.76-2,1.21-4.33,3.78-5.11a3.49,3.49,0,0,0,1.31-1.11c.37-.41.84-1,.24-1.45-.42-.34-1.07-.58-1.51,0-1.64,2.17-3.37.54-5.15.48,4.09-.52,5.87-3.31,7-6.69-.89-.39-1,1.59-1.92.69a1.85,1.85,0,0,1-.15-2.52,13.83,13.83,0,0,1,1.63-1.26c1.38-1.25,1.64-6,.44-5.92-1.87.15-2.6-4.63-5-.87-.24-.19-.48-.39-.73-.57-1.42-1-3.13-1.09-4.78-1.38-.85-.15-2.07.22-2.4-.8-.82-2.55-3.11-2.61-5.1-3.13a7.87,7.87,0,0,1-3-1.4c-9.17-7.11-16.88-16-26.8-22.2-2.8-1.76-2.87-4.71-1.1-7.8,4.62-8.07,9.43-16,13.81-24.25,9.81-18.4,22.74-34.63,35.32-51.11a27.69,27.69,0,0,1,11.28-9.07c2.44-1,4.94-1.82,6.77-4a112,112,0,0,1,19.1-17.26c3.08-2.28,5.43-2.42,8.21-.34,3.92,2.94,7.12,6.65,10.75,9.91,1.32,1.18,2.52,2.49,3.8,3.76a1.71,1.71,0,0,1-.53.26c6,5,8.25,13.22,10.74,20.43l1.72,1.15c1.94,1.13,4.23,1.67,5.53,4.09.64,1.18.58,4.15,3.34,3.69,1.38-.23,2.66-.52,3.34,1.18.74,1.86-.88,2.5-1.69,3.7l4.65-2c-1,1.67-3.76,4,.72,4.77a1.32,1.32,0,0,1,.93.84c.58,3.54,1.06,7.23,0,10.71-.77,2.41.5,4.1,3,3.89a11.18,11.18,0,0,1,5.29.9c1.86.73,3.7,2.84,6.34,1.51.43-.22,1.74.45,1.91,1,.23.73-1,.2-1.38.8-2.13,3.23-5.6,1.55-8.36,2.75-.33,1,1.67.67,1.4,1.29-1.76.44-3.5.39-4.52,1.25a5.49,5.49,0,0,1-5.46,1.27c-.94-.24-2.17.41-3.23.78-.53.18-1,.61-.51,1.32,1,1.49.79,2.1-1,2.41-.93.16-2-.43-2.93.69L259,248c-2.43,0-3.84,1.54-5.84,3.33,3.67-.07,4.07,2.88,5.84,4.7-3,.35-3,.35-4.59,1.68,1.42.72,4.35-.85,4.25.57-.15,2-2.76.57-4.25.89s-3.07-.77-1.58-2.9c.41-.58,1.16-1.06.19-1.58a1.24,1.24,0,0,0-1.92.75c-.47,1.42-.84,2.88-1.23,4.32-1.29,4.66-1,5.06,3.33,6.61.7.25,2.15.34,1.64,1.61s-1.58.68-2.49.21c-3.45-1.76-4.81-1.24-6.36,2.51-.71,1.71-1,3.7-2.43,4.94a4.53,4.53,0,0,0-1.48,4.87c-3.67-1.08-9.54,1.35-11.75,4.67,1.55.85,3,.48,4.47-.43,1-.59,2.11-.62,2.61.52s-.55,1.88-1.32,2.07c-1.48.36-1.78,1-2,2.51-.4,2.64-4.45,5-6.75,4.18.12,1.14,1.07,2.22.14,3.48-1.28-1.33-2.17-2.88-4.37-3.41a29.77,29.77,0,0,0,.77,4.16c.32,1,.49,1.83-.32,2.5-1.1.89-1.43,0-1.91-.86s-1.66-.23-2.5-.26c-1.91-.08-3.56-.26-4.16-2.51-.38-1.44-1.47-1.63-1.91-.08-1.51,5.28-6,8.75-8.12,13.74-1.34,3.19-.89,5.43.95,7.75-.08.3-.29.82-.22.86.59.34.87-.14,1.19-.51-.44,2,.43,3.53,1.5,5.07.5.71.74,2-.32,2.38-1.24.49-.85-.87-1.1-1.5a7,7,0,0,0-2-3.38c-2.14-1.63-.66-2.28.93-2.9-1.09-.24-2.62.7-2.77-1.72-.1-1.6-2.21-2.49-3-4.09-.45-.89-1.42,0-2.09.34-.85.41-.76,1-.23,1.62a2.57,2.57,0,0,1,.75,1.4c-.08,7.74-3.4,13.74-10.32,18l.74-4.63c-1.91-.29-2.53,2.11-4.42,2a5.8,5.8,0,0,1,.92-1.79c.81-.72,2.47-1.2,1.57-2.46s-1.93.41-2.79.88c-2.85,1.57-3.34,6-7.23,6.37-.34,0-.63.16-.85-.3l1.29-1.68-4.51-.18c2.27-1.25,4.8-1.21,4-4.11l-3.49,1.61-.74.15c-2.06.82-4.24,1.47-5.5,3.58.55,1,1.55-.51,1.91.27.13,1.64-1.58,1.16-2,2.1a11,11,0,0,0,6.66,1.13c-.73,2.39-4.86,4.48-8.35,4.33.67,1.4,2.31,1.24,3.26,2.1.42.39,1.69.49,1,1.3-2.35,2.69,1.68,2.12,1.54,3.61,3.33-.39,4.59,3.22,7.94,3.41-1.78,1.32-3,.58-4.27.34-.79-.15-2.4-.52-1,1.21.55.67,0,.76-.34.87-1,.28-1.92.72-1.47,1.85s1.6,1,2.64,1c1.29-.06,3-1.46,3.8-.2,1.53,2.32,3.62,3.22,6.74,3.3l-2.88,1.73c1.54.71,3.57,0,5.08,1.8-2.58-.81-4.2,1-6.07,2a2.19,2.19,0,0,1-.6.56l-.25.14a36.12,36.12,0,0,0,4.09,1.33,8.33,8.33,0,0,0,1,.19c4.38-1,9-1.59,12.46-5.24.82-.86,2.22-1.15,3.35-1.7-.53,1.43-2.51,1.76-1.58,3.6-1,.49-1.16,1.73-1.76,2.59a6.45,6.45,0,0,1,5.47,3.9,6.35,6.35,0,0,1,.67,2.55,7.69,7.69,0,0,0,3.56-1.73l-.13,3.41c1.33-2.84,3.08-3.74,4.73-5,.38,2.44-2.25,2.75-3,4.8,2.91-1.15,5.71-1.76,4.37-5.58-.15-.44.24-1.21.52-1.05,3,1.68,4.07-2.06,6.35-2.39.35.83-1.19,1-.84,2.09,1.16-1.31,2.71-.5,4.07-1,.41-.15,2.1.46,1.5,1.45-1.55,2.58-.33,5.4-1.39,8,.83,3.15-.15,6.28-.57,9.41-1.72,12.81,29.39,44.28,91.86-37.51C366.72,281.07,413,169.86,330.57,246Zm-118,114.6a13.25,13.25,0,0,0,2.55,2.48c-2,2.64-4.2-.42-6.27.68.06-1.1,2.53-1.49,1-2.92-1.16-1.1-1.66.59-2.87,1,1-1.85-.27-4.78,2-5.12C210.85,356.45,211.6,359,212.55,360.62Zm25.31-2.25c-1.36-3.32-1.36-3.32,4.31-8.85C241,353,238.14,354.52,237.86,358.36Zm3.34-13.54c.14.67-.74,1.17-1.43.55l-2.44-2.44c1.09-.85-.93-1.67-.08-2.88,1.5,1.11,3,3.34,5-1.2C242.36,341.94,240.86,343.16,241.21,344.82Zm-19.35-33.09c-1.7,1.81-1.09,4.54-3.35,6.28-.84.64-.77,3.26-2.31,4.49a14.78,14.78,0,0,1,1.06,1.44c.7,1.19,1.59,2.72-.15,3.57-2,1-.32-1.68-1.46-2-.5-.14-.76-1-1.12-1.58l0,0c-1.21.4-2.22-.94-3.48-.19-.65.39-.88.06-.44-.45,1.25-1.46-1-2.61.33-4.35-1.81,2.43-2.67,1-3.59.07,2.34.51,2.58-1.66,3.56-2.93.48-.62-1.16-2,.74-2,1.08,0,1.33,1,1.44,1.94,0,.24.37.43.78.87,1-2.61,1.11-5.38,3.1-7.41,1.09,1.32-1,2.56.33,3.85a22.26,22.26,0,0,1,1.39-3.21c.52-.82.77-2.61,2.15-1.89C221.93,308.82,223.13,310.38,221.86,311.73Zm65.74-47.82h-.13l15.32,20.27c-1.7,1.1-1.9,2.24-.12,3.28-.34.76-1.1.46-1.49.81-.95.83-3,.1-3.09,1.63s1.79.77,2.65,1.33a2.15,2.15,0,0,1,1.2,2.24c-1.08.34-1.17-1.79-2.42-.92a2.07,2.07,0,0,0-.92,2.43c1.35,3-.39,6-1,8.61-1.13,5.34-3.84,10.58-8.63,13.84-3.11,2.11-6.37,4.28-10.05,5.28a2.94,2.94,0,0,0-1.73,1.49c-.54.78-.63,1.85-1.62.3-.51-.79-1.13.32-1.38.85-.53,1.13-.92,2.32-1.38,3.53-.95-.47-1.2-1-.6-1.92.42-.64.5-1.39-.2-1.8s-.85.35-1.2.78c-.53.65-.89.65-1.5-.15-2.43-3.13-3.72-3.32-7.51-1.07-1.65,1-2-.46-2.61-1.12-1.46-1.68-2.19-3.89-5.46-3.08-1,.25-3.37-2.12-3.79-3.71-1.13-4.3-4.93-5.17-7.87-7.13-3.27-2.18-3.46-2.93-.65-5.91a4.83,4.83,0,0,0,.74-1c-2.36-2.09-1.39-4,.4-6.06.34-.38.28-1.44.54-1.51,2.64-.64,4.2-2.33,6-4.41a18.09,18.09,0,0,1,3.77-3.45c3.92-2.3,5.8-5.81,7.78-9.56.72-1.36,2.26-2.21,1.71-4.13-.24-.85.49-1.56,1.31-1.81a2.07,2.07,0,0,0,1.6-2.64c-.51-2.58,2.42-2.68,3.2-4.42.26-.59,1.57.35,1.8,1.3s.34,2.13.53,3.46A5.14,5.14,0,0,0,272,265c-.18-2-1-4.51,1.43-5.48a5.27,5.27,0,0,1,6.43,2.32c1.36,2.08,5.46,2.08,7.1,2-.42-.18-.42-.77-.51-1.25l.94,1.24C287.72,263.87,287.8,263.87,287.6,263.91ZM275.5,244.1c-1-2-3.11-1.34-4.08-2.95,2.43-.63,3.31,1.5,4.86,2.16-1.11,2-3,2.68-4.89,3.44C272.8,245.87,273.33,243.72,275.5,244.1Zm13.88,8.81c-.14,1-1.4,1-2.25.92a18.78,18.78,0,0,1-2.82-.63l2.64-.79c-1.19-1.46-3.27,0-4.42-1.71,1.79-.33,3.34.2,4.94.4C288.65,251.23,289.52,251.91,289.38,252.91Zm-13-22.63c-2-1.12-4.52-.73-6.85-2.06C272.57,227.7,275.09,227.22,276.43,230.28Z"/><path class="cls-2" d="M147.25,140c-15.44,8.94-27.32,21.76-38.19,35.77-9.59,12.36-18.55,25.11-25.3,39.24-5.06,10.6-8.4,21.58-7.95,32.66-10-8.71-26.54-32.37-28.4-33.52-.68-.41-7.6-7-8.17-8.85-1-3.13-3.13-5-4.49-7.74-3.24-6.43-2.84-13-.71-19.69.72-2.27,10.62-13.69,12.59-15.13,4.8-3.48,27.2-10.61,27-11.11-1.81-3.65,3.47-22.91,3.68-24.52.61-4.78,10.75-15,13.6-17.91,19.68-20.1,37.6-3.61,44.39-1.77,11.31,3.07,21.21,9.33,32.62,12.11,4.55,1.11,9.24,3.34,11.74,8.11.52,1,1.78,1.17,2.9,1.44,4.55,1.09-12.15,5.48-12.72,5.57-1.67.27-3.33.65-5,1C165.26,133.69,153.83,136.19,147.25,140Z"/><path class="cls-2" d="M197.86,252.38l-.11,0a2,2,0,0,1-1.12.11c-5.49-.82-10.16,2.13-14.24,5.17-6.3,4.69-10.36,11.34-12.64,19l5.35-5.82c2.78-3,6.2-5.22,9.47-7.6.93-.68,2.31-1.29,3.17-.52,1.12,1-.19,2.08-.8,2.95a89.45,89.45,0,0,1-6.53,9.06c-3.85,4.32-4.89,9.37-5.57,15,3.74-2.85,5.52-7.29,9.54-9.43,1.43-.76-.2-2.72,1.62-3.84,2.32-1.42,4.24-3.55,6.3-5.42,1.07-1,1.87-2.08,1.5-3.64-.51-2.13.64-2.36,2.27-2a3.88,3.88,0,0,0,4.75-2.33c.36-.78.77-1.52,1.76-1.32s.94,1.11,1.17,1.85-.58,1.8.21,2.56c3.81-4,4.67-7.75,2.62-11.65C203.7,253.64,200.79,253,197.86,252.38Z"/><path class="cls-2" d="M336.66,247.91a2.21,2.21,0,0,1-.3-2.42c.1-.55.49-1.25-.17-1.51-1-.38-1,.5-1.2,1.16s-.53,1.08-1.2.82c-.25-.09-.58-.52-.54-.74,1.07-5.28-.84-10.78,1.92-15.92,0-.06.21,0,.57-.12.4,2.57-1.61,5-.72,7.89.87-1.12,2.56-1.42,1.35-3.38a1.59,1.59,0,0,1,1.25-2.37c1.57-.26,1.13,1.13,1.13,1.87a23.82,23.82,0,0,0,1.46,8.28C341.46,244.9,337.71,245.51,336.66,247.91Z"/><path class="cls-2" d="M60.83,367.59C64.88,360.11,57,377,55.41,379c-.5,2.7-5.46-8.43-3.78-15.84C51.92,361.86,56.78,375.07,60.83,367.59Z"/><path class="cls-2" d="M124.48,306.63a8.07,8.07,0,0,1-1-.91c-.73-1-2.86-1.26-1.9-3s2.78-1.24,4.31-1.32c.38,0,.76.31,1.14.48-2.18,3.73,2.34,3.37,3,5.37.24.7,1.13,1.26.56,2.1s-1.4.19-2.07,0A12.34,12.34,0,0,1,124.48,306.63Z"/><path class="cls-2" d="M329.61,221.9c-2.18-1.37-4.51-1.65-4.29-3.81.24-2.35,2.68-3.66,4.23-5.19,1.07-1,1.63.57,1.6,1.84C331.11,217.06,328.94,218.8,329.61,221.9Z"/><path class="cls-2" d="M236.92,167.05c-3.53-2.52-7.22-4.2-7.59-9.74C232.83,160.19,236.6,161.72,236.92,167.05Z"/><path class="cls-2" d="M267.38,165.56l0,.29c3.42-4,5.16-4.06,8.07-.08a1.32,1.32,0,0,1,.25.92.75.75,0,0,1-1.08.55C272.35,166.19,269.53,167.1,267.38,165.56Z"/><path class="cls-2" d="M335.23,221.35c1.22,2-1.44,4.2,0,6,.73.93,2.52-.11,2.59-.39a9.75,9.75,0,0,0-.63-5.91A3.2,3.2,0,0,1,335.23,221.35Z"/><path class="cls-2" d="M219.28,288.47c-.69.78-1.37,1.11-1.69.61-1-1.58-.63-3.51-.33-5.23.15-.85,1.54-.34,2,.14C220.64,285.5,219,287.16,219.28,288.47Z"/><path class="cls-2" d="M173.7,329.95l-.74.15c-.79.28-1.73.34-2.15-.29s.55-1.09.88-1.65a3.18,3.18,0,0,1,3.14-1.82C174.41,327.56,175.69,329.14,173.7,329.95Z"/><path class="cls-2" d="M192.95,321.64c.61,1.79.59,3.12-1.08,3.94a7.06,7.06,0,0,0-1.07.61c.31.77.66,1.49-.65,1.7-.61.1-.76-.28-.85-.76a2.28,2.28,0,0,1,.65-2.22C191,323.91,192.93,323.91,192.95,321.64Z"/><path class="cls-2" d="M283.59,173.59c-2.68-1.09-4.7-1.57-5.8-3.57C279.32,171.33,282,170.46,283.59,173.59Z"/><path class="cls-2" d="M147.88,308.44c.51.62.88,1.23.18,1.82a1.69,1.69,0,0,1-2.16.32,1.22,1.22,0,0,1-.07-2A1.49,1.49,0,0,1,147.88,308.44Z"/><path class="cls-2" d="M214.47,323.88c-.38-1.06-1.59-2,.25-3.2.77-.51.87-2.11,1.33-3.37,2.18,1.75-.28,3.59,0,5.26v-.2c-.57.46-.66,1.44-1.58,1.53Z"/><path class="cls-2" d="M235.1,202.23c-4.43.91-6.49,4.52-8.75,7.88-1.88,2.8-3.7,5.65-5.59,8.45-.43.63-.92,1.63-1.83,1.22s-.58-1.39-.41-2.17a52.85,52.85,0,0,1,7.73-18.16q.65-2.19,1.25-4.38c-8.66,5.76-12.18,17.47-17.28,26.56a12.6,12.6,0,0,0,.89,7.75,3.34,3.34,0,0,1,.27,1.9c2.72,1.59,4.92,4.37,7.08,7.17a.62.62,0,0,1,.41-.28A7.25,7.25,0,0,1,220.4,235a7.4,7.4,0,0,1,1.59-1.63,6.62,6.62,0,0,1,.88-1.27c1.14-1.45,1.89-2.75-.06-4a1.39,1.39,0,0,1-.78-1.68c.32-1,1.19-1.08,2-1,2.51.18,3.9-1.44,5.37-3.21a7.83,7.83,0,0,0,1.33-8.07c-.52-1.53-.11-2.88,1.58-2.31,2.9,1,4-.91,4.36-2.89a7.53,7.53,0,0,1,1.6-3.45,6.45,6.45,0,0,0-2.59-3.47A1.67,1.67,0,0,1,235.1,202.23Z"/><path class="cls-2" d="M330.57,246c1.12-1.62,2.05-3.29.89-6-2.22,5.49-2.34,11.33-7.51,14.53.66-1.36-.74-2.91-.22-4,1.55-3.32,3.71-6.37,5.41-9.63,1.81-3.45,3.6-7,3.91-10.9-3.4-1.07-3.33,2.15-4.56,3.74,1-.66,1.58-2,4.12-2.55-6.73,7.34-6.46,17.78-15.33,23-.57-3.44,3.78-5,3.76-8.22-.81-.41-1,1-1.72.73-.33-2,3.78-2.86,1.34-5.6-.18,2.47-1.66,3-3.75,3.26.85-1.46,2.05-1.92,2.76-3.1,2.73-4.55,5.54-9.05,7.33-14.06.37-1,2.4-2,.76-3.16-1.1-.8-1.77-3.25-4.07-1.4-.29.24-1.46-.66-2.22-1,1.15-1.1-.42-3.15,2-4.19a6.69,6.69,0,0,0,3.33-4.41c-1.8.22-2.38,2-4,2.87,1.11-2.47,3.42-3.57,4.36-5.48,1.41-2.86-.14-6,.48-9,.15-.76-.83-.57-1.28-.72-.79-.26-1,.38-.86,1,.25,1.68-.61,3.06-1.17,4.58-1.12,3-3.2,5.66-4.2,8.66-1.75,5.22-5.31,7.91-10.38,9.26,1.73-3.14,7.1-2.36,7.29-7.13-1.46,0-1.14,1.86-2.41,1.86-.75-3,1.72-4.8,2.65-7.13.12-.29.42-.35.84-.31,1.4.15,1.52.09,1.62-.58.17-1.14,1.19-2.7-1-2.93.28-.84,1.83-2,.24-2.43-1.16-.34-1.43,1.53-2.14,2.37-.39.46,0,1.46-1.13,1.5,1.47-6.54,6.56-13,1.46-19.68-1.47,1.38-2.52,4-1.53,4.8,3.33,2.85-.6,3.93-1.21,5.84,1.45-5.34-2.7-9.44-2.32-14.52,0-.38-.19-1.45-1.28-1-1.27.54-1.25.5-1.45-.59-.87-4.82-2.4-9.26-6.67-12.64a6.52,6.52,0,0,0,.33,1.35c1.34,2.28,3.95,4.44-.21,7-.91.55-.13,1.92.08,2.9.61,2.82.45,3.6-1.49,6.12,2.14-5.15-.75-7.8-4.54-10.47l1.39,5.59c-1.72-2.71-2.4-6-5.23-7.77-.06,2,.7,4-.06,6.11-1.66-.69.15-3.68-2.53-3.26-2.94.47.33,2.48-.94,3.39-2.82-1.1-1.61-4-2.26-6.45-1.32,1.9-4.06,2.77-1.94,5.74-1.88-1.43-2.89,0-4.37,1.27.3-2.56-1.66-3.93-1.72-6.41l1,.77c.73.57.27,2.89,2,1.79,1.27-.81.16-2.34-.47-2.94s-1.37-3.77-3.23-.67a.5.5,0,0,1-.94-.29c.23-1.71-1-1.35-1.91-1.51-2.36-.42-4.74-.8-5.8-3.44-.4-1-1.4-.91-2.35-.77-.27,0-1.27.07-.68-.42,1.54-1.25-.39-2.4.15-3.52-.36-.16-.77-.41-1-.29a33.7,33.7,0,0,1-18.4,3.45c-.67-.06-1.34-.24-1.87.45-2.54,3.31-6,2.47-9.1,2.18-3-.28-4-2.08-3.67-5.2.11-1.06-.67-1.45-1.48-1.41-4.26.19-6.09-3.16-8.27-5.78-1.48-1.78-1-3.51,1.7-4.29a7.46,7.46,0,0,1,7.94,2c1.71,1.68,4.88-4.42,7-6,2.64-2,39.22-67.48,15-71-4.1-.6-19,16.29-21,20.54C232,104,217,125.34,210.25,134.81q-11.08,15.51-22.79,30.54c-10.86,13.86-21.63,27.77-31.32,42.49-1.79,2.73-3.76,5.34-5.59,8s-3.71,5.65-5.58,8.46-4.46,5.25-5.19,8.19c-.85,3.45-3.66,4.75-5.31,7.2-7.13,10.65-14.54,21.11-21.68,31.75-4.81,7.15-9.32,14.5-14,21.74-6.77,10.47-13.61,20.91-19.2,32-2.15,4.29-3.95,8.93-6.1,13.09-3.95,7.62-6.73,15.55-9.84,23.42a85.27,85.27,0,0,0,4.22-9C70.71,345.72,75.41,341,83,339.49c3.1-.63,20.38-20.13,25.74-25.43,3.86-3.81,7.65-5.54,12.79-4.13.94.26,1.92.41,2.88.61a8.43,8.43,0,0,0-2.61-2.89,15.91,15.91,0,0,1-5-5.75,5.77,5.77,0,0,1,.89-6.44c1.54-1.8,3.53-1.78,5.62-1a30.32,30.32,0,0,0,7.79,1.59,34.91,34.91,0,0,1,12.45,3.67c1,.48,2.51,1.1,1,2.72-.42.46-1.43.54-.8,1.46a1.93,1.93,0,0,0,2.05.84,17.53,17.53,0,0,1,6.39-.21c4.66.9,7.83,4.3,7.06,7.86s1.25,6.32.93,9.56c-3.75,1.59-5.05-1-6.07-4.07-.66-2-2.39-1.47-3.16-.55-1.51,1.81-2.71.93-4,.32-1.52-.7-1.51-.72-4.48-.62,4.12.89,5,3.88,6.09,6.37.71,1.55,2.6,1.91,2.77,3.91.45,5.22.61,4.86,4.44,5.21,2.44.22,5-.55,7.45.89,1.7,1,3.61-.11,4.45-2.36.76-2,1.21-4.33,3.78-5.11a3.49,3.49,0,0,0,1.31-1.11c.37-.41.84-1,.24-1.45-.42-.34-1.07-.58-1.51,0-1.64,2.17-3.37.54-5.15.48,4.09-.52,5.87-3.31,7-6.69-.89-.39-1,1.59-1.92.69a1.85,1.85,0,0,1-.15-2.52,13.83,13.83,0,0,1,1.63-1.26c1.38-1.25,1.64-6,.44-5.92-1.87.15-2.6-4.63-5-.87-.24-.19-.48-.39-.73-.57-1.42-1-3.13-1.09-4.78-1.38-.85-.15-2.07.22-2.4-.8-.82-2.55-3.11-2.61-5.1-3.13a7.87,7.87,0,0,1-3-1.4c-9.17-7.11-16.88-16-26.8-22.2-2.8-1.76-2.87-4.71-1.1-7.8,4.62-8.07,9.43-16,13.81-24.25,9.81-18.4,22.74-34.63,35.32-51.11a27.69,27.69,0,0,1,11.28-9.07c2.44-1,4.94-1.82,6.77-4a112,112,0,0,1,19.1-17.26c3.08-2.28,5.43-2.42,8.21-.34,3.92,2.94,7.12,6.65,10.75,9.91,1.32,1.18,2.52,2.49,3.8,3.76a1.71,1.71,0,0,1-.53.26c6,5,8.25,13.22,10.74,20.43l1.72,1.15c1.94,1.13,4.23,1.67,5.53,4.09.64,1.18.58,4.15,3.34,3.69,1.38-.23,2.66-.52,3.34,1.18.74,1.86-.88,2.5-1.69,3.7l4.65-2c-1,1.67-3.76,4,.72,4.77a1.32,1.32,0,0,1,.93.84c.58,3.54,1.06,7.23,0,10.71-.77,2.41.5,4.1,3,3.89a11.18,11.18,0,0,1,5.29.9c1.86.73,3.7,2.84,6.34,1.51.43-.22,1.74.45,1.91,1,.23.73-1,.2-1.38.8-2.13,3.23-5.6,1.55-8.36,2.75-.33,1,1.67.67,1.4,1.29-1.76.44-3.5.39-4.52,1.25a5.49,5.49,0,0,1-5.46,1.27c-.94-.24-2.17.41-3.23.78-.53.18-1,.61-.51,1.32,1,1.49.79,2.1-1,2.41-.93.16-2-.43-2.93.69L259,248c-2.43,0-3.84,1.54-5.84,3.33,3.67-.07,4.07,2.88,5.84,4.7-3,.35-3,.35-4.59,1.68,1.42.72,4.35-.85,4.25.57-.15,2-2.76.57-4.25.89s-3.07-.77-1.58-2.9c.41-.58,1.16-1.06.19-1.58a1.24,1.24,0,0,0-1.92.75c-.47,1.42-.84,2.88-1.23,4.32-1.29,4.66-1,5.06,3.33,6.61.7.25,2.15.34,1.64,1.61s-1.58.68-2.49.21c-3.45-1.76-4.81-1.24-6.36,2.51-.71,1.71-1,3.7-2.43,4.94a4.53,4.53,0,0,0-1.48,4.87c-3.67-1.08-9.54,1.35-11.75,4.67,1.55.85,3,.48,4.47-.43,1-.59,2.11-.62,2.61.52s-.55,1.88-1.32,2.07c-1.48.36-1.78,1-2,2.51-.4,2.64-4.45,5-6.75,4.18.12,1.14,1.07,2.22.14,3.48-1.28-1.33-2.17-2.88-4.37-3.41a29.77,29.77,0,0,0,.77,4.16c.32,1,.49,1.83-.32,2.5-1.1.89-1.43,0-1.91-.86s-1.66-.23-2.5-.26c-1.91-.08-3.56-.26-4.16-2.51-.38-1.44-1.47-1.63-1.91-.08-1.51,5.28-6,8.75-8.12,13.74-1.34,3.19-.89,5.43.95,7.75-.08.3-.29.82-.22.86.59.34.87-.14,1.19-.51-.44,2,.43,3.53,1.5,5.07.5.71.74,2-.32,2.38-1.24.49-.85-.87-1.1-1.5a7,7,0,0,0-2-3.38c-2.14-1.63-.66-2.28.93-2.9-1.09-.24-2.62.7-2.77-1.72-.1-1.6-2.21-2.49-3-4.09-.45-.89-1.42,0-2.09.34-.85.41-.76,1-.23,1.62a2.57,2.57,0,0,1,.75,1.4c-.08,7.74-3.4,13.74-10.32,18l.74-4.63c-1.91-.29-2.53,2.11-4.42,2a5.8,5.8,0,0,1,.92-1.79c.81-.72,2.47-1.2,1.57-2.46s-1.93.41-2.79.88c-2.85,1.57-3.34,6-7.23,6.37-.34,0-.63.16-.85-.3l1.29-1.68-4.51-.18c2.27-1.25,4.8-1.21,4-4.11l-3.49,1.61-.74.15c-2.06.82-4.24,1.47-5.5,3.58.55,1,1.55-.51,1.91.27.13,1.64-1.58,1.16-2,2.1a11,11,0,0,0,6.66,1.13c-.73,2.39-4.86,4.48-8.35,4.33.67,1.4,2.31,1.24,3.26,2.1.42.39,1.69.49,1,1.3-2.35,2.69,1.68,2.12,1.54,3.61,3.33-.39,4.59,3.22,7.94,3.41-1.78,1.32-3,.58-4.27.34-.79-.15-2.4-.52-1,1.21.55.67,0,.76-.34.87-1,.28-1.92.72-1.47,1.85s1.6,1,2.64,1c1.29-.06,3-1.46,3.8-.2,1.53,2.32,3.62,3.22,6.74,3.3l-2.88,1.73c1.54.71,3.57,0,5.08,1.8-2.58-.81-4.2,1-6.07,2a2.19,2.19,0,0,1-.6.56l-.25.14a36.12,36.12,0,0,0,4.09,1.33,8.33,8.33,0,0,0,1,.19c4.38-1,9-1.59,12.46-5.24.82-.86,2.22-1.15,3.35-1.7-.53,1.43-2.51,1.76-1.58,3.6-1,.49-1.16,1.73-1.76,2.59a6.45,6.45,0,0,1,5.47,3.9,6.35,6.35,0,0,1,.67,2.55,7.69,7.69,0,0,0,3.56-1.73l-.13,3.41c1.33-2.84,3.08-3.74,4.73-5,.38,2.44-2.25,2.75-3,4.8,2.91-1.15,5.71-1.76,4.37-5.58-.15-.44.24-1.21.52-1.05,3,1.68,4.07-2.06,6.35-2.39.35.83-1.19,1-.84,2.09,1.16-1.31,2.71-.5,4.07-1,.41-.15,2.1.46,1.5,1.45-1.55,2.58-.33,5.4-1.39,8,.83,3.15-.15,6.28-.57,9.41-1.72,12.81,29.39,44.28,91.86-37.51C366.72,281.07,413,169.86,330.57,246Zm-118,114.6a13.25,13.25,0,0,0,2.55,2.48c-2,2.64-4.2-.42-6.27.68.06-1.1,2.53-1.49,1-2.92-1.16-1.1-1.66.59-2.87,1,1-1.85-.27-4.78,2-5.12C210.85,356.45,211.6,359,212.55,360.62Zm25.31-2.25c-1.36-3.32-1.36-3.32,4.31-8.85C241,353,238.14,354.52,237.86,358.36Zm3.34-13.54c.14.67-.74,1.17-1.43.55l-2.44-2.44c1.09-.85-.93-1.67-.08-2.88,1.5,1.11,3,3.34,5-1.2C242.36,341.94,240.86,343.16,241.21,344.82Zm-19.35-33.09c-1.7,1.81-1.09,4.54-3.35,6.28-.84.64-.77,3.26-2.31,4.49a14.78,14.78,0,0,1,1.06,1.44c.7,1.19,1.59,2.72-.15,3.57-2,1-.32-1.68-1.46-2-.5-.14-.76-1-1.12-1.58l0,0c-1.21.4-2.22-.94-3.48-.19-.65.39-.88.06-.44-.45,1.25-1.46-1-2.61.33-4.35-1.81,2.43-2.67,1-3.59.07,2.34.51,2.58-1.66,3.56-2.93.48-.62-1.16-2,.74-2,1.08,0,1.33,1,1.44,1.94,0,.24.37.43.78.87,1-2.61,1.11-5.38,3.1-7.41,1.09,1.32-1,2.56.33,3.85a22.26,22.26,0,0,1,1.39-3.21c.52-.82.77-2.61,2.15-1.89C221.93,308.82,223.13,310.38,221.86,311.73Zm65.74-47.82h-.13l15.32,20.27c-1.7,1.1-1.9,2.24-.12,3.28-.34.76-1.1.46-1.49.81-.95.83-3,.1-3.09,1.63s1.79.77,2.65,1.33a2.15,2.15,0,0,1,1.2,2.24c-1.08.34-1.17-1.79-2.42-.92a2.07,2.07,0,0,0-.92,2.43c1.35,3-.39,6-1,8.61-1.13,5.34-3.84,10.58-8.63,13.84-3.11,2.11-6.37,4.28-10.05,5.28a2.94,2.94,0,0,0-1.73,1.49c-.54.78-.63,1.85-1.62.3-.51-.79-1.13.32-1.38.85-.53,1.13-.92,2.32-1.38,3.53-.95-.47-1.2-1-.6-1.92.42-.64.5-1.39-.2-1.8s-.85.35-1.2.78c-.53.65-.89.65-1.5-.15-2.43-3.13-3.72-3.32-7.51-1.07-1.65,1-2-.46-2.61-1.12-1.46-1.68-2.19-3.89-5.46-3.08-1,.25-3.37-2.12-3.79-3.71-1.13-4.3-4.93-5.17-7.87-7.13-3.27-2.18-3.46-2.93-.65-5.91a4.83,4.83,0,0,0,.74-1c-2.36-2.09-1.39-4,.4-6.06.34-.38.28-1.44.54-1.51,2.64-.64,4.2-2.33,6-4.41a18.09,18.09,0,0,1,3.77-3.45c3.92-2.3,5.8-5.81,7.78-9.56.72-1.36,2.26-2.21,1.71-4.13-.24-.85.49-1.56,1.31-1.81a2.07,2.07,0,0,0,1.6-2.64c-.51-2.58,2.42-2.68,3.2-4.42.26-.59,1.57.35,1.8,1.3s.34,2.13.53,3.46A5.14,5.14,0,0,0,272,265c-.18-2-1-4.51,1.43-5.48a5.27,5.27,0,0,1,6.43,2.32c1.36,2.08,5.46,2.08,7.1,2-.42-.18-.42-.77-.51-1.25l.94,1.24C287.72,263.87,287.8,263.87,287.6,263.91ZM275.5,244.1c-1-2-3.11-1.34-4.08-2.95,2.43-.63,3.31,1.5,4.86,2.16-1.11,2-3,2.68-4.89,3.44C272.8,245.87,273.33,243.72,275.5,244.1Zm13.88,8.81c-.14,1-1.4,1-2.25.92a18.78,18.78,0,0,1-2.82-.63l2.64-.79c-1.19-1.46-3.27,0-4.42-1.71,1.79-.33,3.34.2,4.94.4C288.65,251.23,289.52,251.91,289.38,252.91Zm-13-22.63c-2-1.12-4.52-.73-6.85-2.06C272.57,227.7,275.09,227.22,276.43,230.28Z"/><path class="cls-2" d="M147.25,140c-15.44,8.94-27.32,21.76-38.19,35.77-9.59,12.36-18.55,25.11-25.3,39.24-5.06,10.6-8.4,21.58-7.95,32.66-10-8.71-26.54-32.37-28.4-33.52-.68-.41-7.6-7-8.17-8.85-1-3.13-3.13-5-4.49-7.74-3.24-6.43-2.84-13-.71-19.69.72-2.27,10.62-13.69,12.59-15.13,4.8-3.48,27.2-10.61,27-11.11-1.81-3.65,3.47-22.91,3.68-24.52.61-4.78,10.75-15,13.6-17.91,19.68-20.1,37.6-3.61,44.39-1.77,11.31,3.07,21.21,9.33,32.62,12.11,4.55,1.11,9.24,3.34,11.74,8.11.52,1,1.78,1.17,2.9,1.44,4.55,1.09-12.15,5.48-12.72,5.57-1.67.27-3.33.65-5,1C165.26,133.69,153.83,136.19,147.25,140Z"/><path class="cls-2" d="M197.86,252.38l-.11,0a2,2,0,0,1-1.12.11c-5.49-.82-10.16,2.13-14.24,5.17-6.3,4.69-10.36,11.34-12.64,19l5.35-5.82c2.78-3,6.2-5.22,9.47-7.6.93-.68,2.31-1.29,3.17-.52,1.12,1-.19,2.08-.8,2.95a89.45,89.45,0,0,1-6.53,9.06c-3.85,4.32-4.89,9.37-5.57,15,3.74-2.85,5.52-7.29,9.54-9.43,1.43-.76-.2-2.72,1.62-3.84,2.32-1.42,4.24-3.55,6.3-5.42,1.07-1,1.87-2.08,1.5-3.64-.51-2.13.64-2.36,2.27-2a3.88,3.88,0,0,0,4.75-2.33c.36-.78.77-1.52,1.76-1.32s.94,1.11,1.17,1.85-.58,1.8.21,2.56c3.81-4,4.67-7.75,2.62-11.65C203.7,253.64,200.79,253,197.86,252.38Z"/><path class="cls-2" d="M336.66,247.91a2.21,2.21,0,0,1-.3-2.42c.1-.55.49-1.25-.17-1.51-1-.38-1,.5-1.2,1.16s-.53,1.08-1.2.82c-.25-.09-.58-.52-.54-.74,1.07-5.28-.84-10.78,1.92-15.92,0-.06.21,0,.57-.12.4,2.57-1.61,5-.72,7.89.87-1.12,2.56-1.42,1.35-3.38a1.59,1.59,0,0,1,1.25-2.37c1.57-.26,1.13,1.13,1.13,1.87a23.82,23.82,0,0,0,1.46,8.28C341.46,244.9,337.71,245.51,336.66,247.91Z"/><path class="cls-2" d="M60.83,367.59C64.88,360.11,57,377,55.41,379c-.5,2.7-5.46-8.43-3.78-15.84C51.92,361.86,56.78,375.07,60.83,367.59Z"/><path class="cls-2" d="M124.48,306.63a8.07,8.07,0,0,1-1-.91c-.73-1-2.86-1.26-1.9-3s2.78-1.24,4.31-1.32c.38,0,.76.31,1.14.48-2.18,3.73,2.34,3.37,3,5.37.24.7,1.13,1.26.56,2.1s-1.4.19-2.07,0A12.34,12.34,0,0,1,124.48,306.63Z"/><path class="cls-2" d="M329.61,221.9c-2.18-1.37-4.51-1.65-4.29-3.81.24-2.35,2.68-3.66,4.23-5.19,1.07-1,1.63.57,1.6,1.84C331.11,217.06,328.94,218.8,329.61,221.9Z"/><path class="cls-2" d="M236.92,167.05c-3.53-2.52-7.22-4.2-7.59-9.74C232.83,160.19,236.6,161.72,236.92,167.05Z"/><path class="cls-2" d="M267.38,165.56l0,.29c3.42-4,5.16-4.06,8.07-.08a1.32,1.32,0,0,1,.25.92.75.75,0,0,1-1.08.55C272.35,166.19,269.53,167.1,267.38,165.56Z"/><path class="cls-2" d="M335.23,221.35c1.22,2-1.44,4.2,0,6,.73.93,2.52-.11,2.59-.39a9.75,9.75,0,0,0-.63-5.91A3.2,3.2,0,0,1,335.23,221.35Z"/><path class="cls-2" d="M219.28,288.47c-.69.78-1.37,1.11-1.69.61-1-1.58-.63-3.51-.33-5.23.15-.85,1.54-.34,2,.14C220.64,285.5,219,287.16,219.28,288.47Z"/><path class="cls-2" d="M173.7,329.95l-.74.15c-.79.28-1.73.34-2.15-.29s.55-1.09.88-1.65a3.18,3.18,0,0,1,3.14-1.82C174.41,327.56,175.69,329.14,173.7,329.95Z"/><path class="cls-2" d="M192.95,321.64c.61,1.79.59,3.12-1.08,3.94a7.06,7.06,0,0,0-1.07.61c.31.77.66,1.49-.65,1.7-.61.1-.76-.28-.85-.76a2.28,2.28,0,0,1,.65-2.22C191,323.91,192.93,323.91,192.95,321.64Z"/><path class="cls-2" d="M283.59,173.59c-2.68-1.09-4.7-1.57-5.8-3.57C279.32,171.33,282,170.46,283.59,173.59Z"/><path class="cls-2" d="M147.88,308.44c.51.62.88,1.23.18,1.82a1.69,1.69,0,0,1-2.16.32,1.22,1.22,0,0,1-.07-2A1.49,1.49,0,0,1,147.88,308.44Z"/><path class="cls-2" d="M214.47,323.88c-.38-1.06-1.59-2,.25-3.2.77-.51.87-2.11,1.33-3.37,2.18,1.75-.28,3.59,0,5.26v-.2c-.57.46-.66,1.44-1.58,1.53Z"/><path class="cls-2" d="M423.95,222.81,256.54,442.22H240.27s-9.19-21.49-5.06-42.36c.48-2.42,1.09-5,1.86-7.68,2.28-8-2.2-11.17,20.23-35.63,7.83-8.54,47.45-16.61,56.21-25.76,11.92-12.46,16.58-56.61,28.48-68.65,35.49-35.88,64.58-52.64,64.58-52.64Z"/><path class="cls-1" d="M525.33,383.77,478.91,199H421.28l-9.47,14.69-105,162.86c-14.8,23-25.61,36.74-51.63,36.74L250,442.47H363.24L368.85,414h-5.21c-16.4,0-24.41-3.24-24.41-11.52,0-2.88,1.6-8.28,5.2-14.4l19.2-31.75.41-.67h87.65l6.81,28.1c1.2,5.76,2,9.72,2,12.24,0,12.81-9.47,17.41-30.41,18-1.42,0-2.89,0-4.41,0h-2.8l-.09.52-4.72,27.94H556.16l1.59-29.17C537.75,413.3,530.54,405.37,525.33,383.77Zm-154-55.16L417,254.42l2.7,11.92,13.63,60.12.49,2.15Z"/><polygon class="cls-1" points="445.17 326.46 433.33 326.46 419.7 266.34 428.36 252.27 445.17 326.46"/><path class="cls-2" d="M515.46,384.44,469,199.68H438l-26.21,14-14.41,7.71L296.94,377.23C282.13,400.28,271.32,414,245.31,414l-5.21,29.17H353.37l.13-.67L359,414.68h-5.21c-16.41,0-24.42-3.24-24.42-11.52,0-2.88,1.61-8.28,5.21-14.4l19.61-32.42h87.65l6.8,28.1c1.2,5.76,2,9.72,2,12.24,0,10.59-6.48,15.57-20.54,17.28q-3.36.4-7.3.57-3.28.15-7,.15H413l-4.8,28.46H546.28l0-.67,1.56-28.5C527.87,414,520.67,406,515.46,384.44ZM417,254.42l2.7,11.92,13.63,60.12.49,2.15H371.38Z"/><path class="cls-1" d="M389.2,225.79c-43.73,0-69.42-10-69.41-36.53,0-8.08,1.75-17.47,3.77-29.19L336,94.13a49.91,49.91,0,0,0,.58-6.25c0-9.91-5.8-14.85-18.25-15.37L322.4,51.4h93L411.33,72C396,72.51,389,78.49,386.13,94.13L373.67,163.2c-1.17,7-2,11.73-2,14.59,0,16.94,13.62,27.89,33.6,27.89,28.39,0,45.48-13.56,50.41-39.62L469,93.36a55.32,55.32,0,0,0,.88-7.3c0-8.86-5.8-13.29-18-14.07l3.77-20.58h68.65l-4.05,21.11c-17.08.78-22.59,6.77-25.49,22.15l-14.49,73.5c-2.22,11.55-4.22,21.48-9.73,30.5-3.07,5-27.59,13.7-33.5,18.27"/><path class="cls-2" d="M368.29,235.13c-43.73,0-67.78-15.64-67.78-42.22,0-8.08,1.75-17.47,3.77-29.19l12.47-65.94a49.91,49.91,0,0,0,.58-6.25c0-9.91-5.8-14.85-18.25-15.37L303.11,55h93L392,75.63c-15.35.53-22.31,6.51-25.21,22.15l-12.45,69.06c-1.17,7-2,11.73-2,14.59,0,16.94,13.62,27.89,33.6,27.89,28.39,0,45.48-13.56,50.41-39.62L449.69,97a55.32,55.32,0,0,0,.88-7.3c0-8.86-5.8-13.29-18-14.07L436.37,55H505L501,76.16c-17.08.78-22.59,6.77-25.49,22.15L461,171.8c-3.46,18-6.36,32.05-22.88,44.82"/></svg>